G04*
G04 #@! TF.GenerationSoftware,Altium Limited,Altium Designer,25.2.1 (25)*
G04*
G04 Layer_Color=32896*
%FSLAX42Y42*%
%MOMM*%
G71*
G04*
G04 #@! TF.SameCoordinates,144C9D6A-8D9C-405D-8423-3DA1476509E1*
G04*
G04*
G04 #@! TF.FilePolarity,Positive*
G04*
G01*
G75*
%ADD13C,0.20*%
G36*
X5515Y4185D02*
X5514Y4184D01*
X5512Y4183D01*
X5511Y4182D01*
X5510Y4181D01*
X5508Y4180D01*
X5508Y4179D01*
X5507Y4179D01*
X5507Y4178D01*
X5507Y4178D01*
X5507Y4178D01*
X5505Y4176D01*
X5504Y4174D01*
X5502Y4172D01*
X5501Y4171D01*
X5500Y4169D01*
X5500Y4168D01*
X5500Y4168D01*
X5500Y4167D01*
X5499Y4167D01*
X5499Y4167D01*
Y4167D01*
X5492D01*
X5492Y4168D01*
X5493Y4169D01*
X5494Y4171D01*
X5494Y4172D01*
X5495Y4173D01*
X5495Y4174D01*
X5496Y4175D01*
X5496Y4175D01*
Y4175D01*
X5497Y4177D01*
X5498Y4178D01*
X5499Y4179D01*
X5499Y4180D01*
X5500Y4181D01*
X5501Y4182D01*
X5501Y4182D01*
X5501Y4182D01*
X5451D01*
Y4190D01*
X5515D01*
Y4185D01*
D02*
G37*
G36*
X5486Y4153D02*
X5488D01*
X5489Y4153D01*
X5490Y4152D01*
X5492Y4152D01*
X5493Y4152D01*
X5494Y4152D01*
X5495Y4152D01*
X5495Y4152D01*
X5496Y4152D01*
X5497Y4152D01*
X5497Y4151D01*
X5497Y4151D01*
X5498Y4151D01*
X5498D01*
X5500Y4151D01*
X5502Y4150D01*
X5503Y4149D01*
X5505Y4149D01*
X5506Y4148D01*
X5507Y4148D01*
X5507Y4147D01*
X5507Y4147D01*
X5509Y4146D01*
X5510Y4145D01*
X5511Y4144D01*
X5512Y4143D01*
X5512Y4142D01*
X5513Y4141D01*
X5513Y4141D01*
X5513Y4141D01*
Y4141D01*
X5514Y4139D01*
X5514Y4138D01*
X5515Y4136D01*
X5515Y4135D01*
X5515Y4134D01*
X5515Y4133D01*
Y4132D01*
X5515Y4129D01*
X5515Y4127D01*
X5514Y4125D01*
X5514Y4123D01*
X5513Y4122D01*
X5512Y4121D01*
X5512Y4121D01*
X5512Y4121D01*
X5512Y4120D01*
X5512Y4120D01*
Y4120D01*
X5510Y4119D01*
X5508Y4117D01*
X5507Y4116D01*
X5505Y4115D01*
X5503Y4114D01*
X5503Y4114D01*
X5502Y4114D01*
X5502Y4114D01*
X5501Y4113D01*
X5501Y4113D01*
X5501D01*
X5500Y4113D01*
X5498Y4113D01*
X5495Y4112D01*
X5492Y4112D01*
X5489Y4111D01*
X5488Y4111D01*
X5487Y4111D01*
X5486D01*
X5484Y4111D01*
X5484D01*
X5483D01*
X5483D01*
X5483D01*
X5479Y4111D01*
X5476Y4111D01*
X5474Y4112D01*
X5471Y4112D01*
X5469Y4112D01*
X5466Y4113D01*
X5465Y4114D01*
X5463Y4114D01*
X5461Y4115D01*
X5460Y4115D01*
X5459Y4116D01*
X5458Y4116D01*
X5457Y4117D01*
X5457Y4117D01*
X5457Y4117D01*
X5457Y4117D01*
X5455Y4118D01*
X5454Y4119D01*
X5454Y4121D01*
X5453Y4122D01*
X5452Y4123D01*
X5452Y4124D01*
X5451Y4125D01*
X5451Y4126D01*
X5451Y4128D01*
X5450Y4129D01*
X5450Y4130D01*
X5450Y4130D01*
X5450Y4131D01*
Y4132D01*
X5450Y4134D01*
X5451Y4137D01*
X5451Y4139D01*
X5452Y4140D01*
X5452Y4142D01*
X5453Y4142D01*
X5453Y4143D01*
X5453Y4143D01*
X5454Y4143D01*
X5454Y4143D01*
Y4143D01*
X5455Y4145D01*
X5457Y4146D01*
X5459Y4148D01*
X5460Y4149D01*
X5462Y4149D01*
X5463Y4150D01*
X5463Y4150D01*
X5464Y4150D01*
X5464Y4150D01*
X5464Y4150D01*
X5464D01*
X5466Y4151D01*
X5467Y4151D01*
X5470Y4152D01*
X5473Y4152D01*
X5476Y4152D01*
X5477Y4153D01*
X5479Y4153D01*
X5480D01*
X5481Y4153D01*
X5482D01*
X5482D01*
X5483D01*
X5483D01*
X5484D01*
X5486Y4153D01*
D02*
G37*
G36*
X5472Y4103D02*
X5474Y4103D01*
X5476Y4102D01*
X5477Y4102D01*
X5479Y4101D01*
X5480Y4100D01*
X5480Y4100D01*
X5480Y4100D01*
X5482Y4099D01*
X5483Y4097D01*
X5484Y4096D01*
X5485Y4094D01*
X5485Y4093D01*
X5486Y4092D01*
X5486Y4092D01*
X5486Y4091D01*
X5486Y4091D01*
Y4091D01*
X5487Y4093D01*
X5487Y4094D01*
X5488Y4095D01*
X5489Y4096D01*
X5490Y4097D01*
X5491Y4097D01*
X5491Y4098D01*
X5491Y4098D01*
X5492Y4098D01*
X5494Y4099D01*
X5495Y4099D01*
X5496Y4100D01*
X5497Y4100D01*
X5498Y4100D01*
X5499D01*
X5499D01*
X5500Y4100D01*
X5502Y4100D01*
X5503Y4099D01*
X5504Y4099D01*
X5505Y4098D01*
X5506Y4098D01*
X5507Y4098D01*
X5507Y4098D01*
X5508Y4097D01*
X5510Y4096D01*
X5511Y4094D01*
X5511Y4093D01*
X5512Y4092D01*
X5513Y4092D01*
X5513Y4091D01*
X5513Y4091D01*
Y4091D01*
X5514Y4089D01*
X5514Y4088D01*
X5515Y4086D01*
X5515Y4084D01*
X5515Y4083D01*
X5515Y4082D01*
Y4080D01*
X5515Y4079D01*
X5515Y4076D01*
X5514Y4074D01*
X5513Y4072D01*
X5513Y4071D01*
X5512Y4071D01*
X5512Y4070D01*
X5512Y4070D01*
X5511Y4069D01*
X5511Y4069D01*
X5511Y4069D01*
X5511Y4069D01*
X5509Y4067D01*
X5507Y4065D01*
X5505Y4064D01*
X5503Y4063D01*
X5501Y4063D01*
X5501Y4063D01*
X5500Y4062D01*
X5500Y4062D01*
X5499Y4062D01*
X5499Y4062D01*
X5499D01*
X5497Y4070D01*
X5499Y4070D01*
X5501Y4071D01*
X5503Y4072D01*
X5504Y4072D01*
X5505Y4073D01*
X5505Y4073D01*
X5506Y4074D01*
X5506Y4074D01*
X5507Y4075D01*
X5508Y4076D01*
X5508Y4078D01*
X5509Y4079D01*
X5509Y4080D01*
X5509Y4081D01*
Y4081D01*
X5509Y4083D01*
X5508Y4085D01*
X5508Y4086D01*
X5508Y4087D01*
X5507Y4088D01*
X5506Y4088D01*
X5506Y4089D01*
X5506Y4089D01*
X5505Y4090D01*
X5504Y4091D01*
X5503Y4091D01*
X5501Y4092D01*
X5500Y4092D01*
X5500Y4092D01*
X5499D01*
X5499D01*
X5499D01*
X5498D01*
X5497Y4092D01*
X5495Y4091D01*
X5494Y4091D01*
X5493Y4090D01*
X5492Y4089D01*
X5491Y4089D01*
X5491Y4088D01*
X5491Y4088D01*
Y4088D01*
X5490Y4086D01*
X5489Y4085D01*
X5489Y4083D01*
X5489Y4082D01*
X5488Y4081D01*
X5488Y4080D01*
Y4078D01*
X5488Y4078D01*
Y4078D01*
X5481Y4077D01*
X5482Y4078D01*
X5482Y4079D01*
X5482Y4080D01*
X5482Y4081D01*
X5482Y4081D01*
Y4082D01*
X5482Y4084D01*
X5482Y4086D01*
X5481Y4088D01*
X5481Y4089D01*
X5480Y4090D01*
X5479Y4091D01*
X5479Y4091D01*
X5479Y4091D01*
X5477Y4092D01*
X5476Y4093D01*
X5474Y4094D01*
X5473Y4094D01*
X5472Y4095D01*
X5471Y4095D01*
X5470Y4095D01*
X5470D01*
X5470D01*
X5470D01*
X5468Y4095D01*
X5466Y4094D01*
X5464Y4094D01*
X5463Y4093D01*
X5462Y4092D01*
X5461Y4092D01*
X5460Y4091D01*
X5460Y4091D01*
X5459Y4089D01*
X5458Y4088D01*
X5457Y4086D01*
X5457Y4085D01*
X5457Y4084D01*
X5457Y4083D01*
X5456Y4082D01*
Y4082D01*
X5457Y4080D01*
X5457Y4078D01*
X5457Y4077D01*
X5458Y4076D01*
X5458Y4075D01*
X5459Y4074D01*
X5459Y4074D01*
X5459Y4074D01*
X5461Y4073D01*
X5462Y4072D01*
X5464Y4071D01*
X5465Y4070D01*
X5467Y4070D01*
X5467Y4070D01*
X5468Y4069D01*
X5468Y4069D01*
X5469Y4069D01*
X5469Y4069D01*
X5469D01*
X5468Y4061D01*
X5467Y4061D01*
X5465Y4062D01*
X5463Y4063D01*
X5460Y4064D01*
X5459Y4064D01*
X5459Y4065D01*
X5458Y4065D01*
X5457Y4066D01*
X5456Y4066D01*
X5456Y4067D01*
X5456Y4067D01*
X5455Y4067D01*
X5455Y4067D01*
X5455Y4068D01*
X5454Y4069D01*
X5453Y4070D01*
X5453Y4071D01*
X5452Y4072D01*
X5451Y4074D01*
X5451Y4077D01*
X5450Y4078D01*
X5450Y4079D01*
X5450Y4079D01*
X5450Y4080D01*
X5450Y4081D01*
Y4082D01*
X5450Y4083D01*
X5450Y4085D01*
X5451Y4086D01*
X5451Y4088D01*
X5451Y4089D01*
X5452Y4091D01*
X5452Y4092D01*
X5453Y4093D01*
X5453Y4094D01*
X5454Y4095D01*
X5454Y4095D01*
X5455Y4096D01*
X5455Y4096D01*
X5456Y4097D01*
X5456Y4097D01*
X5456Y4097D01*
X5457Y4098D01*
X5458Y4099D01*
X5459Y4100D01*
X5461Y4101D01*
X5462Y4101D01*
X5463Y4102D01*
X5465Y4102D01*
X5466Y4103D01*
X5467Y4103D01*
X5468Y4103D01*
X5469Y4103D01*
X5469Y4103D01*
X5470D01*
X5470D01*
X5470D01*
X5472Y4103D01*
D02*
G37*
G36*
X5468Y4045D02*
X5470Y4044D01*
X5472Y4043D01*
X5473Y4042D01*
X5475Y4040D01*
X5476Y4040D01*
X5476Y4039D01*
X5477Y4038D01*
X5477Y4038D01*
X5478Y4037D01*
X5478Y4037D01*
X5479Y4035D01*
X5480Y4034D01*
X5480Y4034D01*
X5480Y4033D01*
X5480Y4033D01*
X5481Y4035D01*
X5481Y4036D01*
X5481Y4038D01*
X5482Y4039D01*
X5482Y4040D01*
X5483Y4041D01*
X5483Y4042D01*
X5484Y4043D01*
X5484Y4044D01*
X5485Y4045D01*
X5485Y4045D01*
X5485Y4046D01*
X5486Y4046D01*
X5486Y4047D01*
X5486Y4047D01*
X5486Y4047D01*
X5487Y4047D01*
X5488Y4048D01*
X5490Y4049D01*
X5492Y4050D01*
X5494Y4051D01*
X5495Y4051D01*
X5496Y4051D01*
X5497D01*
X5497Y4051D01*
X5497D01*
X5498D01*
X5498D01*
X5500Y4051D01*
X5501Y4051D01*
X5503Y4050D01*
X5504Y4050D01*
X5506Y4049D01*
X5506Y4049D01*
X5507Y4049D01*
X5507Y4048D01*
X5507D01*
X5509Y4047D01*
X5510Y4046D01*
X5511Y4045D01*
X5512Y4044D01*
X5513Y4043D01*
X5513Y4042D01*
X5513Y4042D01*
X5513Y4041D01*
Y4041D01*
X5514Y4040D01*
X5514Y4039D01*
X5514Y4037D01*
X5515Y4035D01*
X5515Y4033D01*
X5515Y4031D01*
Y4030D01*
X5515Y4030D01*
Y4000D01*
X5451D01*
Y4009D01*
X5479D01*
Y4019D01*
X5479Y4020D01*
Y4021D01*
X5479Y4022D01*
X5479Y4022D01*
Y4023D01*
X5479Y4023D01*
Y4023D01*
X5479Y4024D01*
X5478Y4025D01*
X5478Y4026D01*
X5478Y4026D01*
X5478Y4027D01*
X5478Y4027D01*
X5477Y4027D01*
X5477Y4028D01*
X5476Y4028D01*
X5475Y4030D01*
X5474Y4030D01*
X5474Y4031D01*
X5473Y4031D01*
X5473Y4031D01*
X5472Y4032D01*
X5471Y4033D01*
X5469Y4034D01*
X5468Y4035D01*
X5466Y4036D01*
X5465Y4037D01*
X5465Y4037D01*
X5465Y4037D01*
X5465Y4037D01*
X5464D01*
X5451Y4046D01*
Y4056D01*
X5468Y4045D01*
D02*
G37*
G36*
X4564Y1988D02*
X4563Y1986D01*
X4562Y1984D01*
X4561Y1983D01*
X4560Y1982D01*
X4559Y1981D01*
X4558Y1980D01*
X4558Y1980D01*
X4557Y1979D01*
X4557Y1979D01*
X4556Y1978D01*
X4554Y1977D01*
X4553Y1977D01*
X4553Y1976D01*
X4552Y1976D01*
X4552Y1976D01*
X4554Y1976D01*
X4556Y1976D01*
X4557Y1975D01*
X4558Y1975D01*
X4560Y1974D01*
X4561Y1974D01*
X4562Y1973D01*
X4563Y1973D01*
X4563Y1972D01*
X4564Y1972D01*
X4565Y1971D01*
X4565Y1971D01*
X4565Y1971D01*
X4566Y1971D01*
X4566Y1970D01*
X4566Y1970D01*
X4567Y1969D01*
X4567Y1968D01*
X4568Y1967D01*
X4569Y1965D01*
X4570Y1963D01*
X4570Y1961D01*
X4570Y1961D01*
Y1960D01*
X4570Y1959D01*
Y1959D01*
Y1959D01*
Y1959D01*
X4570Y1957D01*
X4570Y1955D01*
X4569Y1953D01*
X4569Y1952D01*
X4568Y1951D01*
X4568Y1950D01*
X4568Y1949D01*
X4568Y1949D01*
Y1949D01*
X4567Y1948D01*
X4565Y1946D01*
X4564Y1945D01*
X4563Y1944D01*
X4562Y1944D01*
X4561Y1943D01*
X4561Y1943D01*
X4561Y1943D01*
X4561D01*
X4560Y1943D01*
X4559Y1943D01*
X4557Y1942D01*
X4554Y1942D01*
X4552Y1941D01*
X4550Y1941D01*
X4550D01*
X4549Y1941D01*
X4519D01*
Y2005D01*
X4528D01*
Y1977D01*
X4539D01*
X4540Y1977D01*
X4540D01*
X4541Y1977D01*
X4541Y1977D01*
X4542D01*
X4542Y1977D01*
X4542D01*
X4544Y1978D01*
X4544Y1978D01*
X4545Y1978D01*
X4545Y1979D01*
X4546Y1979D01*
X4546Y1979D01*
X4546Y1979D01*
X4547Y1979D01*
X4547Y1980D01*
X4549Y1982D01*
X4550Y1982D01*
X4550Y1983D01*
X4550Y1983D01*
X4550Y1983D01*
X4551Y1984D01*
X4552Y1986D01*
X4553Y1987D01*
X4554Y1989D01*
X4555Y1990D01*
X4556Y1991D01*
X4556Y1991D01*
X4556Y1992D01*
X4556Y1992D01*
Y1992D01*
X4565Y2005D01*
X4575D01*
X4564Y1988D01*
D02*
G37*
G36*
X4709Y1941D02*
X4704D01*
X4703Y1943D01*
X4702Y1944D01*
X4701Y1946D01*
X4700Y1947D01*
X4699Y1948D01*
X4698Y1949D01*
X4698Y1949D01*
X4698Y1949D01*
X4697Y1950D01*
X4697Y1950D01*
X4695Y1951D01*
X4693Y1953D01*
X4692Y1954D01*
X4690Y1955D01*
X4688Y1956D01*
X4688Y1956D01*
X4687Y1957D01*
X4687Y1957D01*
X4686Y1957D01*
X4686Y1957D01*
X4686D01*
Y1965D01*
X4687Y1964D01*
X4689Y1964D01*
X4690Y1963D01*
X4691Y1962D01*
X4692Y1962D01*
X4693Y1961D01*
X4694Y1961D01*
X4694Y1961D01*
X4694D01*
X4696Y1960D01*
X4697Y1959D01*
X4699Y1958D01*
X4700Y1957D01*
X4701Y1956D01*
X4701Y1956D01*
X4702Y1955D01*
X4702Y1955D01*
Y2005D01*
X4709D01*
Y1941D01*
D02*
G37*
G36*
X4610D02*
X4605D01*
X4604Y1943D01*
X4603Y1944D01*
X4602Y1946D01*
X4601Y1947D01*
X4600Y1948D01*
X4599Y1949D01*
X4598Y1949D01*
X4598Y1949D01*
X4598Y1950D01*
X4598Y1950D01*
X4596Y1951D01*
X4594Y1953D01*
X4592Y1954D01*
X4590Y1955D01*
X4589Y1956D01*
X4588Y1956D01*
X4588Y1957D01*
X4587Y1957D01*
X4587Y1957D01*
X4587Y1957D01*
X4586D01*
Y1965D01*
X4588Y1964D01*
X4589Y1964D01*
X4591Y1963D01*
X4592Y1962D01*
X4593Y1962D01*
X4594Y1961D01*
X4594Y1961D01*
X4595Y1961D01*
X4595D01*
X4596Y1960D01*
X4598Y1959D01*
X4599Y1958D01*
X4600Y1957D01*
X4601Y1956D01*
X4602Y1956D01*
X4602Y1955D01*
X4602Y1955D01*
Y2005D01*
X4610D01*
Y1941D01*
D02*
G37*
G36*
X4654Y2006D02*
X4656Y2006D01*
X4658Y2005D01*
X4659Y2005D01*
X4661Y2004D01*
X4661Y2004D01*
X4662Y2003D01*
X4662Y2003D01*
X4662Y2003D01*
X4663Y2003D01*
X4663D01*
X4664Y2001D01*
X4666Y1999D01*
X4667Y1998D01*
X4668Y1996D01*
X4669Y1994D01*
X4669Y1994D01*
X4669Y1993D01*
X4669Y1993D01*
X4669Y1992D01*
X4670Y1992D01*
Y1992D01*
X4670Y1991D01*
X4670Y1989D01*
X4671Y1986D01*
X4671Y1983D01*
X4672Y1980D01*
X4672Y1979D01*
X4672Y1978D01*
Y1977D01*
X4672Y1976D01*
Y1975D01*
Y1974D01*
Y1974D01*
Y1974D01*
Y1972D01*
X4672Y1970D01*
Y1969D01*
X4672Y1967D01*
X4672Y1966D01*
X4671Y1965D01*
X4671Y1964D01*
X4671Y1963D01*
X4671Y1962D01*
X4671Y1961D01*
X4671Y1960D01*
X4671Y1960D01*
X4671Y1959D01*
X4671Y1959D01*
X4670Y1959D01*
Y1959D01*
X4670Y1957D01*
X4669Y1955D01*
X4669Y1953D01*
X4668Y1952D01*
X4667Y1951D01*
X4667Y1950D01*
X4667Y1949D01*
X4666Y1949D01*
X4665Y1948D01*
X4664Y1947D01*
X4663Y1946D01*
X4662Y1945D01*
X4661Y1944D01*
X4661Y1944D01*
X4660Y1943D01*
X4660Y1943D01*
X4660D01*
X4659Y1942D01*
X4657Y1942D01*
X4655Y1942D01*
X4654Y1941D01*
X4653Y1941D01*
X4652Y1941D01*
X4651D01*
X4649Y1941D01*
X4646Y1942D01*
X4644Y1942D01*
X4643Y1943D01*
X4641Y1944D01*
X4641Y1944D01*
X4640Y1944D01*
X4640Y1944D01*
X4640Y1945D01*
X4639Y1945D01*
X4639D01*
X4638Y1946D01*
X4636Y1948D01*
X4635Y1950D01*
X4634Y1951D01*
X4633Y1953D01*
X4633Y1954D01*
X4633Y1954D01*
X4633Y1955D01*
X4633Y1955D01*
X4632Y1955D01*
Y1955D01*
X4632Y1957D01*
X4632Y1958D01*
X4631Y1961D01*
X4631Y1964D01*
X4630Y1967D01*
X4630Y1969D01*
X4630Y1970D01*
Y1971D01*
X4630Y1972D01*
Y1973D01*
Y1973D01*
Y1974D01*
Y1974D01*
X4630Y1977D01*
X4630Y1980D01*
X4631Y1983D01*
X4631Y1985D01*
X4632Y1988D01*
X4632Y1990D01*
X4633Y1992D01*
X4633Y1994D01*
X4634Y1995D01*
X4634Y1996D01*
X4635Y1997D01*
X4635Y1998D01*
X4636Y1999D01*
X4636Y1999D01*
X4636Y2000D01*
X4636Y2000D01*
X4637Y2001D01*
X4639Y2002D01*
X4640Y2003D01*
X4641Y2004D01*
X4642Y2004D01*
X4643Y2005D01*
X4645Y2005D01*
X4646Y2006D01*
X4647Y2006D01*
X4648Y2006D01*
X4649Y2006D01*
X4649Y2006D01*
X4650Y2006D01*
X4651D01*
X4654Y2006D01*
D02*
G37*
G36*
X4734Y3482D02*
X4736Y3481D01*
X4738Y3481D01*
X4739Y3480D01*
X4741Y3480D01*
X4742Y3479D01*
X4742Y3479D01*
X4742Y3479D01*
X4742D01*
X4744Y3477D01*
X4745Y3476D01*
X4746Y3474D01*
X4747Y3473D01*
X4748Y3472D01*
X4748Y3471D01*
X4748Y3470D01*
X4748Y3470D01*
X4748Y3470D01*
Y3470D01*
X4749Y3471D01*
X4750Y3473D01*
X4751Y3474D01*
X4752Y3475D01*
X4752Y3476D01*
X4753Y3476D01*
X4753Y3477D01*
X4754Y3477D01*
X4755Y3478D01*
X4756Y3478D01*
X4757Y3479D01*
X4759Y3479D01*
X4760Y3479D01*
X4761Y3479D01*
X4761D01*
X4761D01*
X4761D01*
X4763Y3479D01*
X4764Y3479D01*
X4766Y3478D01*
X4768Y3477D01*
X4770Y3477D01*
X4771Y3476D01*
X4772Y3475D01*
X4772Y3475D01*
X4773Y3474D01*
X4773Y3474D01*
X4773Y3474D01*
X4773Y3474D01*
X4774Y3473D01*
X4775Y3472D01*
X4776Y3471D01*
X4776Y3470D01*
X4777Y3468D01*
X4778Y3465D01*
X4778Y3464D01*
X4778Y3463D01*
X4778Y3463D01*
X4778Y3462D01*
X4778Y3461D01*
Y3460D01*
X4778Y3459D01*
X4778Y3458D01*
X4777Y3455D01*
X4777Y3454D01*
X4777Y3453D01*
X4776Y3452D01*
X4776Y3451D01*
X4775Y3450D01*
X4775Y3449D01*
X4774Y3449D01*
X4774Y3448D01*
X4774Y3448D01*
X4774Y3447D01*
X4773Y3447D01*
X4773Y3447D01*
X4772Y3446D01*
X4772Y3446D01*
X4770Y3445D01*
X4769Y3444D01*
X4768Y3443D01*
X4766Y3443D01*
X4764Y3442D01*
X4763Y3442D01*
X4763Y3442D01*
X4762Y3442D01*
X4762D01*
X4762D01*
X4762D01*
X4760Y3442D01*
X4758Y3443D01*
X4757Y3443D01*
X4756Y3443D01*
X4755Y3444D01*
X4754Y3444D01*
X4754Y3444D01*
X4754Y3444D01*
X4752Y3446D01*
X4751Y3447D01*
X4751Y3448D01*
X4750Y3449D01*
X4749Y3450D01*
X4749Y3451D01*
X4749Y3451D01*
X4749Y3452D01*
X4748Y3452D01*
Y3452D01*
X4748Y3450D01*
X4747Y3448D01*
X4746Y3446D01*
X4745Y3445D01*
X4744Y3444D01*
X4743Y3443D01*
X4743Y3443D01*
X4743Y3443D01*
X4743D01*
X4741Y3442D01*
X4739Y3441D01*
X4738Y3440D01*
X4736Y3440D01*
X4735Y3440D01*
X4734Y3440D01*
X4733D01*
X4733Y3440D01*
X4733D01*
X4732D01*
X4732D01*
X4731Y3440D01*
X4729Y3440D01*
X4728Y3440D01*
X4727Y3441D01*
X4724Y3441D01*
X4723Y3442D01*
X4722Y3442D01*
X4721Y3443D01*
X4721Y3443D01*
X4720Y3444D01*
X4719Y3444D01*
X4719Y3445D01*
X4719Y3445D01*
X4718Y3445D01*
X4718Y3445D01*
X4717Y3446D01*
X4716Y3448D01*
X4716Y3449D01*
X4715Y3450D01*
X4715Y3451D01*
X4714Y3453D01*
X4714Y3455D01*
X4713Y3456D01*
X4713Y3457D01*
X4713Y3458D01*
X4713Y3459D01*
X4713Y3460D01*
Y3461D01*
X4713Y3462D01*
X4713Y3464D01*
X4713Y3466D01*
X4714Y3467D01*
X4714Y3468D01*
X4715Y3470D01*
X4715Y3471D01*
X4716Y3472D01*
X4716Y3473D01*
X4717Y3474D01*
X4717Y3474D01*
X4718Y3475D01*
X4718Y3475D01*
X4718Y3476D01*
X4718Y3476D01*
X4718Y3476D01*
X4719Y3477D01*
X4721Y3478D01*
X4722Y3479D01*
X4723Y3479D01*
X4724Y3480D01*
X4725Y3480D01*
X4727Y3481D01*
X4728Y3481D01*
X4729Y3481D01*
X4730Y3482D01*
X4731Y3482D01*
X4731Y3482D01*
X4732D01*
X4732D01*
X4732D01*
X4734Y3482D01*
D02*
G37*
G36*
X4749Y3432D02*
X4750D01*
X4752Y3432D01*
X4753Y3431D01*
X4754Y3431D01*
X4756Y3431D01*
X4757Y3431D01*
X4757Y3431D01*
X4758Y3431D01*
X4759Y3431D01*
X4759Y3431D01*
X4760Y3430D01*
X4760Y3430D01*
X4760Y3430D01*
X4761D01*
X4763Y3430D01*
X4764Y3429D01*
X4766Y3428D01*
X4767Y3428D01*
X4769Y3427D01*
X4769Y3427D01*
X4770Y3426D01*
X4770Y3426D01*
X4771Y3425D01*
X4773Y3424D01*
X4774Y3423D01*
X4775Y3422D01*
X4775Y3421D01*
X4776Y3420D01*
X4776Y3420D01*
X4776Y3420D01*
Y3420D01*
X4777Y3418D01*
X4777Y3417D01*
X4778Y3415D01*
X4778Y3414D01*
X4778Y3413D01*
X4778Y3412D01*
Y3411D01*
X4778Y3408D01*
X4778Y3406D01*
X4777Y3404D01*
X4776Y3402D01*
X4776Y3401D01*
X4775Y3400D01*
X4775Y3400D01*
X4775Y3400D01*
X4775Y3399D01*
X4774Y3399D01*
Y3399D01*
X4773Y3398D01*
X4771Y3396D01*
X4769Y3395D01*
X4768Y3394D01*
X4766Y3393D01*
X4765Y3393D01*
X4765Y3393D01*
X4764Y3393D01*
X4764Y3392D01*
X4764Y3392D01*
X4764D01*
X4762Y3392D01*
X4761Y3392D01*
X4758Y3391D01*
X4755Y3390D01*
X4752Y3390D01*
X4751Y3390D01*
X4749Y3390D01*
X4748D01*
X4747Y3390D01*
X4747D01*
X4746D01*
X4746D01*
X4745D01*
X4742Y3390D01*
X4739Y3390D01*
X4736Y3390D01*
X4734Y3391D01*
X4731Y3391D01*
X4729Y3392D01*
X4727Y3393D01*
X4726Y3393D01*
X4724Y3394D01*
X4723Y3394D01*
X4722Y3395D01*
X4721Y3395D01*
X4720Y3396D01*
X4720Y3396D01*
X4719Y3396D01*
X4719Y3396D01*
X4718Y3397D01*
X4717Y3398D01*
X4716Y3400D01*
X4716Y3401D01*
X4715Y3402D01*
X4714Y3403D01*
X4714Y3404D01*
X4714Y3405D01*
X4713Y3407D01*
X4713Y3408D01*
X4713Y3409D01*
X4713Y3409D01*
X4713Y3410D01*
Y3411D01*
X4713Y3413D01*
X4713Y3416D01*
X4714Y3418D01*
X4715Y3419D01*
X4715Y3421D01*
X4716Y3421D01*
X4716Y3422D01*
X4716Y3422D01*
X4716Y3422D01*
X4716Y3422D01*
Y3422D01*
X4718Y3424D01*
X4720Y3425D01*
X4722Y3427D01*
X4723Y3428D01*
X4725Y3428D01*
X4725Y3429D01*
X4726Y3429D01*
X4727Y3429D01*
X4727Y3429D01*
X4727Y3429D01*
X4727D01*
X4729Y3430D01*
X4730Y3430D01*
X4733Y3431D01*
X4736Y3431D01*
X4739Y3431D01*
X4740Y3432D01*
X4741Y3432D01*
X4743D01*
X4744Y3432D01*
X4744D01*
X4745D01*
X4745D01*
X4745D01*
X4747D01*
X4749Y3432D01*
D02*
G37*
G36*
X4735Y3382D02*
X4737Y3382D01*
X4739Y3381D01*
X4740Y3381D01*
X4741Y3380D01*
X4742Y3379D01*
X4743Y3379D01*
X4743Y3379D01*
X4745Y3378D01*
X4746Y3376D01*
X4747Y3375D01*
X4747Y3373D01*
X4748Y3372D01*
X4748Y3371D01*
X4748Y3371D01*
X4748Y3370D01*
X4749Y3370D01*
Y3370D01*
X4749Y3372D01*
X4750Y3373D01*
X4751Y3374D01*
X4752Y3375D01*
X4753Y3376D01*
X4753Y3376D01*
X4754Y3377D01*
X4754Y3377D01*
X4755Y3377D01*
X4757Y3378D01*
X4758Y3378D01*
X4759Y3379D01*
X4760Y3379D01*
X4761Y3379D01*
X4761D01*
X4762D01*
X4763Y3379D01*
X4765Y3379D01*
X4766Y3378D01*
X4767Y3378D01*
X4768Y3377D01*
X4769Y3377D01*
X4770Y3377D01*
X4770Y3377D01*
X4771Y3376D01*
X4772Y3375D01*
X4773Y3373D01*
X4774Y3372D01*
X4775Y3371D01*
X4775Y3371D01*
X4776Y3370D01*
X4776Y3370D01*
Y3370D01*
X4777Y3368D01*
X4777Y3367D01*
X4778Y3365D01*
X4778Y3363D01*
X4778Y3362D01*
X4778Y3361D01*
Y3359D01*
X4778Y3358D01*
X4778Y3355D01*
X4777Y3353D01*
X4776Y3351D01*
X4776Y3350D01*
X4775Y3350D01*
X4775Y3349D01*
X4774Y3349D01*
X4774Y3348D01*
X4774Y3348D01*
X4774Y3348D01*
X4774Y3348D01*
X4772Y3346D01*
X4770Y3344D01*
X4768Y3343D01*
X4766Y3342D01*
X4764Y3342D01*
X4764Y3342D01*
X4763Y3341D01*
X4762Y3341D01*
X4762Y3341D01*
X4762Y3341D01*
X4762D01*
X4760Y3349D01*
X4762Y3349D01*
X4764Y3350D01*
X4765Y3351D01*
X4767Y3351D01*
X4768Y3352D01*
X4768Y3352D01*
X4769Y3353D01*
X4769Y3353D01*
X4770Y3354D01*
X4770Y3355D01*
X4771Y3357D01*
X4771Y3358D01*
X4772Y3359D01*
X4772Y3360D01*
Y3360D01*
X4772Y3362D01*
X4771Y3364D01*
X4771Y3365D01*
X4770Y3366D01*
X4770Y3367D01*
X4769Y3367D01*
X4769Y3368D01*
X4769Y3368D01*
X4768Y3369D01*
X4767Y3370D01*
X4765Y3370D01*
X4764Y3371D01*
X4763Y3371D01*
X4762Y3371D01*
X4762D01*
X4762D01*
X4762D01*
X4761D01*
X4760Y3371D01*
X4758Y3370D01*
X4757Y3370D01*
X4756Y3369D01*
X4755Y3368D01*
X4754Y3368D01*
X4754Y3367D01*
X4754Y3367D01*
Y3367D01*
X4753Y3365D01*
X4752Y3364D01*
X4752Y3362D01*
X4751Y3361D01*
X4751Y3360D01*
X4751Y3359D01*
Y3357D01*
X4751Y3357D01*
Y3357D01*
X4744Y3356D01*
X4745Y3357D01*
X4745Y3358D01*
X4745Y3359D01*
X4745Y3360D01*
X4745Y3360D01*
Y3361D01*
X4745Y3363D01*
X4745Y3365D01*
X4744Y3367D01*
X4743Y3368D01*
X4743Y3369D01*
X4742Y3370D01*
X4742Y3370D01*
X4742Y3370D01*
X4740Y3371D01*
X4739Y3372D01*
X4737Y3373D01*
X4736Y3373D01*
X4735Y3374D01*
X4734Y3374D01*
X4733Y3374D01*
X4733D01*
X4733D01*
X4733D01*
X4731Y3374D01*
X4729Y3373D01*
X4727Y3373D01*
X4726Y3372D01*
X4725Y3371D01*
X4724Y3371D01*
X4723Y3370D01*
X4723Y3370D01*
X4722Y3368D01*
X4721Y3367D01*
X4720Y3365D01*
X4720Y3364D01*
X4719Y3363D01*
X4719Y3362D01*
X4719Y3361D01*
Y3361D01*
X4719Y3359D01*
X4720Y3357D01*
X4720Y3356D01*
X4721Y3355D01*
X4721Y3354D01*
X4722Y3353D01*
X4722Y3353D01*
X4722Y3353D01*
X4723Y3352D01*
X4725Y3351D01*
X4726Y3350D01*
X4728Y3349D01*
X4730Y3349D01*
X4730Y3349D01*
X4731Y3348D01*
X4731Y3348D01*
X4732Y3348D01*
X4732Y3348D01*
X4732D01*
X4731Y3340D01*
X4729Y3340D01*
X4728Y3341D01*
X4725Y3342D01*
X4723Y3343D01*
X4722Y3343D01*
X4721Y3344D01*
X4720Y3344D01*
X4720Y3345D01*
X4719Y3345D01*
X4719Y3346D01*
X4718Y3346D01*
X4718Y3346D01*
X4718Y3346D01*
X4718Y3347D01*
X4717Y3348D01*
X4716Y3349D01*
X4715Y3350D01*
X4715Y3351D01*
X4714Y3353D01*
X4713Y3356D01*
X4713Y3357D01*
X4713Y3358D01*
X4713Y3358D01*
X4713Y3359D01*
X4713Y3360D01*
Y3361D01*
X4713Y3362D01*
X4713Y3364D01*
X4713Y3365D01*
X4714Y3367D01*
X4714Y3368D01*
X4715Y3370D01*
X4715Y3371D01*
X4716Y3372D01*
X4716Y3373D01*
X4717Y3374D01*
X4717Y3374D01*
X4718Y3375D01*
X4718Y3375D01*
X4718Y3376D01*
X4719Y3376D01*
X4719Y3376D01*
X4720Y3377D01*
X4721Y3378D01*
X4722Y3379D01*
X4723Y3380D01*
X4724Y3380D01*
X4726Y3381D01*
X4728Y3381D01*
X4729Y3382D01*
X4730Y3382D01*
X4731Y3382D01*
X4731Y3382D01*
X4732Y3382D01*
X4732D01*
X4733D01*
X4733D01*
X4735Y3382D01*
D02*
G37*
G36*
X4736Y3324D02*
X4735Y3324D01*
X4733Y3324D01*
X4732Y3323D01*
X4731Y3323D01*
X4730Y3322D01*
X4729Y3322D01*
X4728Y3321D01*
X4727Y3320D01*
X4726Y3320D01*
X4726Y3319D01*
X4725Y3319D01*
X4725Y3319D01*
X4725Y3318D01*
X4724Y3318D01*
X4724Y3318D01*
X4724Y3318D01*
X4723Y3317D01*
X4723Y3316D01*
X4722Y3314D01*
X4721Y3312D01*
X4721Y3310D01*
X4720Y3308D01*
X4720Y3308D01*
Y3307D01*
X4720Y3306D01*
Y3306D01*
X4720Y3304D01*
X4720Y3302D01*
X4721Y3300D01*
X4721Y3298D01*
X4722Y3297D01*
X4722Y3296D01*
X4723Y3296D01*
X4723Y3295D01*
X4723Y3295D01*
X4723Y3295D01*
Y3295D01*
X4724Y3293D01*
X4726Y3292D01*
X4727Y3290D01*
X4729Y3289D01*
X4730Y3288D01*
X4731Y3288D01*
X4732Y3288D01*
X4732Y3287D01*
X4732Y3287D01*
X4732D01*
X4735Y3287D01*
X4737Y3286D01*
X4739Y3286D01*
X4742Y3285D01*
X4743Y3285D01*
X4743Y3285D01*
X4744D01*
X4745Y3285D01*
X4746D01*
X4746D01*
X4746D01*
X4746D01*
X4749Y3285D01*
X4751Y3285D01*
X4753Y3286D01*
X4755Y3286D01*
X4756Y3286D01*
X4757Y3287D01*
X4758Y3287D01*
X4758Y3287D01*
X4758Y3287D01*
X4759Y3287D01*
X4759D01*
X4761Y3288D01*
X4763Y3289D01*
X4764Y3290D01*
X4766Y3291D01*
X4767Y3292D01*
X4768Y3293D01*
X4768Y3294D01*
X4768Y3294D01*
Y3294D01*
X4769Y3296D01*
X4770Y3298D01*
X4771Y3300D01*
X4771Y3302D01*
X4772Y3304D01*
X4772Y3305D01*
Y3305D01*
X4772Y3306D01*
Y3306D01*
X4772Y3309D01*
X4771Y3311D01*
X4771Y3313D01*
X4770Y3314D01*
X4770Y3315D01*
X4769Y3316D01*
X4769Y3317D01*
X4769Y3317D01*
X4767Y3318D01*
X4766Y3320D01*
X4764Y3321D01*
X4762Y3322D01*
X4761Y3323D01*
X4760Y3323D01*
X4759Y3323D01*
X4759Y3323D01*
X4759Y3323D01*
X4758Y3324D01*
X4758D01*
X4760Y3332D01*
X4762Y3331D01*
X4763Y3331D01*
X4765Y3330D01*
X4766Y3329D01*
X4767Y3329D01*
X4769Y3328D01*
X4770Y3327D01*
X4771Y3326D01*
X4771Y3326D01*
X4772Y3325D01*
X4773Y3324D01*
X4773Y3324D01*
X4774Y3323D01*
X4774Y3323D01*
X4774Y3323D01*
X4774Y3323D01*
X4775Y3321D01*
X4776Y3320D01*
X4776Y3319D01*
X4777Y3317D01*
X4778Y3315D01*
X4778Y3312D01*
X4779Y3311D01*
X4779Y3310D01*
X4779Y3309D01*
X4779Y3308D01*
X4779Y3307D01*
Y3307D01*
X4779Y3303D01*
X4778Y3301D01*
X4778Y3298D01*
X4777Y3297D01*
X4777Y3296D01*
X4777Y3295D01*
X4776Y3294D01*
X4776Y3293D01*
X4776Y3292D01*
X4775Y3292D01*
X4775Y3291D01*
X4775Y3291D01*
X4775Y3291D01*
X4774Y3289D01*
X4772Y3286D01*
X4770Y3285D01*
X4768Y3283D01*
X4766Y3282D01*
X4766Y3281D01*
X4765Y3281D01*
X4764Y3281D01*
X4764Y3280D01*
X4764Y3280D01*
X4764Y3280D01*
X4761Y3279D01*
X4758Y3278D01*
X4755Y3277D01*
X4752Y3277D01*
X4751Y3277D01*
X4750Y3277D01*
X4749Y3276D01*
X4748D01*
X4747Y3276D01*
X4747D01*
X4746D01*
X4746D01*
X4743Y3277D01*
X4740Y3277D01*
X4737Y3277D01*
X4736Y3278D01*
X4734Y3278D01*
X4733Y3278D01*
X4732Y3279D01*
X4731Y3279D01*
X4731Y3279D01*
X4730Y3279D01*
X4730Y3280D01*
X4729Y3280D01*
X4729D01*
X4726Y3281D01*
X4724Y3283D01*
X4722Y3284D01*
X4721Y3285D01*
X4720Y3286D01*
X4719Y3287D01*
X4719Y3287D01*
X4718Y3288D01*
X4718Y3289D01*
X4717Y3289D01*
X4717Y3289D01*
X4717Y3290D01*
X4717Y3290D01*
X4716Y3291D01*
X4716Y3292D01*
X4715Y3295D01*
X4714Y3298D01*
X4713Y3300D01*
X4713Y3302D01*
X4713Y3303D01*
X4713Y3304D01*
Y3305D01*
X4713Y3305D01*
Y3306D01*
X4713Y3308D01*
X4713Y3310D01*
X4713Y3312D01*
X4714Y3313D01*
X4714Y3315D01*
X4715Y3316D01*
X4715Y3317D01*
X4716Y3319D01*
X4716Y3320D01*
X4716Y3321D01*
X4717Y3321D01*
X4717Y3322D01*
X4718Y3323D01*
X4718Y3323D01*
X4718Y3323D01*
X4718Y3323D01*
X4719Y3325D01*
X4720Y3326D01*
X4722Y3327D01*
X4723Y3328D01*
X4726Y3329D01*
X4728Y3331D01*
X4729Y3331D01*
X4731Y3332D01*
X4732Y3332D01*
X4732Y3332D01*
X4733Y3333D01*
X4734Y3333D01*
X4734Y3333D01*
X4734D01*
X4736Y3324D01*
D02*
G37*
G36*
X4678Y2929D02*
X4681Y2929D01*
X4684Y2928D01*
X4686Y2928D01*
X4687Y2927D01*
X4688Y2927D01*
X4689Y2927D01*
X4690Y2926D01*
X4691Y2926D01*
X4691Y2926D01*
X4692Y2926D01*
X4692Y2926D01*
X4692D01*
X4695Y2924D01*
X4697Y2923D01*
X4699Y2921D01*
X4700Y2920D01*
X4701Y2920D01*
X4702Y2919D01*
X4702Y2918D01*
X4703Y2917D01*
X4703Y2917D01*
X4704Y2917D01*
X4704Y2916D01*
X4704Y2916D01*
X4704Y2916D01*
X4705Y2915D01*
X4706Y2913D01*
X4707Y2911D01*
X4707Y2908D01*
X4708Y2905D01*
X4708Y2904D01*
X4708Y2903D01*
X4708Y2902D01*
Y2901D01*
X4708Y2900D01*
Y2899D01*
X4708Y2897D01*
X4708Y2895D01*
X4708Y2894D01*
X4708Y2892D01*
X4707Y2891D01*
X4707Y2889D01*
X4706Y2888D01*
X4706Y2887D01*
X4705Y2886D01*
X4705Y2885D01*
X4704Y2884D01*
X4704Y2883D01*
X4703Y2883D01*
X4703Y2882D01*
X4703Y2882D01*
X4703Y2882D01*
X4702Y2881D01*
X4701Y2880D01*
X4699Y2879D01*
X4698Y2878D01*
X4695Y2876D01*
X4693Y2875D01*
X4692Y2874D01*
X4691Y2874D01*
X4690Y2873D01*
X4689Y2873D01*
X4688Y2873D01*
X4687Y2873D01*
X4687Y2873D01*
X4687D01*
X4685Y2881D01*
X4686Y2881D01*
X4688Y2882D01*
X4689Y2882D01*
X4690Y2883D01*
X4691Y2883D01*
X4692Y2884D01*
X4693Y2885D01*
X4694Y2885D01*
X4695Y2886D01*
X4695Y2886D01*
X4696Y2887D01*
X4696Y2887D01*
X4697Y2887D01*
X4697Y2888D01*
X4697Y2888D01*
X4697Y2888D01*
X4698Y2889D01*
X4698Y2890D01*
X4699Y2892D01*
X4700Y2894D01*
X4701Y2896D01*
X4701Y2897D01*
X4701Y2898D01*
Y2899D01*
X4701Y2899D01*
Y2900D01*
X4701Y2902D01*
X4701Y2904D01*
X4700Y2906D01*
X4700Y2907D01*
X4699Y2909D01*
X4699Y2909D01*
X4699Y2910D01*
X4698Y2910D01*
X4698Y2910D01*
X4698Y2911D01*
Y2911D01*
X4697Y2912D01*
X4695Y2914D01*
X4694Y2915D01*
X4692Y2916D01*
X4691Y2917D01*
X4690Y2918D01*
X4690Y2918D01*
X4689Y2918D01*
X4689Y2918D01*
X4689D01*
X4687Y2919D01*
X4684Y2919D01*
X4682Y2920D01*
X4680Y2920D01*
X4679Y2920D01*
X4678Y2920D01*
X4677D01*
X4676Y2920D01*
X4676D01*
X4675D01*
X4675D01*
X4675D01*
X4672Y2920D01*
X4670Y2920D01*
X4668Y2920D01*
X4666Y2919D01*
X4665Y2919D01*
X4664Y2919D01*
X4664Y2919D01*
X4663Y2919D01*
X4663Y2919D01*
X4663Y2918D01*
X4662D01*
X4660Y2918D01*
X4658Y2917D01*
X4657Y2915D01*
X4655Y2914D01*
X4654Y2913D01*
X4654Y2912D01*
X4653Y2912D01*
X4653Y2912D01*
Y2912D01*
X4652Y2910D01*
X4651Y2907D01*
X4650Y2905D01*
X4650Y2903D01*
X4650Y2902D01*
X4649Y2901D01*
Y2900D01*
X4649Y2900D01*
Y2899D01*
X4649Y2897D01*
X4650Y2895D01*
X4650Y2893D01*
X4651Y2891D01*
X4652Y2890D01*
X4652Y2889D01*
X4652Y2889D01*
X4653Y2888D01*
X4654Y2887D01*
X4656Y2886D01*
X4657Y2885D01*
X4659Y2884D01*
X4660Y2883D01*
X4661Y2883D01*
X4662Y2882D01*
X4662Y2882D01*
X4662Y2882D01*
X4663Y2882D01*
X4663D01*
X4661Y2874D01*
X4659Y2874D01*
X4658Y2875D01*
X4656Y2875D01*
X4655Y2876D01*
X4654Y2877D01*
X4653Y2878D01*
X4651Y2878D01*
X4651Y2879D01*
X4650Y2880D01*
X4649Y2881D01*
X4648Y2881D01*
X4648Y2882D01*
X4648Y2882D01*
X4647Y2882D01*
X4647Y2883D01*
X4647Y2883D01*
X4646Y2884D01*
X4645Y2885D01*
X4645Y2887D01*
X4644Y2888D01*
X4643Y2891D01*
X4643Y2893D01*
X4643Y2895D01*
X4642Y2896D01*
X4642Y2897D01*
X4642Y2897D01*
X4642Y2898D01*
Y2899D01*
X4642Y2902D01*
X4643Y2905D01*
X4643Y2908D01*
X4644Y2909D01*
X4644Y2910D01*
X4644Y2911D01*
X4645Y2912D01*
X4645Y2913D01*
X4645Y2913D01*
X4646Y2914D01*
X4646Y2914D01*
X4646Y2914D01*
X4646Y2914D01*
X4648Y2917D01*
X4649Y2919D01*
X4651Y2921D01*
X4653Y2923D01*
X4655Y2924D01*
X4656Y2924D01*
X4656Y2925D01*
X4657Y2925D01*
X4657Y2925D01*
X4657Y2925D01*
X4657Y2925D01*
X4660Y2927D01*
X4663Y2928D01*
X4666Y2928D01*
X4669Y2929D01*
X4670Y2929D01*
X4671Y2929D01*
X4672Y2929D01*
X4673D01*
X4674Y2929D01*
X4674D01*
X4675D01*
X4675D01*
X4678Y2929D01*
D02*
G37*
G36*
X4692Y2865D02*
X4693Y2865D01*
X4696Y2864D01*
X4698Y2863D01*
X4699Y2862D01*
X4700Y2862D01*
X4701Y2861D01*
X4701Y2861D01*
X4702Y2860D01*
X4702Y2860D01*
X4703Y2859D01*
X4703Y2859D01*
X4703Y2859D01*
X4703Y2859D01*
X4704Y2858D01*
X4705Y2857D01*
X4706Y2856D01*
X4706Y2854D01*
X4707Y2852D01*
X4708Y2850D01*
X4708Y2849D01*
X4708Y2848D01*
X4708Y2847D01*
X4708Y2846D01*
X4708Y2846D01*
Y2845D01*
X4708Y2843D01*
X4708Y2842D01*
X4708Y2840D01*
X4707Y2839D01*
X4707Y2837D01*
X4706Y2836D01*
X4706Y2835D01*
X4705Y2834D01*
X4705Y2833D01*
X4704Y2832D01*
X4704Y2831D01*
X4703Y2831D01*
X4703Y2830D01*
X4703Y2830D01*
X4703Y2830D01*
X4703Y2830D01*
X4701Y2828D01*
X4700Y2827D01*
X4699Y2827D01*
X4698Y2826D01*
X4697Y2825D01*
X4695Y2825D01*
X4693Y2824D01*
X4692Y2824D01*
X4691Y2824D01*
X4691Y2824D01*
X4690Y2823D01*
X4689Y2823D01*
X4689D01*
X4688D01*
X4688D01*
X4686Y2823D01*
X4684Y2824D01*
X4682Y2824D01*
X4681Y2825D01*
X4680Y2825D01*
X4679Y2826D01*
X4678Y2826D01*
X4678Y2826D01*
X4677Y2828D01*
X4675Y2829D01*
X4675Y2831D01*
X4674Y2832D01*
X4673Y2833D01*
X4673Y2834D01*
X4673Y2835D01*
X4673Y2835D01*
X4673Y2835D01*
Y2835D01*
X4672Y2834D01*
X4671Y2832D01*
X4670Y2831D01*
X4669Y2830D01*
X4668Y2830D01*
X4668Y2829D01*
X4667Y2829D01*
X4667Y2829D01*
X4666Y2828D01*
X4665Y2827D01*
X4663Y2827D01*
X4662Y2827D01*
X4661Y2827D01*
X4660Y2826D01*
X4660D01*
X4660D01*
X4658Y2827D01*
X4656Y2827D01*
X4655Y2827D01*
X4654Y2828D01*
X4653Y2828D01*
X4652Y2828D01*
X4652Y2829D01*
X4651Y2829D01*
X4650Y2830D01*
X4649Y2831D01*
X4648Y2832D01*
X4647Y2833D01*
X4646Y2834D01*
X4646Y2835D01*
X4645Y2835D01*
X4645Y2836D01*
Y2836D01*
X4645Y2837D01*
X4644Y2839D01*
X4644Y2841D01*
X4643Y2842D01*
X4643Y2843D01*
X4643Y2844D01*
Y2847D01*
X4643Y2848D01*
X4644Y2850D01*
X4644Y2853D01*
X4645Y2854D01*
X4646Y2855D01*
X4646Y2856D01*
X4646Y2857D01*
X4647Y2857D01*
X4647Y2857D01*
X4647Y2858D01*
X4647Y2858D01*
X4647Y2858D01*
X4649Y2860D01*
X4651Y2861D01*
X4653Y2862D01*
X4655Y2863D01*
X4657Y2864D01*
X4658Y2864D01*
X4658Y2864D01*
X4659Y2864D01*
X4659Y2864D01*
X4659Y2864D01*
X4660D01*
X4661Y2857D01*
X4659Y2856D01*
X4657Y2856D01*
X4656Y2855D01*
X4654Y2854D01*
X4654Y2854D01*
X4653Y2853D01*
X4652Y2853D01*
X4652Y2853D01*
X4651Y2851D01*
X4651Y2850D01*
X4650Y2849D01*
X4650Y2848D01*
X4650Y2847D01*
X4649Y2846D01*
Y2845D01*
X4650Y2843D01*
X4650Y2842D01*
X4650Y2841D01*
X4651Y2839D01*
X4651Y2839D01*
X4652Y2838D01*
X4652Y2838D01*
X4652Y2837D01*
X4653Y2836D01*
X4655Y2836D01*
X4656Y2835D01*
X4657Y2835D01*
X4658Y2835D01*
X4659Y2835D01*
X4659D01*
X4659D01*
X4659D01*
X4660D01*
X4661Y2835D01*
X4663Y2835D01*
X4664Y2836D01*
X4666Y2837D01*
X4666Y2837D01*
X4667Y2838D01*
X4667Y2838D01*
X4667Y2838D01*
Y2839D01*
X4668Y2840D01*
X4669Y2842D01*
X4669Y2843D01*
X4670Y2845D01*
X4670Y2846D01*
X4670Y2847D01*
Y2848D01*
X4670Y2848D01*
Y2849D01*
X4677Y2850D01*
X4677Y2849D01*
X4676Y2847D01*
X4676Y2847D01*
X4676Y2846D01*
X4676Y2845D01*
Y2844D01*
X4676Y2842D01*
X4677Y2841D01*
X4677Y2839D01*
X4678Y2838D01*
X4678Y2837D01*
X4679Y2836D01*
X4679Y2835D01*
X4680Y2835D01*
X4681Y2834D01*
X4682Y2833D01*
X4684Y2832D01*
X4685Y2832D01*
X4687Y2832D01*
X4688Y2832D01*
X4688Y2832D01*
X4688D01*
X4688D01*
X4689D01*
X4691Y2832D01*
X4692Y2832D01*
X4694Y2833D01*
X4695Y2834D01*
X4697Y2834D01*
X4697Y2835D01*
X4698Y2835D01*
X4698Y2836D01*
X4699Y2837D01*
X4700Y2839D01*
X4701Y2840D01*
X4701Y2842D01*
X4702Y2843D01*
X4702Y2844D01*
X4702Y2844D01*
Y2845D01*
X4702Y2847D01*
X4701Y2848D01*
X4701Y2849D01*
X4700Y2851D01*
X4700Y2852D01*
X4699Y2852D01*
X4699Y2853D01*
X4699Y2853D01*
X4698Y2854D01*
X4696Y2855D01*
X4695Y2856D01*
X4693Y2856D01*
X4692Y2857D01*
X4691Y2857D01*
X4690Y2857D01*
X4690Y2857D01*
X4690Y2857D01*
X4689Y2857D01*
X4689D01*
X4690Y2865D01*
X4692Y2865D01*
D02*
G37*
G36*
X4679Y2815D02*
X4682Y2815D01*
X4685Y2815D01*
X4687Y2815D01*
X4690Y2814D01*
X4692Y2814D01*
X4694Y2813D01*
X4695Y2812D01*
X4697Y2812D01*
X4698Y2811D01*
X4699Y2811D01*
X4700Y2810D01*
X4701Y2810D01*
X4701Y2810D01*
X4702Y2809D01*
X4702Y2809D01*
X4703Y2808D01*
X4704Y2807D01*
X4705Y2806D01*
X4706Y2805D01*
X4706Y2804D01*
X4707Y2802D01*
X4707Y2801D01*
X4708Y2800D01*
X4708Y2799D01*
X4708Y2798D01*
X4708Y2797D01*
X4708Y2796D01*
X4708Y2796D01*
Y2795D01*
X4708Y2792D01*
X4708Y2790D01*
X4707Y2788D01*
X4706Y2786D01*
X4706Y2785D01*
X4705Y2784D01*
X4705Y2784D01*
X4705Y2784D01*
X4705Y2783D01*
X4705Y2783D01*
Y2783D01*
X4703Y2781D01*
X4701Y2780D01*
X4700Y2779D01*
X4698Y2778D01*
X4696Y2777D01*
X4696Y2777D01*
X4695Y2777D01*
X4695Y2776D01*
X4694Y2776D01*
X4694Y2776D01*
X4694D01*
X4693Y2776D01*
X4691Y2775D01*
X4688Y2775D01*
X4685Y2774D01*
X4682Y2774D01*
X4681Y2774D01*
X4680Y2774D01*
X4679D01*
X4678Y2774D01*
X4677D01*
X4676D01*
X4676D01*
X4676D01*
X4674D01*
X4672Y2774D01*
X4671D01*
X4669Y2774D01*
X4668Y2774D01*
X4667Y2774D01*
X4666Y2774D01*
X4665Y2775D01*
X4664Y2775D01*
X4663Y2775D01*
X4662Y2775D01*
X4662Y2775D01*
X4661Y2775D01*
X4661Y2775D01*
X4661Y2775D01*
X4661D01*
X4659Y2776D01*
X4657Y2776D01*
X4655Y2777D01*
X4654Y2778D01*
X4653Y2778D01*
X4652Y2779D01*
X4651Y2779D01*
X4651Y2779D01*
X4650Y2780D01*
X4649Y2781D01*
X4648Y2782D01*
X4647Y2783D01*
X4646Y2784D01*
X4645Y2785D01*
X4645Y2786D01*
X4645Y2786D01*
Y2786D01*
X4644Y2787D01*
X4644Y2789D01*
X4644Y2790D01*
X4643Y2792D01*
X4643Y2793D01*
X4643Y2794D01*
Y2795D01*
X4643Y2797D01*
X4644Y2799D01*
X4644Y2801D01*
X4645Y2803D01*
X4646Y2804D01*
X4646Y2805D01*
X4646Y2805D01*
X4646Y2806D01*
X4647Y2806D01*
X4647Y2806D01*
Y2806D01*
X4648Y2808D01*
X4650Y2809D01*
X4652Y2811D01*
X4653Y2811D01*
X4655Y2812D01*
X4656Y2813D01*
X4656Y2813D01*
X4657Y2813D01*
X4657Y2813D01*
X4657Y2813D01*
X4657D01*
X4659Y2814D01*
X4660Y2814D01*
X4663Y2815D01*
X4666Y2815D01*
X4669Y2815D01*
X4671Y2815D01*
X4672Y2815D01*
X4673D01*
X4674Y2816D01*
X4675D01*
X4675D01*
X4676D01*
X4676D01*
X4679Y2815D01*
D02*
G37*
G36*
X4652Y2734D02*
X4654Y2736D01*
X4657Y2738D01*
X4660Y2740D01*
X4663Y2742D01*
X4664Y2743D01*
X4665Y2743D01*
X4666Y2744D01*
X4667Y2744D01*
X4668Y2745D01*
X4668Y2745D01*
X4668Y2745D01*
X4668Y2745D01*
X4672Y2747D01*
X4676Y2749D01*
X4679Y2750D01*
X4681Y2751D01*
X4683Y2751D01*
X4684Y2752D01*
X4685Y2752D01*
X4686Y2753D01*
X4687Y2753D01*
X4688Y2753D01*
X4689Y2753D01*
X4689Y2753D01*
X4689D01*
X4693Y2754D01*
X4695Y2755D01*
X4696Y2755D01*
X4698Y2755D01*
X4700Y2756D01*
X4701Y2756D01*
X4702Y2756D01*
X4703Y2756D01*
X4704Y2756D01*
X4705Y2756D01*
X4706D01*
X4706Y2756D01*
X4707D01*
X4707D01*
X4707D01*
Y2748D01*
X4704Y2748D01*
X4700Y2748D01*
X4698Y2747D01*
X4696Y2747D01*
X4695Y2746D01*
X4694Y2746D01*
X4693Y2746D01*
X4692Y2746D01*
X4691Y2746D01*
X4691Y2745D01*
X4690Y2745D01*
X4690Y2745D01*
X4690D01*
X4685Y2744D01*
X4681Y2742D01*
X4680Y2742D01*
X4678Y2741D01*
X4676Y2740D01*
X4674Y2739D01*
X4673Y2739D01*
X4672Y2738D01*
X4670Y2738D01*
X4669Y2737D01*
X4669Y2737D01*
X4668Y2736D01*
X4668Y2736D01*
X4668Y2736D01*
X4666Y2735D01*
X4664Y2734D01*
X4662Y2733D01*
X4660Y2732D01*
X4659Y2731D01*
X4657Y2730D01*
X4656Y2729D01*
X4655Y2728D01*
X4654Y2727D01*
X4653Y2726D01*
X4652Y2725D01*
X4651Y2725D01*
X4651Y2724D01*
X4651Y2724D01*
X4650Y2724D01*
X4650Y2724D01*
X4644D01*
Y2765D01*
X4652D01*
Y2734D01*
D02*
G37*
G36*
X5847Y2412D02*
X5851Y2412D01*
X5853Y2411D01*
X5855Y2411D01*
X5856Y2411D01*
X5857Y2411D01*
X5858Y2410D01*
X5859Y2410D01*
X5860Y2410D01*
X5860Y2409D01*
X5861Y2409D01*
X5861Y2409D01*
X5861D01*
X5864Y2408D01*
X5866Y2406D01*
X5869Y2405D01*
X5869Y2404D01*
X5870Y2403D01*
X5871Y2402D01*
X5872Y2401D01*
X5872Y2401D01*
X5873Y2400D01*
X5873Y2400D01*
X5873Y2400D01*
X5873Y2399D01*
X5873Y2399D01*
X5874Y2398D01*
X5875Y2397D01*
X5876Y2394D01*
X5876Y2391D01*
X5877Y2388D01*
X5877Y2387D01*
X5877Y2386D01*
X5877Y2385D01*
Y2384D01*
X5878Y2383D01*
Y2382D01*
X5877Y2381D01*
X5877Y2379D01*
X5877Y2377D01*
X5877Y2376D01*
X5876Y2374D01*
X5876Y2373D01*
X5875Y2371D01*
X5875Y2370D01*
X5874Y2369D01*
X5874Y2368D01*
X5873Y2367D01*
X5873Y2367D01*
X5873Y2366D01*
X5872Y2366D01*
X5872Y2366D01*
X5872Y2366D01*
X5871Y2364D01*
X5870Y2363D01*
X5869Y2362D01*
X5867Y2361D01*
X5865Y2359D01*
X5862Y2358D01*
X5861Y2358D01*
X5860Y2357D01*
X5859Y2357D01*
X5858Y2356D01*
X5857Y2356D01*
X5857Y2356D01*
X5856Y2356D01*
X5856D01*
X5854Y2364D01*
X5855Y2365D01*
X5857Y2365D01*
X5858Y2366D01*
X5859Y2366D01*
X5860Y2367D01*
X5861Y2367D01*
X5862Y2368D01*
X5863Y2368D01*
X5864Y2369D01*
X5864Y2370D01*
X5865Y2370D01*
X5865Y2370D01*
X5866Y2371D01*
X5866Y2371D01*
X5866Y2371D01*
X5866Y2371D01*
X5867Y2372D01*
X5868Y2373D01*
X5869Y2375D01*
X5869Y2377D01*
X5870Y2379D01*
X5870Y2381D01*
X5870Y2381D01*
Y2382D01*
X5870Y2383D01*
Y2383D01*
X5870Y2385D01*
X5870Y2387D01*
X5869Y2389D01*
X5869Y2391D01*
X5868Y2392D01*
X5868Y2393D01*
X5868Y2393D01*
X5868Y2394D01*
X5867Y2394D01*
X5867Y2394D01*
Y2394D01*
X5866Y2396D01*
X5865Y2397D01*
X5863Y2399D01*
X5862Y2400D01*
X5860Y2400D01*
X5859Y2401D01*
X5859Y2401D01*
X5858Y2401D01*
X5858Y2401D01*
X5858D01*
X5856Y2402D01*
X5853Y2403D01*
X5851Y2403D01*
X5849Y2404D01*
X5848Y2404D01*
X5847Y2404D01*
X5846D01*
X5845Y2404D01*
X5845D01*
X5844D01*
X5844D01*
X5844D01*
X5842Y2404D01*
X5839Y2404D01*
X5837Y2403D01*
X5835Y2403D01*
X5834Y2403D01*
X5833Y2402D01*
X5833Y2402D01*
X5832Y2402D01*
X5832Y2402D01*
X5832Y2402D01*
X5832D01*
X5830Y2401D01*
X5828Y2400D01*
X5826Y2399D01*
X5825Y2398D01*
X5824Y2397D01*
X5823Y2396D01*
X5822Y2395D01*
X5822Y2395D01*
Y2395D01*
X5821Y2393D01*
X5820Y2391D01*
X5819Y2389D01*
X5819Y2387D01*
X5819Y2385D01*
X5819Y2384D01*
Y2384D01*
X5819Y2383D01*
Y2383D01*
X5819Y2380D01*
X5819Y2378D01*
X5820Y2376D01*
X5820Y2375D01*
X5821Y2374D01*
X5821Y2373D01*
X5822Y2372D01*
X5822Y2372D01*
X5823Y2370D01*
X5825Y2369D01*
X5826Y2368D01*
X5828Y2367D01*
X5830Y2366D01*
X5830Y2366D01*
X5831Y2366D01*
X5831Y2366D01*
X5832Y2365D01*
X5832Y2365D01*
X5832D01*
X5830Y2357D01*
X5828Y2358D01*
X5827Y2358D01*
X5825Y2359D01*
X5824Y2360D01*
X5823Y2360D01*
X5822Y2361D01*
X5821Y2362D01*
X5820Y2363D01*
X5819Y2363D01*
X5818Y2364D01*
X5818Y2365D01*
X5817Y2365D01*
X5817Y2366D01*
X5816Y2366D01*
X5816Y2366D01*
X5816Y2366D01*
X5815Y2367D01*
X5815Y2369D01*
X5814Y2370D01*
X5813Y2371D01*
X5813Y2374D01*
X5812Y2377D01*
X5812Y2378D01*
X5812Y2379D01*
X5811Y2380D01*
X5811Y2381D01*
X5811Y2381D01*
Y2382D01*
X5811Y2385D01*
X5812Y2388D01*
X5813Y2391D01*
X5813Y2392D01*
X5813Y2393D01*
X5814Y2394D01*
X5814Y2395D01*
X5814Y2396D01*
X5815Y2397D01*
X5815Y2397D01*
X5815Y2398D01*
X5815Y2398D01*
X5815Y2398D01*
X5817Y2400D01*
X5819Y2403D01*
X5820Y2404D01*
X5822Y2406D01*
X5824Y2407D01*
X5825Y2408D01*
X5825Y2408D01*
X5826Y2408D01*
X5826Y2409D01*
X5826Y2409D01*
X5827Y2409D01*
X5829Y2410D01*
X5832Y2411D01*
X5835Y2412D01*
X5838Y2412D01*
X5839Y2412D01*
X5840Y2412D01*
X5841Y2412D01*
X5842D01*
X5843Y2413D01*
X5843D01*
X5844D01*
X5844D01*
X5847Y2412D01*
D02*
G37*
G36*
X5861Y2348D02*
X5862Y2348D01*
X5865Y2347D01*
X5867Y2346D01*
X5868Y2346D01*
X5869Y2345D01*
X5870Y2345D01*
X5870Y2344D01*
X5871Y2344D01*
X5872Y2343D01*
X5872Y2343D01*
X5872Y2343D01*
X5872Y2342D01*
X5873Y2342D01*
X5873Y2341D01*
X5874Y2340D01*
X5875Y2339D01*
X5875Y2338D01*
X5876Y2335D01*
X5877Y2333D01*
X5877Y2332D01*
X5877Y2331D01*
X5877Y2330D01*
X5877Y2330D01*
X5878Y2329D01*
Y2328D01*
X5877Y2327D01*
X5877Y2325D01*
X5877Y2323D01*
X5877Y2322D01*
X5876Y2321D01*
X5876Y2319D01*
X5875Y2318D01*
X5875Y2317D01*
X5874Y2316D01*
X5874Y2315D01*
X5873Y2315D01*
X5873Y2314D01*
X5872Y2314D01*
X5872Y2313D01*
X5872Y2313D01*
X5872Y2313D01*
X5871Y2312D01*
X5869Y2311D01*
X5868Y2310D01*
X5867Y2309D01*
X5866Y2309D01*
X5865Y2308D01*
X5862Y2307D01*
X5861Y2307D01*
X5860Y2307D01*
X5860Y2307D01*
X5859Y2307D01*
X5858Y2307D01*
X5858D01*
X5858D01*
X5858D01*
X5855Y2307D01*
X5853Y2307D01*
X5852Y2308D01*
X5850Y2308D01*
X5849Y2309D01*
X5848Y2309D01*
X5847Y2310D01*
X5847Y2310D01*
X5846Y2311D01*
X5845Y2313D01*
X5844Y2314D01*
X5843Y2316D01*
X5842Y2317D01*
X5842Y2318D01*
X5842Y2318D01*
X5842Y2318D01*
X5842Y2319D01*
Y2319D01*
X5841Y2317D01*
X5840Y2316D01*
X5839Y2315D01*
X5838Y2314D01*
X5838Y2313D01*
X5837Y2313D01*
X5837Y2312D01*
X5836Y2312D01*
X5835Y2311D01*
X5834Y2311D01*
X5832Y2310D01*
X5831Y2310D01*
X5830Y2310D01*
X5830Y2310D01*
X5829D01*
X5829D01*
X5827Y2310D01*
X5826Y2310D01*
X5824Y2311D01*
X5823Y2311D01*
X5822Y2312D01*
X5821Y2312D01*
X5821Y2312D01*
X5821Y2312D01*
X5819Y2313D01*
X5818Y2314D01*
X5817Y2315D01*
X5816Y2317D01*
X5815Y2317D01*
X5815Y2318D01*
X5815Y2319D01*
X5814Y2319D01*
Y2319D01*
X5814Y2321D01*
X5813Y2322D01*
X5813Y2324D01*
X5812Y2325D01*
X5812Y2327D01*
X5812Y2328D01*
Y2330D01*
X5812Y2331D01*
X5813Y2334D01*
X5814Y2336D01*
X5814Y2338D01*
X5815Y2339D01*
X5815Y2339D01*
X5815Y2340D01*
X5816Y2340D01*
X5816Y2341D01*
X5816Y2341D01*
X5816Y2341D01*
X5816Y2341D01*
X5818Y2343D01*
X5820Y2344D01*
X5822Y2346D01*
X5824Y2346D01*
X5826Y2347D01*
X5827Y2347D01*
X5827Y2348D01*
X5828Y2348D01*
X5828Y2348D01*
X5829Y2348D01*
X5829D01*
X5830Y2340D01*
X5828Y2340D01*
X5826Y2339D01*
X5825Y2338D01*
X5824Y2338D01*
X5823Y2337D01*
X5822Y2337D01*
X5822Y2336D01*
X5821Y2336D01*
X5821Y2335D01*
X5820Y2334D01*
X5819Y2332D01*
X5819Y2331D01*
X5819Y2330D01*
X5819Y2329D01*
Y2328D01*
X5819Y2327D01*
X5819Y2325D01*
X5820Y2324D01*
X5820Y2323D01*
X5821Y2322D01*
X5821Y2321D01*
X5821Y2321D01*
X5821Y2321D01*
X5823Y2320D01*
X5824Y2319D01*
X5825Y2319D01*
X5826Y2318D01*
X5827Y2318D01*
X5828Y2318D01*
X5828D01*
X5828D01*
X5829D01*
X5830D01*
X5831Y2318D01*
X5832Y2319D01*
X5833Y2319D01*
X5835Y2320D01*
X5836Y2321D01*
X5836Y2321D01*
X5837Y2322D01*
X5837Y2322D01*
Y2322D01*
X5837Y2324D01*
X5838Y2325D01*
X5839Y2327D01*
X5839Y2328D01*
X5839Y2329D01*
X5839Y2330D01*
Y2331D01*
X5839Y2332D01*
Y2332D01*
X5846Y2333D01*
X5846Y2332D01*
X5846Y2331D01*
X5845Y2330D01*
X5845Y2329D01*
X5845Y2328D01*
Y2328D01*
X5845Y2326D01*
X5846Y2324D01*
X5846Y2322D01*
X5847Y2321D01*
X5848Y2320D01*
X5848Y2319D01*
X5849Y2319D01*
X5849Y2319D01*
X5850Y2317D01*
X5852Y2317D01*
X5853Y2316D01*
X5855Y2316D01*
X5856Y2315D01*
X5857Y2315D01*
X5857Y2315D01*
X5857D01*
X5858D01*
X5858D01*
X5860Y2315D01*
X5862Y2316D01*
X5863Y2316D01*
X5865Y2317D01*
X5866Y2318D01*
X5866Y2318D01*
X5867Y2319D01*
X5867Y2319D01*
X5869Y2320D01*
X5869Y2322D01*
X5870Y2324D01*
X5871Y2325D01*
X5871Y2326D01*
X5871Y2327D01*
X5871Y2328D01*
Y2328D01*
X5871Y2330D01*
X5871Y2332D01*
X5870Y2333D01*
X5870Y2334D01*
X5869Y2335D01*
X5869Y2336D01*
X5868Y2336D01*
X5868Y2336D01*
X5867Y2337D01*
X5865Y2338D01*
X5864Y2339D01*
X5862Y2340D01*
X5861Y2340D01*
X5860Y2340D01*
X5860Y2340D01*
X5859Y2341D01*
X5859Y2341D01*
X5859Y2341D01*
X5858D01*
X5859Y2349D01*
X5861Y2348D01*
D02*
G37*
G36*
X5848Y2299D02*
X5851Y2299D01*
X5854Y2298D01*
X5857Y2298D01*
X5859Y2297D01*
X5861Y2297D01*
X5863Y2296D01*
X5865Y2296D01*
X5866Y2295D01*
X5867Y2295D01*
X5869Y2294D01*
X5869Y2294D01*
X5870Y2293D01*
X5871Y2293D01*
X5871Y2293D01*
X5871Y2293D01*
X5872Y2292D01*
X5873Y2291D01*
X5874Y2289D01*
X5875Y2288D01*
X5875Y2287D01*
X5876Y2286D01*
X5876Y2285D01*
X5877Y2283D01*
X5877Y2282D01*
X5877Y2281D01*
X5877Y2280D01*
X5877Y2280D01*
X5878Y2279D01*
Y2278D01*
X5877Y2276D01*
X5877Y2273D01*
X5876Y2271D01*
X5876Y2270D01*
X5875Y2268D01*
X5875Y2268D01*
X5874Y2267D01*
X5874Y2267D01*
X5874Y2267D01*
X5874Y2267D01*
Y2267D01*
X5872Y2265D01*
X5871Y2263D01*
X5869Y2262D01*
X5867Y2261D01*
X5865Y2261D01*
X5865Y2260D01*
X5864Y2260D01*
X5864Y2260D01*
X5863Y2260D01*
X5863Y2260D01*
X5863D01*
X5862Y2259D01*
X5860Y2259D01*
X5857Y2258D01*
X5854Y2258D01*
X5851Y2257D01*
X5850Y2257D01*
X5849Y2257D01*
X5848D01*
X5847Y2257D01*
X5846D01*
X5845D01*
X5845D01*
X5845D01*
X5843D01*
X5841Y2257D01*
X5840D01*
X5838Y2257D01*
X5837Y2258D01*
X5836Y2258D01*
X5835Y2258D01*
X5834Y2258D01*
X5833Y2258D01*
X5832Y2258D01*
X5831Y2258D01*
X5831Y2258D01*
X5830Y2258D01*
X5830Y2259D01*
X5830Y2259D01*
X5830D01*
X5828Y2259D01*
X5826Y2260D01*
X5824Y2261D01*
X5823Y2261D01*
X5822Y2262D01*
X5821Y2262D01*
X5820Y2263D01*
X5820Y2263D01*
X5819Y2264D01*
X5818Y2265D01*
X5817Y2266D01*
X5816Y2267D01*
X5815Y2268D01*
X5815Y2268D01*
X5814Y2269D01*
X5814Y2269D01*
Y2269D01*
X5814Y2271D01*
X5813Y2272D01*
X5813Y2274D01*
X5812Y2275D01*
X5812Y2276D01*
X5812Y2277D01*
Y2278D01*
X5812Y2281D01*
X5813Y2283D01*
X5813Y2285D01*
X5814Y2286D01*
X5815Y2288D01*
X5815Y2288D01*
X5815Y2289D01*
X5816Y2289D01*
X5816Y2290D01*
X5816Y2290D01*
Y2290D01*
X5817Y2291D01*
X5819Y2293D01*
X5821Y2294D01*
X5823Y2295D01*
X5824Y2296D01*
X5825Y2296D01*
X5825Y2296D01*
X5826Y2296D01*
X5826Y2297D01*
X5826Y2297D01*
X5827D01*
X5828Y2297D01*
X5829Y2297D01*
X5832Y2298D01*
X5835Y2298D01*
X5838Y2299D01*
X5840Y2299D01*
X5841Y2299D01*
X5842D01*
X5843Y2299D01*
X5844D01*
X5844D01*
X5845D01*
X5845D01*
X5848Y2299D01*
D02*
G37*
G36*
X5849Y2250D02*
X5852Y2249D01*
X5855Y2249D01*
X5857Y2249D01*
X5859Y2248D01*
X5861Y2248D01*
X5863Y2247D01*
X5865Y2246D01*
X5866Y2246D01*
X5867Y2245D01*
X5868Y2245D01*
X5869Y2244D01*
X5870Y2244D01*
X5870Y2244D01*
X5870Y2243D01*
X5870Y2243D01*
X5872Y2242D01*
X5873Y2241D01*
X5874Y2240D01*
X5874Y2238D01*
X5875Y2237D01*
X5876Y2236D01*
X5876Y2234D01*
X5877Y2233D01*
X5877Y2232D01*
X5877Y2231D01*
X5877Y2230D01*
X5877Y2229D01*
Y2228D01*
X5878Y2228D01*
Y2227D01*
X5877Y2225D01*
X5877Y2223D01*
X5877Y2222D01*
X5876Y2220D01*
X5876Y2219D01*
X5875Y2218D01*
X5875Y2218D01*
X5875Y2217D01*
X5875Y2217D01*
Y2217D01*
X5874Y2215D01*
X5872Y2214D01*
X5871Y2213D01*
X5870Y2212D01*
X5869Y2211D01*
X5868Y2210D01*
X5867Y2210D01*
X5867Y2210D01*
X5867Y2210D01*
X5867D01*
X5865Y2209D01*
X5863Y2208D01*
X5861Y2208D01*
X5859Y2208D01*
X5858Y2207D01*
X5857D01*
X5857Y2207D01*
X5856D01*
X5856D01*
X5856D01*
X5856D01*
X5854Y2207D01*
X5852Y2208D01*
X5851Y2208D01*
X5849Y2208D01*
X5848Y2209D01*
X5847Y2209D01*
X5846Y2209D01*
X5845Y2210D01*
X5844Y2211D01*
X5843Y2211D01*
X5842Y2212D01*
X5842Y2212D01*
X5841Y2212D01*
X5841Y2213D01*
X5841Y2213D01*
X5841Y2213D01*
X5840Y2214D01*
X5839Y2215D01*
X5838Y2216D01*
X5837Y2217D01*
X5837Y2218D01*
X5836Y2219D01*
X5836Y2222D01*
X5835Y2223D01*
X5835Y2223D01*
X5835Y2224D01*
X5835Y2225D01*
X5835Y2225D01*
Y2226D01*
X5835Y2228D01*
X5835Y2229D01*
X5836Y2231D01*
X5836Y2232D01*
X5836Y2233D01*
X5837Y2234D01*
X5837Y2235D01*
X5837Y2235D01*
Y2235D01*
X5838Y2236D01*
X5839Y2238D01*
X5840Y2239D01*
X5841Y2240D01*
X5842Y2241D01*
X5843Y2241D01*
X5843Y2242D01*
X5843Y2242D01*
X5842D01*
X5840Y2242D01*
X5839Y2242D01*
X5837Y2241D01*
X5836Y2241D01*
X5835Y2241D01*
X5833Y2241D01*
X5832Y2241D01*
X5832Y2240D01*
X5831Y2240D01*
X5830Y2240D01*
X5830Y2240D01*
X5829Y2240D01*
X5829Y2240D01*
X5829Y2240D01*
X5829D01*
X5827Y2239D01*
X5825Y2238D01*
X5824Y2237D01*
X5823Y2236D01*
X5822Y2235D01*
X5821Y2234D01*
X5821Y2234D01*
X5821Y2234D01*
X5820Y2233D01*
X5820Y2231D01*
X5819Y2230D01*
X5819Y2229D01*
X5819Y2228D01*
X5819Y2228D01*
Y2227D01*
X5819Y2225D01*
X5819Y2224D01*
X5820Y2223D01*
X5820Y2221D01*
X5821Y2220D01*
X5821Y2220D01*
X5822Y2219D01*
X5822Y2219D01*
X5823Y2219D01*
X5824Y2218D01*
X5825Y2217D01*
X5826Y2217D01*
X5827Y2217D01*
X5828Y2216D01*
X5828Y2216D01*
X5829Y2216D01*
X5829D01*
X5828Y2208D01*
X5825Y2209D01*
X5823Y2210D01*
X5821Y2211D01*
X5819Y2212D01*
X5818Y2213D01*
X5818Y2213D01*
X5817Y2213D01*
X5817Y2214D01*
X5817Y2214D01*
X5816Y2214D01*
X5816Y2214D01*
X5816Y2215D01*
X5815Y2216D01*
X5814Y2218D01*
X5813Y2220D01*
X5813Y2222D01*
X5812Y2224D01*
X5812Y2225D01*
Y2225D01*
X5812Y2226D01*
Y2227D01*
X5812Y2228D01*
X5812Y2230D01*
X5813Y2232D01*
X5813Y2233D01*
X5814Y2235D01*
X5814Y2236D01*
X5815Y2237D01*
X5816Y2238D01*
X5816Y2239D01*
X5817Y2240D01*
X5818Y2241D01*
X5818Y2242D01*
X5819Y2242D01*
X5819Y2242D01*
X5819Y2243D01*
X5820Y2243D01*
X5821Y2244D01*
X5823Y2245D01*
X5825Y2246D01*
X5827Y2247D01*
X5830Y2247D01*
X5832Y2248D01*
X5834Y2248D01*
X5836Y2249D01*
X5838Y2249D01*
X5840Y2249D01*
X5842Y2249D01*
X5843Y2250D01*
X5845D01*
X5846Y2250D01*
X5846D01*
X5846D01*
X5846D01*
X5847D01*
X5849Y2250D01*
D02*
G37*
G36*
X5857Y3921D02*
X5858Y3920D01*
X5860Y3920D01*
X5861Y3920D01*
X5863Y3919D01*
X5864Y3919D01*
X5865Y3918D01*
X5866Y3918D01*
X5867Y3917D01*
X5868Y3917D01*
X5869Y3916D01*
X5869Y3916D01*
X5870Y3915D01*
X5870Y3915D01*
X5870Y3915D01*
X5870Y3915D01*
X5871Y3914D01*
X5872Y3913D01*
X5873Y3911D01*
X5874Y3910D01*
X5874Y3909D01*
X5875Y3908D01*
X5875Y3906D01*
X5876Y3905D01*
X5876Y3904D01*
X5876Y3903D01*
X5876Y3902D01*
X5876Y3902D01*
Y3900D01*
X5876Y3898D01*
X5875Y3896D01*
X5875Y3894D01*
X5874Y3892D01*
X5873Y3891D01*
X5873Y3890D01*
X5873Y3890D01*
X5872Y3889D01*
X5872Y3889D01*
X5872Y3889D01*
X5872Y3889D01*
X5889Y3892D01*
Y3918D01*
X5897D01*
Y3886D01*
X5864Y3880D01*
X5863Y3887D01*
X5864Y3888D01*
X5865Y3889D01*
X5866Y3889D01*
X5866Y3890D01*
X5867Y3891D01*
X5867Y3891D01*
X5867Y3892D01*
X5867Y3892D01*
X5868Y3893D01*
X5868Y3894D01*
X5869Y3895D01*
X5869Y3896D01*
X5869Y3897D01*
X5869Y3898D01*
Y3900D01*
X5869Y3901D01*
X5868Y3903D01*
X5868Y3905D01*
X5867Y3906D01*
X5866Y3907D01*
X5866Y3908D01*
X5865Y3908D01*
X5865Y3909D01*
X5865D01*
X5864Y3910D01*
X5862Y3911D01*
X5860Y3911D01*
X5858Y3912D01*
X5857Y3912D01*
X5856Y3912D01*
X5856D01*
X5855Y3912D01*
X5855D01*
X5855D01*
X5855D01*
X5853D01*
X5852Y3912D01*
X5850Y3912D01*
X5848Y3911D01*
X5846Y3910D01*
X5845Y3910D01*
X5844Y3909D01*
X5844Y3909D01*
X5843Y3909D01*
X5843Y3909D01*
X5843Y3908D01*
X5842Y3908D01*
X5842Y3907D01*
X5841Y3905D01*
X5840Y3904D01*
X5840Y3902D01*
X5839Y3901D01*
X5839Y3900D01*
X5839Y3899D01*
Y3899D01*
X5839Y3897D01*
X5839Y3895D01*
X5840Y3894D01*
X5840Y3893D01*
X5841Y3892D01*
X5841Y3891D01*
X5842Y3891D01*
X5842Y3891D01*
X5843Y3890D01*
X5845Y3889D01*
X5846Y3888D01*
X5848Y3887D01*
X5849Y3887D01*
X5850Y3887D01*
X5850Y3887D01*
X5851Y3887D01*
X5851D01*
X5851D01*
X5850Y3878D01*
X5849Y3878D01*
X5847Y3879D01*
X5845Y3880D01*
X5843Y3881D01*
X5842Y3881D01*
X5841Y3882D01*
X5840Y3882D01*
X5839Y3883D01*
X5839Y3883D01*
X5838Y3884D01*
X5838Y3884D01*
X5837Y3884D01*
X5837Y3884D01*
X5837Y3884D01*
X5836Y3886D01*
X5836Y3887D01*
X5835Y3888D01*
X5835Y3889D01*
X5834Y3891D01*
X5833Y3894D01*
X5833Y3895D01*
X5833Y3896D01*
X5833Y3897D01*
X5833Y3897D01*
X5832Y3898D01*
Y3899D01*
X5833Y3901D01*
X5833Y3903D01*
X5833Y3904D01*
X5834Y3906D01*
X5834Y3907D01*
X5835Y3909D01*
X5836Y3910D01*
X5836Y3911D01*
X5837Y3912D01*
X5838Y3913D01*
X5839Y3914D01*
X5839Y3915D01*
X5840Y3915D01*
X5840Y3915D01*
X5840Y3916D01*
X5840Y3916D01*
X5841Y3917D01*
X5843Y3917D01*
X5844Y3918D01*
X5845Y3919D01*
X5848Y3920D01*
X5850Y3920D01*
X5851Y3920D01*
X5852Y3920D01*
X5853Y3921D01*
X5854Y3921D01*
X5854Y3921D01*
X5855D01*
X5855D01*
X5855D01*
X5857Y3921D01*
D02*
G37*
G36*
X5869Y3870D02*
X5870D01*
X5872Y3870D01*
X5873Y3870D01*
X5874Y3870D01*
X5875Y3870D01*
X5876Y3870D01*
X5877Y3869D01*
X5878Y3869D01*
X5879Y3869D01*
X5879Y3869D01*
X5880Y3869D01*
X5880Y3869D01*
X5880Y3869D01*
X5880D01*
X5882Y3868D01*
X5884Y3868D01*
X5886Y3867D01*
X5887Y3866D01*
X5888Y3866D01*
X5889Y3865D01*
X5890Y3865D01*
X5890Y3865D01*
X5891Y3864D01*
X5892Y3863D01*
X5893Y3862D01*
X5894Y3861D01*
X5895Y3860D01*
X5895Y3859D01*
X5896Y3859D01*
X5896Y3858D01*
Y3858D01*
X5896Y3857D01*
X5897Y3855D01*
X5897Y3854D01*
X5898Y3852D01*
X5898Y3851D01*
X5898Y3850D01*
Y3849D01*
X5898Y3847D01*
X5897Y3845D01*
X5897Y3843D01*
X5896Y3841D01*
X5895Y3840D01*
X5895Y3839D01*
X5895Y3839D01*
X5894Y3838D01*
X5894Y3838D01*
X5894Y3838D01*
Y3838D01*
X5893Y3836D01*
X5891Y3835D01*
X5889Y3834D01*
X5887Y3833D01*
X5886Y3832D01*
X5885Y3831D01*
X5885Y3831D01*
X5884Y3831D01*
X5884Y3831D01*
X5884Y3831D01*
X5883D01*
X5882Y3830D01*
X5881Y3830D01*
X5878Y3830D01*
X5875Y3829D01*
X5872Y3829D01*
X5870Y3829D01*
X5869Y3829D01*
X5868D01*
X5867Y3829D01*
X5866D01*
X5866D01*
X5865D01*
X5865D01*
X5862Y3829D01*
X5859Y3829D01*
X5856Y3829D01*
X5853Y3830D01*
X5851Y3830D01*
X5849Y3831D01*
X5847Y3831D01*
X5845Y3832D01*
X5844Y3832D01*
X5843Y3833D01*
X5841Y3833D01*
X5841Y3834D01*
X5840Y3834D01*
X5839Y3835D01*
X5839Y3835D01*
X5839Y3835D01*
X5838Y3836D01*
X5837Y3837D01*
X5836Y3838D01*
X5835Y3839D01*
X5835Y3841D01*
X5834Y3842D01*
X5834Y3843D01*
X5833Y3844D01*
X5833Y3845D01*
X5833Y3846D01*
X5833Y3847D01*
X5833Y3848D01*
X5832Y3849D01*
Y3849D01*
X5833Y3852D01*
X5833Y3854D01*
X5834Y3856D01*
X5834Y3858D01*
X5835Y3859D01*
X5835Y3860D01*
X5836Y3860D01*
X5836Y3861D01*
X5836Y3861D01*
X5836Y3861D01*
Y3861D01*
X5838Y3863D01*
X5839Y3864D01*
X5841Y3865D01*
X5843Y3866D01*
X5845Y3867D01*
X5845Y3867D01*
X5846Y3867D01*
X5846Y3868D01*
X5847Y3868D01*
X5847Y3868D01*
X5847D01*
X5848Y3868D01*
X5850Y3869D01*
X5853Y3869D01*
X5856Y3870D01*
X5859Y3870D01*
X5860Y3870D01*
X5861Y3870D01*
X5862D01*
X5863Y3870D01*
X5864D01*
X5865D01*
X5865D01*
X5865D01*
X5867D01*
X5869Y3870D01*
D02*
G37*
G36*
X5855Y3821D02*
X5857Y3820D01*
X5858Y3820D01*
X5860Y3819D01*
X5861Y3819D01*
X5862Y3818D01*
X5863Y3818D01*
X5863Y3818D01*
X5864Y3816D01*
X5865Y3815D01*
X5866Y3813D01*
X5867Y3812D01*
X5868Y3811D01*
X5868Y3810D01*
X5868Y3809D01*
X5868Y3809D01*
X5868Y3809D01*
Y3809D01*
X5869Y3810D01*
X5870Y3812D01*
X5871Y3813D01*
X5872Y3814D01*
X5872Y3814D01*
X5873Y3815D01*
X5873Y3815D01*
X5874Y3815D01*
X5875Y3816D01*
X5876Y3817D01*
X5878Y3817D01*
X5879Y3817D01*
X5880Y3818D01*
X5880Y3818D01*
X5881D01*
X5881D01*
X5883Y3818D01*
X5884Y3817D01*
X5886Y3817D01*
X5887Y3816D01*
X5888Y3816D01*
X5889Y3816D01*
X5889Y3815D01*
X5889Y3815D01*
X5891Y3814D01*
X5892Y3813D01*
X5893Y3812D01*
X5894Y3811D01*
X5895Y3810D01*
X5895Y3809D01*
X5895Y3809D01*
X5896Y3809D01*
Y3808D01*
X5896Y3807D01*
X5897Y3805D01*
X5897Y3803D01*
X5898Y3802D01*
X5898Y3801D01*
X5898Y3800D01*
Y3797D01*
X5898Y3796D01*
X5897Y3794D01*
X5896Y3792D01*
X5896Y3790D01*
X5895Y3789D01*
X5895Y3788D01*
X5895Y3788D01*
X5894Y3787D01*
X5894Y3787D01*
X5894Y3786D01*
X5894Y3786D01*
X5894Y3786D01*
X5892Y3784D01*
X5890Y3783D01*
X5888Y3782D01*
X5886Y3781D01*
X5884Y3780D01*
X5883Y3780D01*
X5883Y3780D01*
X5882Y3780D01*
X5882Y3780D01*
X5881Y3780D01*
X5881D01*
X5880Y3788D01*
X5882Y3788D01*
X5884Y3789D01*
X5885Y3789D01*
X5886Y3790D01*
X5887Y3790D01*
X5888Y3791D01*
X5888Y3791D01*
X5889Y3791D01*
X5889Y3793D01*
X5890Y3794D01*
X5891Y3795D01*
X5891Y3796D01*
X5891Y3797D01*
X5891Y3798D01*
Y3799D01*
X5891Y3801D01*
X5891Y3802D01*
X5890Y3803D01*
X5890Y3805D01*
X5889Y3805D01*
X5889Y3806D01*
X5889Y3807D01*
X5889Y3807D01*
X5887Y3808D01*
X5886Y3808D01*
X5885Y3809D01*
X5884Y3809D01*
X5883Y3809D01*
X5882Y3810D01*
X5882D01*
X5882D01*
X5881D01*
X5880D01*
X5879Y3809D01*
X5878Y3809D01*
X5877Y3808D01*
X5875Y3808D01*
X5874Y3807D01*
X5874Y3806D01*
X5873Y3806D01*
X5873Y3806D01*
Y3806D01*
X5873Y3804D01*
X5872Y3802D01*
X5871Y3801D01*
X5871Y3800D01*
X5871Y3798D01*
X5871Y3797D01*
Y3796D01*
X5871Y3796D01*
Y3795D01*
X5864Y3794D01*
X5864Y3796D01*
X5864Y3797D01*
X5865Y3798D01*
X5865Y3798D01*
X5865Y3799D01*
Y3800D01*
X5865Y3802D01*
X5864Y3804D01*
X5864Y3805D01*
X5863Y3806D01*
X5862Y3807D01*
X5862Y3808D01*
X5861Y3809D01*
X5861Y3809D01*
X5860Y3810D01*
X5858Y3811D01*
X5857Y3812D01*
X5855Y3812D01*
X5854Y3812D01*
X5853Y3812D01*
X5853Y3812D01*
X5853D01*
X5852D01*
X5852D01*
X5850Y3812D01*
X5848Y3812D01*
X5847Y3811D01*
X5845Y3811D01*
X5844Y3810D01*
X5844Y3809D01*
X5843Y3809D01*
X5843Y3809D01*
X5841Y3807D01*
X5841Y3806D01*
X5840Y3804D01*
X5839Y3802D01*
X5839Y3801D01*
X5839Y3800D01*
X5839Y3800D01*
Y3799D01*
X5839Y3798D01*
X5839Y3796D01*
X5840Y3795D01*
X5840Y3793D01*
X5841Y3793D01*
X5841Y3792D01*
X5842Y3791D01*
X5842Y3791D01*
X5843Y3790D01*
X5845Y3789D01*
X5846Y3788D01*
X5848Y3788D01*
X5849Y3787D01*
X5850Y3787D01*
X5850Y3787D01*
X5851Y3787D01*
X5851Y3787D01*
X5851Y3787D01*
X5852D01*
X5851Y3779D01*
X5849Y3779D01*
X5848Y3779D01*
X5845Y3780D01*
X5843Y3781D01*
X5842Y3782D01*
X5841Y3782D01*
X5840Y3783D01*
X5840Y3783D01*
X5839Y3784D01*
X5838Y3784D01*
X5838Y3785D01*
X5838Y3785D01*
X5838Y3785D01*
X5837Y3785D01*
X5837Y3786D01*
X5836Y3787D01*
X5835Y3789D01*
X5835Y3790D01*
X5834Y3792D01*
X5833Y3794D01*
X5833Y3795D01*
X5833Y3796D01*
X5833Y3797D01*
X5833Y3798D01*
X5832Y3798D01*
Y3799D01*
X5833Y3801D01*
X5833Y3802D01*
X5833Y3804D01*
X5833Y3806D01*
X5834Y3807D01*
X5834Y3808D01*
X5835Y3809D01*
X5835Y3810D01*
X5836Y3811D01*
X5836Y3812D01*
X5837Y3813D01*
X5837Y3813D01*
X5838Y3814D01*
X5838Y3814D01*
X5838Y3814D01*
X5838Y3815D01*
X5839Y3816D01*
X5841Y3817D01*
X5842Y3817D01*
X5843Y3818D01*
X5844Y3819D01*
X5845Y3819D01*
X5848Y3820D01*
X5849Y3820D01*
X5850Y3820D01*
X5850Y3821D01*
X5851Y3821D01*
X5852Y3821D01*
X5852D01*
X5852D01*
X5852D01*
X5855Y3821D01*
D02*
G37*
G36*
X5856Y3763D02*
X5855Y3763D01*
X5853Y3762D01*
X5852Y3762D01*
X5851Y3761D01*
X5850Y3761D01*
X5849Y3760D01*
X5848Y3760D01*
X5847Y3759D01*
X5846Y3759D01*
X5846Y3758D01*
X5845Y3758D01*
X5845Y3757D01*
X5844Y3757D01*
X5844Y3757D01*
X5844Y3756D01*
X5844Y3756D01*
X5843Y3755D01*
X5842Y3754D01*
X5841Y3752D01*
X5841Y3750D01*
X5840Y3748D01*
X5840Y3747D01*
X5840Y3746D01*
Y3746D01*
X5840Y3745D01*
Y3744D01*
X5840Y3742D01*
X5840Y3740D01*
X5841Y3738D01*
X5841Y3737D01*
X5842Y3735D01*
X5842Y3735D01*
X5842Y3734D01*
X5842Y3734D01*
X5843Y3734D01*
X5843Y3733D01*
Y3733D01*
X5844Y3732D01*
X5845Y3730D01*
X5847Y3729D01*
X5848Y3728D01*
X5850Y3727D01*
X5851Y3726D01*
X5851Y3726D01*
X5852Y3726D01*
X5852Y3726D01*
X5852D01*
X5854Y3725D01*
X5857Y3725D01*
X5859Y3724D01*
X5861Y3724D01*
X5862Y3724D01*
X5863Y3724D01*
X5864D01*
X5865Y3724D01*
X5865D01*
X5866D01*
X5866D01*
X5866D01*
X5868Y3724D01*
X5871Y3724D01*
X5873Y3724D01*
X5875Y3725D01*
X5876Y3725D01*
X5877Y3725D01*
X5877Y3725D01*
X5878Y3725D01*
X5878Y3726D01*
X5878Y3726D01*
X5878D01*
X5880Y3727D01*
X5882Y3728D01*
X5884Y3729D01*
X5885Y3730D01*
X5886Y3731D01*
X5887Y3732D01*
X5888Y3732D01*
X5888Y3732D01*
Y3733D01*
X5889Y3735D01*
X5890Y3737D01*
X5891Y3739D01*
X5891Y3741D01*
X5891Y3742D01*
X5891Y3743D01*
Y3744D01*
X5891Y3744D01*
Y3745D01*
X5891Y3747D01*
X5891Y3749D01*
X5890Y3751D01*
X5890Y3753D01*
X5889Y3754D01*
X5889Y3755D01*
X5888Y3755D01*
X5888Y3756D01*
X5887Y3757D01*
X5885Y3758D01*
X5884Y3760D01*
X5882Y3760D01*
X5880Y3761D01*
X5880Y3762D01*
X5879Y3762D01*
X5879Y3762D01*
X5878Y3762D01*
X5878Y3762D01*
X5878D01*
X5880Y3770D01*
X5882Y3770D01*
X5883Y3769D01*
X5885Y3769D01*
X5886Y3768D01*
X5887Y3767D01*
X5888Y3766D01*
X5889Y3766D01*
X5890Y3765D01*
X5891Y3764D01*
X5892Y3764D01*
X5892Y3763D01*
X5893Y3762D01*
X5893Y3762D01*
X5894Y3762D01*
X5894Y3761D01*
X5894Y3761D01*
X5895Y3760D01*
X5895Y3759D01*
X5896Y3757D01*
X5897Y3756D01*
X5897Y3753D01*
X5898Y3751D01*
X5898Y3750D01*
X5898Y3749D01*
X5899Y3748D01*
X5899Y3747D01*
X5899Y3746D01*
Y3745D01*
X5899Y3742D01*
X5898Y3739D01*
X5897Y3737D01*
X5897Y3735D01*
X5897Y3734D01*
X5896Y3733D01*
X5896Y3732D01*
X5896Y3732D01*
X5895Y3731D01*
X5895Y3730D01*
X5895Y3730D01*
X5895Y3730D01*
X5895Y3730D01*
X5893Y3727D01*
X5891Y3725D01*
X5890Y3723D01*
X5888Y3722D01*
X5886Y3720D01*
X5885Y3720D01*
X5885Y3720D01*
X5884Y3719D01*
X5884Y3719D01*
X5884Y3719D01*
X5883Y3719D01*
X5881Y3717D01*
X5878Y3717D01*
X5875Y3716D01*
X5872Y3715D01*
X5871Y3715D01*
X5870Y3715D01*
X5869Y3715D01*
X5868D01*
X5867Y3715D01*
X5867D01*
X5866D01*
X5866D01*
X5863Y3715D01*
X5859Y3716D01*
X5857Y3716D01*
X5855Y3716D01*
X5854Y3717D01*
X5853Y3717D01*
X5852Y3717D01*
X5851Y3718D01*
X5850Y3718D01*
X5850Y3718D01*
X5849Y3718D01*
X5849Y3718D01*
X5849D01*
X5846Y3720D01*
X5844Y3721D01*
X5841Y3723D01*
X5841Y3724D01*
X5840Y3725D01*
X5839Y3725D01*
X5838Y3726D01*
X5838Y3727D01*
X5837Y3727D01*
X5837Y3728D01*
X5837Y3728D01*
X5837Y3728D01*
X5837Y3728D01*
X5836Y3730D01*
X5835Y3731D01*
X5834Y3734D01*
X5834Y3736D01*
X5833Y3739D01*
X5833Y3740D01*
X5833Y3741D01*
X5833Y3742D01*
Y3743D01*
X5832Y3744D01*
Y3745D01*
X5833Y3747D01*
X5833Y3749D01*
X5833Y3750D01*
X5833Y3752D01*
X5834Y3753D01*
X5834Y3755D01*
X5835Y3756D01*
X5835Y3757D01*
X5836Y3758D01*
X5836Y3759D01*
X5837Y3760D01*
X5837Y3761D01*
X5837Y3761D01*
X5838Y3762D01*
X5838Y3762D01*
X5838Y3762D01*
X5839Y3763D01*
X5840Y3764D01*
X5841Y3765D01*
X5843Y3766D01*
X5845Y3768D01*
X5848Y3769D01*
X5849Y3770D01*
X5850Y3770D01*
X5851Y3771D01*
X5852Y3771D01*
X5853Y3771D01*
X5853Y3771D01*
X5854Y3772D01*
X5854D01*
X5856Y3763D01*
D02*
G37*
G36*
X5086Y4046D02*
X5128D01*
Y4040D01*
X5086Y4011D01*
X5079D01*
Y4038D01*
X5064D01*
Y4046D01*
X5079D01*
Y4055D01*
X5086D01*
Y4046D01*
D02*
G37*
G36*
X5099Y4005D02*
X5100D01*
X5102Y4005D01*
X5103Y4005D01*
X5104Y4005D01*
X5105Y4005D01*
X5106Y4005D01*
X5107Y4004D01*
X5108Y4004D01*
X5109Y4004D01*
X5109Y4004D01*
X5110Y4004D01*
X5110Y4004D01*
X5110Y4004D01*
X5110D01*
X5112Y4003D01*
X5114Y4003D01*
X5116Y4002D01*
X5117Y4001D01*
X5118Y4001D01*
X5119Y4000D01*
X5120Y4000D01*
X5120Y4000D01*
X5121Y3999D01*
X5122Y3998D01*
X5123Y3997D01*
X5124Y3996D01*
X5125Y3995D01*
X5125Y3994D01*
X5126Y3994D01*
X5126Y3993D01*
Y3993D01*
X5126Y3992D01*
X5127Y3990D01*
X5127Y3989D01*
X5128Y3987D01*
X5128Y3986D01*
X5128Y3985D01*
Y3984D01*
X5128Y3982D01*
X5127Y3980D01*
X5127Y3978D01*
X5126Y3976D01*
X5125Y3975D01*
X5125Y3974D01*
X5125Y3974D01*
X5124Y3973D01*
X5124Y3973D01*
X5124Y3973D01*
Y3973D01*
X5123Y3971D01*
X5121Y3970D01*
X5119Y3969D01*
X5117Y3968D01*
X5116Y3967D01*
X5115Y3966D01*
X5115Y3966D01*
X5114Y3966D01*
X5114Y3966D01*
X5114Y3966D01*
X5113D01*
X5112Y3965D01*
X5111Y3965D01*
X5108Y3965D01*
X5105Y3964D01*
X5102Y3964D01*
X5100Y3964D01*
X5099Y3964D01*
X5098D01*
X5097Y3964D01*
X5096D01*
X5096D01*
X5095D01*
X5095D01*
X5092Y3964D01*
X5089Y3964D01*
X5086Y3964D01*
X5083Y3965D01*
X5081Y3965D01*
X5079Y3966D01*
X5077Y3966D01*
X5075Y3967D01*
X5074Y3967D01*
X5073Y3968D01*
X5071Y3968D01*
X5071Y3969D01*
X5070Y3969D01*
X5069Y3970D01*
X5069Y3970D01*
X5069Y3970D01*
X5068Y3971D01*
X5067Y3972D01*
X5066Y3973D01*
X5065Y3974D01*
X5065Y3976D01*
X5064Y3977D01*
X5064Y3978D01*
X5063Y3979D01*
X5063Y3980D01*
X5063Y3981D01*
X5063Y3982D01*
X5063Y3983D01*
X5062Y3984D01*
Y3984D01*
X5063Y3987D01*
X5063Y3989D01*
X5064Y3991D01*
X5064Y3993D01*
X5065Y3994D01*
X5065Y3995D01*
X5066Y3995D01*
X5066Y3996D01*
X5066Y3996D01*
X5066Y3996D01*
Y3996D01*
X5068Y3998D01*
X5069Y3999D01*
X5071Y4000D01*
X5073Y4001D01*
X5075Y4002D01*
X5075Y4002D01*
X5076Y4002D01*
X5076Y4003D01*
X5077Y4003D01*
X5077Y4003D01*
X5077D01*
X5078Y4003D01*
X5080Y4004D01*
X5083Y4004D01*
X5086Y4005D01*
X5089Y4005D01*
X5090Y4005D01*
X5091Y4005D01*
X5092D01*
X5093Y4005D01*
X5094D01*
X5095D01*
X5095D01*
X5095D01*
X5097D01*
X5099Y4005D01*
D02*
G37*
G36*
X5085Y3956D02*
X5087Y3955D01*
X5088Y3955D01*
X5090Y3954D01*
X5091Y3954D01*
X5092Y3953D01*
X5093Y3953D01*
X5093Y3953D01*
X5094Y3951D01*
X5095Y3950D01*
X5096Y3948D01*
X5097Y3947D01*
X5098Y3946D01*
X5098Y3945D01*
X5098Y3944D01*
X5098Y3944D01*
X5098Y3944D01*
Y3944D01*
X5099Y3945D01*
X5100Y3947D01*
X5101Y3948D01*
X5102Y3949D01*
X5102Y3949D01*
X5103Y3950D01*
X5103Y3950D01*
X5104Y3950D01*
X5105Y3951D01*
X5106Y3952D01*
X5108Y3952D01*
X5109Y3952D01*
X5110Y3953D01*
X5110Y3953D01*
X5111D01*
X5111D01*
X5113Y3953D01*
X5114Y3952D01*
X5116Y3952D01*
X5117Y3951D01*
X5118Y3951D01*
X5119Y3951D01*
X5119Y3950D01*
X5119Y3950D01*
X5121Y3949D01*
X5122Y3948D01*
X5123Y3947D01*
X5124Y3946D01*
X5125Y3945D01*
X5125Y3944D01*
X5125Y3944D01*
X5126Y3944D01*
Y3943D01*
X5126Y3942D01*
X5127Y3940D01*
X5127Y3938D01*
X5128Y3937D01*
X5128Y3936D01*
X5128Y3935D01*
Y3932D01*
X5128Y3931D01*
X5127Y3929D01*
X5126Y3927D01*
X5126Y3925D01*
X5125Y3924D01*
X5125Y3923D01*
X5125Y3923D01*
X5124Y3922D01*
X5124Y3922D01*
X5124Y3921D01*
X5124Y3921D01*
X5124Y3921D01*
X5122Y3919D01*
X5120Y3918D01*
X5118Y3917D01*
X5116Y3916D01*
X5114Y3915D01*
X5113Y3915D01*
X5113Y3915D01*
X5112Y3915D01*
X5112Y3915D01*
X5111Y3915D01*
X5111D01*
X5110Y3923D01*
X5112Y3923D01*
X5114Y3924D01*
X5115Y3924D01*
X5116Y3925D01*
X5117Y3925D01*
X5118Y3926D01*
X5118Y3926D01*
X5119Y3926D01*
X5119Y3928D01*
X5120Y3929D01*
X5121Y3930D01*
X5121Y3931D01*
X5121Y3932D01*
X5121Y3933D01*
Y3934D01*
X5121Y3936D01*
X5121Y3937D01*
X5120Y3938D01*
X5120Y3940D01*
X5119Y3940D01*
X5119Y3941D01*
X5119Y3942D01*
X5119Y3942D01*
X5117Y3943D01*
X5116Y3943D01*
X5115Y3944D01*
X5114Y3944D01*
X5113Y3944D01*
X5112Y3945D01*
X5112D01*
X5112D01*
X5111D01*
X5110D01*
X5109Y3944D01*
X5108Y3944D01*
X5107Y3943D01*
X5105Y3943D01*
X5104Y3942D01*
X5104Y3941D01*
X5103Y3941D01*
X5103Y3941D01*
Y3941D01*
X5103Y3939D01*
X5102Y3937D01*
X5101Y3936D01*
X5101Y3935D01*
X5101Y3933D01*
X5101Y3932D01*
Y3931D01*
X5101Y3931D01*
Y3930D01*
X5094Y3929D01*
X5094Y3931D01*
X5094Y3932D01*
X5095Y3933D01*
X5095Y3933D01*
X5095Y3934D01*
Y3935D01*
X5095Y3937D01*
X5094Y3939D01*
X5094Y3940D01*
X5093Y3941D01*
X5092Y3942D01*
X5092Y3943D01*
X5091Y3944D01*
X5091Y3944D01*
X5090Y3945D01*
X5088Y3946D01*
X5087Y3947D01*
X5085Y3947D01*
X5084Y3947D01*
X5083Y3947D01*
X5083Y3947D01*
X5083D01*
X5082D01*
X5082D01*
X5080Y3947D01*
X5078Y3947D01*
X5077Y3946D01*
X5075Y3946D01*
X5074Y3945D01*
X5074Y3944D01*
X5073Y3944D01*
X5073Y3944D01*
X5071Y3942D01*
X5071Y3941D01*
X5070Y3939D01*
X5069Y3937D01*
X5069Y3936D01*
X5069Y3935D01*
X5069Y3935D01*
Y3934D01*
X5069Y3933D01*
X5069Y3931D01*
X5070Y3930D01*
X5070Y3928D01*
X5071Y3928D01*
X5071Y3927D01*
X5072Y3926D01*
X5072Y3926D01*
X5073Y3925D01*
X5075Y3924D01*
X5076Y3923D01*
X5078Y3923D01*
X5079Y3922D01*
X5080Y3922D01*
X5080Y3922D01*
X5081Y3922D01*
X5081Y3922D01*
X5081Y3922D01*
X5082D01*
X5081Y3914D01*
X5079Y3914D01*
X5078Y3914D01*
X5075Y3915D01*
X5073Y3916D01*
X5072Y3917D01*
X5071Y3917D01*
X5070Y3918D01*
X5070Y3918D01*
X5069Y3919D01*
X5068Y3919D01*
X5068Y3920D01*
X5068Y3920D01*
X5068Y3920D01*
X5067Y3920D01*
X5067Y3921D01*
X5066Y3922D01*
X5065Y3924D01*
X5065Y3925D01*
X5064Y3927D01*
X5063Y3929D01*
X5063Y3930D01*
X5063Y3931D01*
X5063Y3932D01*
X5063Y3933D01*
X5062Y3933D01*
Y3934D01*
X5063Y3936D01*
X5063Y3937D01*
X5063Y3939D01*
X5063Y3941D01*
X5064Y3942D01*
X5064Y3943D01*
X5065Y3944D01*
X5065Y3945D01*
X5066Y3946D01*
X5066Y3947D01*
X5067Y3948D01*
X5067Y3948D01*
X5068Y3949D01*
X5068Y3949D01*
X5068Y3949D01*
X5068Y3950D01*
X5069Y3951D01*
X5071Y3952D01*
X5072Y3952D01*
X5073Y3953D01*
X5074Y3954D01*
X5075Y3954D01*
X5078Y3955D01*
X5079Y3955D01*
X5080Y3955D01*
X5080Y3956D01*
X5081Y3956D01*
X5082Y3956D01*
X5082D01*
X5082D01*
X5082D01*
X5085Y3956D01*
D02*
G37*
G36*
X5086Y3898D02*
X5085Y3898D01*
X5083Y3897D01*
X5082Y3897D01*
X5081Y3896D01*
X5080Y3896D01*
X5079Y3895D01*
X5078Y3895D01*
X5077Y3894D01*
X5076Y3894D01*
X5076Y3893D01*
X5075Y3893D01*
X5075Y3892D01*
X5074Y3892D01*
X5074Y3892D01*
X5074Y3891D01*
X5074Y3891D01*
X5073Y3890D01*
X5072Y3889D01*
X5071Y3887D01*
X5071Y3885D01*
X5070Y3883D01*
X5070Y3882D01*
X5070Y3881D01*
Y3881D01*
X5070Y3880D01*
Y3879D01*
X5070Y3877D01*
X5070Y3875D01*
X5071Y3873D01*
X5071Y3872D01*
X5072Y3870D01*
X5072Y3870D01*
X5072Y3869D01*
X5072Y3869D01*
X5073Y3869D01*
X5073Y3868D01*
Y3868D01*
X5074Y3867D01*
X5075Y3865D01*
X5077Y3864D01*
X5078Y3863D01*
X5080Y3862D01*
X5081Y3861D01*
X5081Y3861D01*
X5082Y3861D01*
X5082Y3861D01*
X5082D01*
X5084Y3860D01*
X5087Y3860D01*
X5089Y3859D01*
X5091Y3859D01*
X5092Y3859D01*
X5093Y3859D01*
X5094D01*
X5095Y3859D01*
X5095D01*
X5096D01*
X5096D01*
X5096D01*
X5098Y3859D01*
X5101Y3859D01*
X5103Y3859D01*
X5105Y3860D01*
X5106Y3860D01*
X5107Y3860D01*
X5107Y3860D01*
X5108Y3860D01*
X5108Y3861D01*
X5108Y3861D01*
X5108D01*
X5110Y3862D01*
X5112Y3863D01*
X5114Y3864D01*
X5115Y3865D01*
X5116Y3866D01*
X5117Y3867D01*
X5118Y3867D01*
X5118Y3867D01*
Y3868D01*
X5119Y3870D01*
X5120Y3872D01*
X5121Y3874D01*
X5121Y3876D01*
X5121Y3877D01*
X5121Y3878D01*
Y3879D01*
X5121Y3879D01*
Y3880D01*
X5121Y3882D01*
X5121Y3884D01*
X5120Y3886D01*
X5120Y3888D01*
X5119Y3889D01*
X5119Y3890D01*
X5118Y3890D01*
X5118Y3891D01*
X5117Y3892D01*
X5115Y3893D01*
X5114Y3895D01*
X5112Y3895D01*
X5110Y3896D01*
X5110Y3897D01*
X5109Y3897D01*
X5109Y3897D01*
X5108Y3897D01*
X5108Y3897D01*
X5108D01*
X5110Y3905D01*
X5112Y3905D01*
X5113Y3904D01*
X5115Y3904D01*
X5116Y3903D01*
X5117Y3902D01*
X5118Y3901D01*
X5119Y3901D01*
X5120Y3900D01*
X5121Y3899D01*
X5122Y3899D01*
X5122Y3898D01*
X5123Y3897D01*
X5123Y3897D01*
X5124Y3897D01*
X5124Y3896D01*
X5124Y3896D01*
X5125Y3895D01*
X5125Y3894D01*
X5126Y3892D01*
X5127Y3891D01*
X5127Y3888D01*
X5128Y3886D01*
X5128Y3885D01*
X5128Y3884D01*
X5129Y3883D01*
X5129Y3882D01*
X5129Y3881D01*
Y3880D01*
X5129Y3877D01*
X5128Y3874D01*
X5127Y3872D01*
X5127Y3870D01*
X5127Y3869D01*
X5126Y3868D01*
X5126Y3867D01*
X5126Y3867D01*
X5125Y3866D01*
X5125Y3865D01*
X5125Y3865D01*
X5125Y3865D01*
X5125Y3865D01*
X5123Y3862D01*
X5121Y3860D01*
X5120Y3858D01*
X5118Y3857D01*
X5116Y3855D01*
X5115Y3855D01*
X5115Y3855D01*
X5114Y3854D01*
X5114Y3854D01*
X5114Y3854D01*
X5113Y3854D01*
X5111Y3852D01*
X5108Y3852D01*
X5105Y3851D01*
X5102Y3850D01*
X5101Y3850D01*
X5100Y3850D01*
X5099Y3850D01*
X5098D01*
X5097Y3850D01*
X5097D01*
X5096D01*
X5096D01*
X5093Y3850D01*
X5089Y3851D01*
X5087Y3851D01*
X5085Y3851D01*
X5084Y3852D01*
X5083Y3852D01*
X5082Y3852D01*
X5081Y3853D01*
X5080Y3853D01*
X5080Y3853D01*
X5079Y3853D01*
X5079Y3853D01*
X5079D01*
X5076Y3855D01*
X5074Y3856D01*
X5071Y3858D01*
X5071Y3859D01*
X5070Y3860D01*
X5069Y3860D01*
X5068Y3861D01*
X5068Y3862D01*
X5067Y3862D01*
X5067Y3863D01*
X5067Y3863D01*
X5067Y3863D01*
X5067Y3863D01*
X5066Y3865D01*
X5065Y3866D01*
X5064Y3869D01*
X5064Y3871D01*
X5063Y3874D01*
X5063Y3875D01*
X5063Y3876D01*
X5063Y3877D01*
Y3878D01*
X5062Y3879D01*
Y3880D01*
X5063Y3882D01*
X5063Y3884D01*
X5063Y3885D01*
X5063Y3887D01*
X5064Y3888D01*
X5064Y3890D01*
X5065Y3891D01*
X5065Y3892D01*
X5066Y3893D01*
X5066Y3894D01*
X5067Y3895D01*
X5067Y3896D01*
X5067Y3896D01*
X5068Y3897D01*
X5068Y3897D01*
X5068Y3897D01*
X5069Y3898D01*
X5070Y3899D01*
X5071Y3900D01*
X5073Y3901D01*
X5075Y3903D01*
X5078Y3904D01*
X5079Y3905D01*
X5080Y3905D01*
X5081Y3906D01*
X5082Y3906D01*
X5083Y3906D01*
X5083Y3906D01*
X5084Y3907D01*
X5084D01*
X5086Y3898D01*
D02*
G37*
G36*
X4760Y3850D02*
X4762Y3849D01*
X4764Y3849D01*
X4766Y3848D01*
X4767Y3848D01*
X4768Y3847D01*
X4768Y3847D01*
X4769Y3847D01*
X4770Y3846D01*
X4771Y3844D01*
X4772Y3843D01*
X4773Y3841D01*
X4773Y3840D01*
X4774Y3839D01*
X4774Y3838D01*
X4774Y3838D01*
X4774Y3838D01*
Y3838D01*
X4775Y3840D01*
X4776Y3841D01*
X4777Y3842D01*
X4777Y3843D01*
X4778Y3844D01*
X4779Y3844D01*
X4779Y3844D01*
X4779Y3844D01*
X4781Y3845D01*
X4782Y3846D01*
X4783Y3846D01*
X4784Y3847D01*
X4785Y3847D01*
X4786Y3847D01*
X4787D01*
X4787D01*
X4788Y3847D01*
X4790Y3846D01*
X4791Y3846D01*
X4793Y3846D01*
X4794Y3845D01*
X4795Y3845D01*
X4795Y3844D01*
X4795Y3844D01*
X4797Y3843D01*
X4798Y3842D01*
X4799Y3841D01*
X4800Y3840D01*
X4800Y3839D01*
X4801Y3838D01*
X4801Y3838D01*
X4801Y3838D01*
Y3838D01*
X4802Y3836D01*
X4803Y3834D01*
X4803Y3833D01*
X4803Y3831D01*
X4803Y3830D01*
X4804Y3829D01*
Y3827D01*
X4803Y3825D01*
X4803Y3823D01*
X4802Y3821D01*
X4801Y3819D01*
X4801Y3818D01*
X4801Y3817D01*
X4800Y3817D01*
X4800Y3816D01*
X4800Y3816D01*
X4799Y3816D01*
X4799Y3815D01*
X4799Y3815D01*
X4797Y3814D01*
X4796Y3812D01*
X4793Y3811D01*
X4791Y3810D01*
X4790Y3810D01*
X4789Y3809D01*
X4788Y3809D01*
X4788Y3809D01*
X4787Y3809D01*
X4787Y3809D01*
X4787D01*
X4786Y3817D01*
X4788Y3817D01*
X4789Y3818D01*
X4791Y3818D01*
X4792Y3819D01*
X4793Y3820D01*
X4794Y3820D01*
X4794Y3821D01*
X4794Y3821D01*
X4795Y3822D01*
X4796Y3823D01*
X4796Y3824D01*
X4797Y3826D01*
X4797Y3827D01*
X4797Y3827D01*
Y3828D01*
X4797Y3830D01*
X4797Y3831D01*
X4796Y3833D01*
X4796Y3834D01*
X4795Y3835D01*
X4795Y3835D01*
X4794Y3836D01*
X4794Y3836D01*
X4793Y3837D01*
X4792Y3838D01*
X4791Y3838D01*
X4790Y3838D01*
X4789Y3839D01*
X4788Y3839D01*
X4787D01*
X4787D01*
X4787D01*
X4786D01*
X4785Y3839D01*
X4784Y3838D01*
X4782Y3837D01*
X4781Y3837D01*
X4780Y3836D01*
X4780Y3835D01*
X4779Y3835D01*
X4779Y3835D01*
Y3835D01*
X4778Y3833D01*
X4778Y3832D01*
X4777Y3830D01*
X4777Y3829D01*
X4777Y3827D01*
X4776Y3826D01*
Y3825D01*
X4777Y3825D01*
Y3824D01*
X4770Y3824D01*
X4770Y3825D01*
X4770Y3826D01*
X4770Y3827D01*
X4770Y3828D01*
X4770Y3828D01*
Y3829D01*
X4770Y3831D01*
X4770Y3833D01*
X4769Y3834D01*
X4769Y3836D01*
X4768Y3837D01*
X4768Y3837D01*
X4767Y3838D01*
X4767Y3838D01*
X4766Y3839D01*
X4764Y3840D01*
X4763Y3841D01*
X4761Y3841D01*
X4760Y3841D01*
X4759Y3842D01*
X4759Y3842D01*
X4758D01*
X4758D01*
X4758D01*
X4756Y3841D01*
X4754Y3841D01*
X4753Y3840D01*
X4751Y3840D01*
X4750Y3839D01*
X4749Y3838D01*
X4749Y3838D01*
X4748Y3838D01*
X4747Y3836D01*
X4746Y3835D01*
X4746Y3833D01*
X4745Y3832D01*
X4745Y3830D01*
X4745Y3829D01*
X4745Y3829D01*
Y3828D01*
X4745Y3827D01*
X4745Y3825D01*
X4746Y3824D01*
X4746Y3823D01*
X4747Y3822D01*
X4747Y3821D01*
X4747Y3821D01*
X4748Y3820D01*
X4749Y3819D01*
X4750Y3818D01*
X4752Y3818D01*
X4754Y3817D01*
X4755Y3816D01*
X4756Y3816D01*
X4756Y3816D01*
X4757Y3816D01*
X4757Y3816D01*
X4757Y3816D01*
X4757D01*
X4756Y3808D01*
X4755Y3808D01*
X4753Y3809D01*
X4751Y3809D01*
X4749Y3810D01*
X4748Y3811D01*
X4747Y3811D01*
X4746Y3812D01*
X4745Y3813D01*
X4745Y3813D01*
X4744Y3814D01*
X4744Y3814D01*
X4743Y3814D01*
X4743Y3814D01*
X4743Y3814D01*
X4742Y3815D01*
X4742Y3817D01*
X4741Y3818D01*
X4740Y3819D01*
X4739Y3821D01*
X4739Y3823D01*
X4739Y3824D01*
X4738Y3825D01*
X4738Y3826D01*
X4738Y3827D01*
X4738Y3827D01*
Y3828D01*
X4738Y3830D01*
X4738Y3832D01*
X4739Y3833D01*
X4739Y3835D01*
X4740Y3836D01*
X4740Y3837D01*
X4741Y3838D01*
X4741Y3840D01*
X4742Y3841D01*
X4742Y3841D01*
X4743Y3842D01*
X4743Y3843D01*
X4743Y3843D01*
X4744Y3843D01*
X4744Y3844D01*
X4744Y3844D01*
X4745Y3845D01*
X4746Y3846D01*
X4748Y3847D01*
X4749Y3847D01*
X4750Y3848D01*
X4751Y3848D01*
X4753Y3849D01*
X4754Y3849D01*
X4755Y3850D01*
X4756Y3850D01*
X4757Y3850D01*
X4757Y3850D01*
X4758D01*
X4758D01*
X4758D01*
X4760Y3850D01*
D02*
G37*
G36*
X4774Y3800D02*
X4776D01*
X4777Y3800D01*
X4779Y3800D01*
X4780Y3800D01*
X4781Y3799D01*
X4782Y3799D01*
X4783Y3799D01*
X4784Y3799D01*
X4784Y3799D01*
X4785Y3799D01*
X4785Y3799D01*
X4786Y3799D01*
X4786Y3799D01*
X4786D01*
X4788Y3798D01*
X4790Y3797D01*
X4791Y3797D01*
X4793Y3796D01*
X4794Y3795D01*
X4795Y3795D01*
X4795Y3795D01*
X4795Y3795D01*
X4797Y3794D01*
X4798Y3793D01*
X4799Y3791D01*
X4800Y3790D01*
X4801Y3789D01*
X4801Y3789D01*
X4801Y3788D01*
X4801Y3788D01*
Y3788D01*
X4802Y3787D01*
X4803Y3785D01*
X4803Y3784D01*
X4803Y3782D01*
X4803Y3781D01*
X4804Y3780D01*
Y3779D01*
X4803Y3777D01*
X4803Y3774D01*
X4802Y3772D01*
X4802Y3771D01*
X4801Y3769D01*
X4801Y3769D01*
X4800Y3768D01*
X4800Y3768D01*
X4800Y3768D01*
X4800Y3768D01*
Y3767D01*
X4798Y3766D01*
X4797Y3764D01*
X4795Y3763D01*
X4793Y3762D01*
X4792Y3762D01*
X4791Y3761D01*
X4790Y3761D01*
X4790Y3761D01*
X4789Y3761D01*
X4789Y3761D01*
X4789D01*
X4788Y3760D01*
X4786Y3760D01*
X4783Y3759D01*
X4780Y3759D01*
X4777Y3759D01*
X4776Y3758D01*
X4775Y3758D01*
X4774D01*
X4773Y3758D01*
X4772D01*
X4771D01*
X4771D01*
X4771D01*
X4768Y3758D01*
X4765Y3759D01*
X4762Y3759D01*
X4759Y3759D01*
X4757Y3760D01*
X4755Y3760D01*
X4753Y3761D01*
X4751Y3761D01*
X4750Y3762D01*
X4748Y3763D01*
X4747Y3763D01*
X4746Y3764D01*
X4746Y3764D01*
X4745Y3764D01*
X4745Y3764D01*
X4745Y3765D01*
X4744Y3766D01*
X4743Y3767D01*
X4742Y3768D01*
X4741Y3769D01*
X4740Y3770D01*
X4740Y3771D01*
X4739Y3773D01*
X4739Y3774D01*
X4739Y3775D01*
X4739Y3776D01*
X4738Y3777D01*
X4738Y3778D01*
X4738Y3778D01*
Y3779D01*
X4738Y3782D01*
X4739Y3784D01*
X4739Y3786D01*
X4740Y3788D01*
X4741Y3789D01*
X4741Y3789D01*
X4741Y3790D01*
X4742Y3790D01*
X4742Y3791D01*
X4742Y3791D01*
Y3791D01*
X4743Y3792D01*
X4745Y3794D01*
X4747Y3795D01*
X4749Y3796D01*
X4750Y3797D01*
X4751Y3797D01*
X4752Y3797D01*
X4752Y3797D01*
X4752Y3798D01*
X4753Y3798D01*
X4753D01*
X4754Y3798D01*
X4755Y3798D01*
X4758Y3799D01*
X4761Y3799D01*
X4764Y3800D01*
X4766Y3800D01*
X4767Y3800D01*
X4768D01*
X4769Y3800D01*
X4770D01*
X4770D01*
X4771D01*
X4771D01*
X4773D01*
X4774Y3800D01*
D02*
G37*
G36*
X4760Y3750D02*
X4762Y3750D01*
X4764Y3749D01*
X4766Y3749D01*
X4767Y3748D01*
X4768Y3748D01*
X4768Y3747D01*
X4769Y3747D01*
X4770Y3746D01*
X4771Y3745D01*
X4772Y3743D01*
X4773Y3742D01*
X4773Y3740D01*
X4774Y3739D01*
X4774Y3739D01*
X4774Y3739D01*
X4774Y3739D01*
Y3738D01*
X4775Y3740D01*
X4776Y3741D01*
X4777Y3742D01*
X4777Y3743D01*
X4778Y3744D01*
X4779Y3745D01*
X4779Y3745D01*
X4779Y3745D01*
X4781Y3746D01*
X4782Y3746D01*
X4783Y3747D01*
X4784Y3747D01*
X4785Y3747D01*
X4786Y3747D01*
X4787D01*
X4787D01*
X4788Y3747D01*
X4790Y3747D01*
X4791Y3747D01*
X4793Y3746D01*
X4794Y3746D01*
X4795Y3745D01*
X4795Y3745D01*
X4795Y3745D01*
X4797Y3744D01*
X4798Y3743D01*
X4799Y3742D01*
X4800Y3741D01*
X4800Y3740D01*
X4801Y3739D01*
X4801Y3738D01*
X4801Y3738D01*
Y3738D01*
X4802Y3737D01*
X4803Y3735D01*
X4803Y3733D01*
X4803Y3732D01*
X4803Y3730D01*
X4804Y3729D01*
Y3727D01*
X4803Y3726D01*
X4803Y3723D01*
X4802Y3721D01*
X4801Y3719D01*
X4801Y3719D01*
X4801Y3718D01*
X4800Y3717D01*
X4800Y3717D01*
X4800Y3716D01*
X4799Y3716D01*
X4799Y3716D01*
X4799Y3716D01*
X4797Y3714D01*
X4796Y3713D01*
X4793Y3712D01*
X4791Y3711D01*
X4790Y3710D01*
X4789Y3710D01*
X4788Y3710D01*
X4788Y3710D01*
X4787Y3710D01*
X4787Y3709D01*
X4787D01*
X4786Y3717D01*
X4788Y3718D01*
X4789Y3718D01*
X4791Y3719D01*
X4792Y3719D01*
X4793Y3720D01*
X4794Y3721D01*
X4794Y3721D01*
X4794Y3721D01*
X4795Y3722D01*
X4796Y3724D01*
X4796Y3725D01*
X4797Y3726D01*
X4797Y3727D01*
X4797Y3728D01*
Y3729D01*
X4797Y3730D01*
X4797Y3732D01*
X4796Y3733D01*
X4796Y3734D01*
X4795Y3735D01*
X4795Y3736D01*
X4794Y3736D01*
X4794Y3736D01*
X4793Y3737D01*
X4792Y3738D01*
X4791Y3739D01*
X4790Y3739D01*
X4789Y3739D01*
X4788Y3739D01*
X4787D01*
X4787D01*
X4787D01*
X4786D01*
X4785Y3739D01*
X4784Y3739D01*
X4782Y3738D01*
X4781Y3737D01*
X4780Y3737D01*
X4780Y3736D01*
X4779Y3735D01*
X4779Y3735D01*
Y3735D01*
X4778Y3734D01*
X4778Y3732D01*
X4777Y3731D01*
X4777Y3729D01*
X4777Y3728D01*
X4776Y3727D01*
Y3726D01*
X4777Y3725D01*
Y3725D01*
X4770Y3724D01*
X4770Y3725D01*
X4770Y3726D01*
X4770Y3727D01*
X4770Y3728D01*
X4770Y3729D01*
Y3730D01*
X4770Y3732D01*
X4770Y3733D01*
X4769Y3735D01*
X4769Y3736D01*
X4768Y3737D01*
X4768Y3738D01*
X4767Y3738D01*
X4767Y3739D01*
X4766Y3740D01*
X4764Y3741D01*
X4763Y3741D01*
X4761Y3742D01*
X4760Y3742D01*
X4759Y3742D01*
X4759Y3742D01*
X4758D01*
X4758D01*
X4758D01*
X4756Y3742D01*
X4754Y3742D01*
X4753Y3741D01*
X4751Y3740D01*
X4750Y3739D01*
X4749Y3739D01*
X4749Y3738D01*
X4748Y3738D01*
X4747Y3737D01*
X4746Y3735D01*
X4746Y3734D01*
X4745Y3732D01*
X4745Y3731D01*
X4745Y3730D01*
X4745Y3729D01*
Y3729D01*
X4745Y3727D01*
X4745Y3726D01*
X4746Y3724D01*
X4746Y3723D01*
X4747Y3722D01*
X4747Y3722D01*
X4747Y3721D01*
X4748Y3721D01*
X4749Y3720D01*
X4750Y3719D01*
X4752Y3718D01*
X4754Y3717D01*
X4755Y3717D01*
X4756Y3717D01*
X4756Y3717D01*
X4757Y3717D01*
X4757Y3717D01*
X4757Y3716D01*
X4757D01*
X4756Y3709D01*
X4755Y3709D01*
X4753Y3709D01*
X4751Y3710D01*
X4749Y3711D01*
X4748Y3711D01*
X4747Y3712D01*
X4746Y3713D01*
X4745Y3713D01*
X4745Y3714D01*
X4744Y3714D01*
X4744Y3714D01*
X4743Y3715D01*
X4743Y3715D01*
X4743Y3715D01*
X4742Y3716D01*
X4742Y3717D01*
X4741Y3718D01*
X4740Y3719D01*
X4739Y3722D01*
X4739Y3724D01*
X4739Y3725D01*
X4738Y3726D01*
X4738Y3727D01*
X4738Y3727D01*
X4738Y3728D01*
Y3729D01*
X4738Y3731D01*
X4738Y3732D01*
X4739Y3734D01*
X4739Y3735D01*
X4740Y3737D01*
X4740Y3738D01*
X4741Y3739D01*
X4741Y3740D01*
X4742Y3741D01*
X4742Y3742D01*
X4743Y3743D01*
X4743Y3743D01*
X4743Y3744D01*
X4744Y3744D01*
X4744Y3744D01*
X4744Y3744D01*
X4745Y3745D01*
X4746Y3746D01*
X4748Y3747D01*
X4749Y3748D01*
X4750Y3748D01*
X4751Y3749D01*
X4753Y3750D01*
X4754Y3750D01*
X4755Y3750D01*
X4756Y3750D01*
X4757Y3750D01*
X4757Y3750D01*
X4758D01*
X4758D01*
X4758D01*
X4760Y3750D01*
D02*
G37*
G36*
X4762Y3693D02*
X4760Y3692D01*
X4759Y3692D01*
X4758Y3691D01*
X4756Y3691D01*
X4755Y3690D01*
X4754Y3690D01*
X4753Y3689D01*
X4753Y3689D01*
X4752Y3688D01*
X4751Y3688D01*
X4751Y3687D01*
X4750Y3687D01*
X4750Y3686D01*
X4750Y3686D01*
X4750Y3686D01*
X4749Y3686D01*
X4749Y3685D01*
X4748Y3684D01*
X4747Y3682D01*
X4746Y3680D01*
X4746Y3678D01*
X4746Y3677D01*
X4746Y3676D01*
Y3675D01*
X4745Y3675D01*
Y3674D01*
X4746Y3672D01*
X4746Y3670D01*
X4746Y3668D01*
X4747Y3666D01*
X4747Y3665D01*
X4748Y3664D01*
X4748Y3664D01*
X4748Y3664D01*
X4748Y3663D01*
X4748Y3663D01*
Y3663D01*
X4750Y3661D01*
X4751Y3660D01*
X4753Y3659D01*
X4754Y3658D01*
X4755Y3657D01*
X4757Y3656D01*
X4757Y3656D01*
X4757Y3656D01*
X4757Y3656D01*
X4758D01*
X4760Y3655D01*
X4762Y3654D01*
X4765Y3654D01*
X4767Y3654D01*
X4768Y3654D01*
X4769Y3653D01*
X4770D01*
X4770Y3653D01*
X4771D01*
X4771D01*
X4772D01*
X4772D01*
X4774Y3653D01*
X4776Y3654D01*
X4778Y3654D01*
X4780Y3654D01*
X4782Y3655D01*
X4782Y3655D01*
X4783Y3655D01*
X4784Y3655D01*
X4784Y3655D01*
X4784Y3655D01*
X4784D01*
X4786Y3656D01*
X4788Y3657D01*
X4790Y3658D01*
X4791Y3660D01*
X4792Y3661D01*
X4793Y3661D01*
X4793Y3662D01*
X4794Y3662D01*
Y3662D01*
X4795Y3664D01*
X4796Y3666D01*
X4796Y3668D01*
X4797Y3670D01*
X4797Y3672D01*
X4797Y3673D01*
Y3673D01*
X4797Y3674D01*
Y3675D01*
X4797Y3677D01*
X4797Y3679D01*
X4796Y3681D01*
X4796Y3682D01*
X4795Y3684D01*
X4795Y3685D01*
X4794Y3685D01*
X4794Y3685D01*
X4793Y3687D01*
X4791Y3688D01*
X4789Y3689D01*
X4788Y3690D01*
X4786Y3691D01*
X4785Y3691D01*
X4785Y3691D01*
X4784Y3692D01*
X4784Y3692D01*
X4784Y3692D01*
X4784D01*
X4786Y3700D01*
X4787Y3700D01*
X4789Y3699D01*
X4790Y3698D01*
X4792Y3698D01*
X4793Y3697D01*
X4794Y3696D01*
X4795Y3695D01*
X4796Y3695D01*
X4797Y3694D01*
X4797Y3693D01*
X4798Y3693D01*
X4799Y3692D01*
X4799Y3692D01*
X4799Y3691D01*
X4799Y3691D01*
X4799Y3691D01*
X4800Y3690D01*
X4801Y3688D01*
X4802Y3687D01*
X4802Y3686D01*
X4803Y3683D01*
X4804Y3680D01*
X4804Y3679D01*
X4804Y3678D01*
X4804Y3677D01*
X4804Y3676D01*
X4804Y3676D01*
Y3675D01*
X4804Y3672D01*
X4804Y3669D01*
X4803Y3666D01*
X4803Y3665D01*
X4802Y3664D01*
X4802Y3663D01*
X4802Y3662D01*
X4801Y3661D01*
X4801Y3661D01*
X4801Y3660D01*
X4801Y3660D01*
X4801Y3659D01*
X4801Y3659D01*
X4799Y3657D01*
X4797Y3655D01*
X4795Y3653D01*
X4793Y3651D01*
X4792Y3650D01*
X4791Y3650D01*
X4790Y3649D01*
X4790Y3649D01*
X4790Y3649D01*
X4789Y3649D01*
X4789Y3648D01*
X4786Y3647D01*
X4783Y3646D01*
X4780Y3646D01*
X4778Y3645D01*
X4776Y3645D01*
X4775Y3645D01*
X4774Y3645D01*
X4773D01*
X4773Y3645D01*
X4772D01*
X4772D01*
X4772D01*
X4768Y3645D01*
X4765Y3645D01*
X4762Y3646D01*
X4761Y3646D01*
X4760Y3646D01*
X4759Y3647D01*
X4758Y3647D01*
X4757Y3647D01*
X4756Y3647D01*
X4755Y3648D01*
X4755Y3648D01*
X4755Y3648D01*
X4755D01*
X4752Y3649D01*
X4749Y3651D01*
X4747Y3653D01*
X4746Y3653D01*
X4746Y3654D01*
X4745Y3655D01*
X4744Y3656D01*
X4744Y3656D01*
X4743Y3657D01*
X4743Y3657D01*
X4743Y3658D01*
X4742Y3658D01*
X4742Y3658D01*
X4742Y3659D01*
X4741Y3661D01*
X4740Y3663D01*
X4739Y3666D01*
X4739Y3669D01*
X4739Y3670D01*
X4738Y3671D01*
X4738Y3672D01*
Y3673D01*
X4738Y3674D01*
Y3675D01*
X4738Y3677D01*
X4738Y3678D01*
X4739Y3680D01*
X4739Y3682D01*
X4739Y3683D01*
X4740Y3684D01*
X4740Y3686D01*
X4741Y3687D01*
X4741Y3688D01*
X4742Y3689D01*
X4742Y3690D01*
X4743Y3690D01*
X4743Y3691D01*
X4743Y3691D01*
X4744Y3692D01*
X4744Y3692D01*
X4745Y3693D01*
X4746Y3694D01*
X4747Y3695D01*
X4748Y3696D01*
X4751Y3698D01*
X4754Y3699D01*
X4755Y3700D01*
X4756Y3700D01*
X4757Y3700D01*
X4758Y3701D01*
X4759Y3701D01*
X4759Y3701D01*
X4759Y3701D01*
X4760D01*
X4762Y3693D01*
D02*
G37*
G36*
X5570Y2910D02*
X5573Y2909D01*
X5576Y2909D01*
X5577Y2909D01*
X5578Y2908D01*
X5580Y2908D01*
X5581Y2908D01*
X5582Y2907D01*
X5582Y2907D01*
X5583Y2907D01*
X5583Y2907D01*
X5584Y2907D01*
X5584D01*
X5586Y2905D01*
X5589Y2904D01*
X5591Y2902D01*
X5592Y2901D01*
X5593Y2900D01*
X5593Y2900D01*
X5594Y2899D01*
X5595Y2898D01*
X5595Y2898D01*
X5595Y2897D01*
X5596Y2897D01*
X5596Y2897D01*
X5596Y2897D01*
X5597Y2895D01*
X5597Y2894D01*
X5598Y2891D01*
X5599Y2889D01*
X5599Y2886D01*
X5600Y2885D01*
X5600Y2884D01*
X5600Y2883D01*
Y2882D01*
X5600Y2881D01*
Y2880D01*
X5600Y2878D01*
X5600Y2876D01*
X5600Y2875D01*
X5599Y2873D01*
X5599Y2872D01*
X5598Y2870D01*
X5598Y2869D01*
X5597Y2868D01*
X5597Y2867D01*
X5596Y2866D01*
X5596Y2865D01*
X5595Y2864D01*
X5595Y2864D01*
X5595Y2863D01*
X5595Y2863D01*
X5595Y2863D01*
X5593Y2862D01*
X5592Y2861D01*
X5591Y2860D01*
X5590Y2859D01*
X5587Y2857D01*
X5585Y2856D01*
X5583Y2855D01*
X5582Y2855D01*
X5581Y2854D01*
X5580Y2854D01*
X5580Y2854D01*
X5579Y2854D01*
X5579Y2853D01*
X5579D01*
X5577Y2862D01*
X5578Y2862D01*
X5579Y2863D01*
X5581Y2863D01*
X5582Y2864D01*
X5583Y2864D01*
X5584Y2865D01*
X5585Y2865D01*
X5586Y2866D01*
X5586Y2866D01*
X5587Y2867D01*
X5588Y2867D01*
X5588Y2868D01*
X5588Y2868D01*
X5589Y2868D01*
X5589Y2869D01*
X5589Y2869D01*
X5589Y2870D01*
X5590Y2871D01*
X5591Y2873D01*
X5592Y2875D01*
X5592Y2877D01*
X5593Y2878D01*
X5593Y2879D01*
Y2879D01*
X5593Y2880D01*
Y2881D01*
X5593Y2883D01*
X5592Y2885D01*
X5592Y2887D01*
X5591Y2888D01*
X5591Y2890D01*
X5590Y2890D01*
X5590Y2891D01*
X5590Y2891D01*
X5590Y2891D01*
X5590Y2892D01*
Y2892D01*
X5589Y2893D01*
X5587Y2895D01*
X5586Y2896D01*
X5584Y2897D01*
X5583Y2898D01*
X5582Y2899D01*
X5581Y2899D01*
X5581Y2899D01*
X5581Y2899D01*
X5581D01*
X5578Y2900D01*
X5576Y2900D01*
X5573Y2901D01*
X5571Y2901D01*
X5570Y2901D01*
X5569Y2901D01*
X5568D01*
X5568Y2901D01*
X5567D01*
X5567D01*
X5567D01*
X5566D01*
X5564Y2901D01*
X5562Y2901D01*
X5560Y2901D01*
X5558Y2900D01*
X5556Y2900D01*
X5556Y2900D01*
X5555Y2900D01*
X5555Y2900D01*
X5554Y2899D01*
X5554Y2899D01*
X5554D01*
X5552Y2898D01*
X5550Y2897D01*
X5549Y2896D01*
X5547Y2895D01*
X5546Y2894D01*
X5545Y2893D01*
X5545Y2893D01*
X5545Y2893D01*
Y2892D01*
X5543Y2890D01*
X5542Y2888D01*
X5542Y2886D01*
X5541Y2884D01*
X5541Y2883D01*
X5541Y2882D01*
Y2881D01*
X5541Y2881D01*
Y2880D01*
X5541Y2878D01*
X5541Y2876D01*
X5542Y2874D01*
X5543Y2872D01*
X5543Y2871D01*
X5544Y2870D01*
X5544Y2870D01*
X5544Y2869D01*
X5546Y2868D01*
X5547Y2867D01*
X5549Y2865D01*
X5551Y2865D01*
X5552Y2864D01*
X5553Y2863D01*
X5553Y2863D01*
X5554Y2863D01*
X5554Y2863D01*
X5554Y2863D01*
X5554D01*
X5552Y2855D01*
X5551Y2855D01*
X5549Y2856D01*
X5548Y2856D01*
X5547Y2857D01*
X5545Y2858D01*
X5544Y2859D01*
X5543Y2859D01*
X5542Y2860D01*
X5541Y2861D01*
X5541Y2861D01*
X5540Y2862D01*
X5540Y2863D01*
X5539Y2863D01*
X5539Y2863D01*
X5539Y2864D01*
X5539Y2864D01*
X5538Y2865D01*
X5537Y2866D01*
X5536Y2868D01*
X5536Y2869D01*
X5535Y2872D01*
X5534Y2874D01*
X5534Y2875D01*
X5534Y2876D01*
X5534Y2877D01*
X5534Y2878D01*
X5534Y2879D01*
Y2880D01*
X5534Y2883D01*
X5534Y2886D01*
X5535Y2888D01*
X5535Y2890D01*
X5536Y2891D01*
X5536Y2892D01*
X5536Y2893D01*
X5537Y2893D01*
X5537Y2894D01*
X5537Y2895D01*
X5538Y2895D01*
X5538Y2895D01*
X5538Y2895D01*
X5539Y2898D01*
X5541Y2900D01*
X5543Y2902D01*
X5545Y2903D01*
X5546Y2905D01*
X5547Y2905D01*
X5548Y2905D01*
X5548Y2906D01*
X5549Y2906D01*
X5549Y2906D01*
X5549Y2906D01*
X5552Y2908D01*
X5555Y2908D01*
X5558Y2909D01*
X5561Y2910D01*
X5562Y2910D01*
X5563Y2910D01*
X5564Y2910D01*
X5565D01*
X5565Y2910D01*
X5566D01*
X5566D01*
X5566D01*
X5570Y2910D01*
D02*
G37*
G36*
X5583Y2846D02*
X5585Y2846D01*
X5587Y2845D01*
X5590Y2844D01*
X5591Y2843D01*
X5591Y2843D01*
X5592Y2842D01*
X5593Y2842D01*
X5594Y2841D01*
X5594Y2841D01*
X5594Y2840D01*
X5595Y2840D01*
X5595Y2840D01*
X5595Y2840D01*
X5596Y2839D01*
X5597Y2838D01*
X5597Y2836D01*
X5598Y2835D01*
X5599Y2833D01*
X5599Y2831D01*
X5600Y2830D01*
X5600Y2829D01*
X5600Y2828D01*
X5600Y2827D01*
X5600Y2827D01*
Y2826D01*
X5600Y2824D01*
X5600Y2823D01*
X5599Y2821D01*
X5599Y2819D01*
X5599Y2818D01*
X5598Y2817D01*
X5598Y2816D01*
X5597Y2815D01*
X5597Y2814D01*
X5596Y2813D01*
X5596Y2812D01*
X5595Y2812D01*
X5595Y2811D01*
X5594Y2811D01*
X5594Y2811D01*
X5594Y2810D01*
X5593Y2809D01*
X5592Y2808D01*
X5591Y2808D01*
X5589Y2807D01*
X5588Y2806D01*
X5587Y2806D01*
X5585Y2805D01*
X5584Y2805D01*
X5583Y2805D01*
X5582Y2804D01*
X5581Y2804D01*
X5581Y2804D01*
X5580D01*
X5580D01*
X5580D01*
X5578Y2804D01*
X5576Y2805D01*
X5574Y2805D01*
X5573Y2806D01*
X5571Y2806D01*
X5570Y2807D01*
X5570Y2807D01*
X5570Y2807D01*
X5568Y2809D01*
X5567Y2810D01*
X5566Y2812D01*
X5565Y2813D01*
X5565Y2814D01*
X5564Y2815D01*
X5564Y2816D01*
X5564Y2816D01*
X5564Y2816D01*
Y2816D01*
X5563Y2815D01*
X5563Y2813D01*
X5562Y2812D01*
X5561Y2811D01*
X5560Y2811D01*
X5559Y2810D01*
X5559Y2810D01*
X5559Y2810D01*
X5558Y2809D01*
X5556Y2808D01*
X5555Y2808D01*
X5554Y2808D01*
X5553Y2807D01*
X5552Y2807D01*
X5551D01*
X5551D01*
X5550Y2807D01*
X5548Y2808D01*
X5547Y2808D01*
X5546Y2809D01*
X5545Y2809D01*
X5544Y2809D01*
X5543Y2810D01*
X5543Y2810D01*
X5542Y2811D01*
X5540Y2812D01*
X5539Y2813D01*
X5539Y2814D01*
X5538Y2815D01*
X5537Y2816D01*
X5537Y2816D01*
X5537Y2816D01*
Y2817D01*
X5536Y2818D01*
X5536Y2820D01*
X5535Y2822D01*
X5535Y2823D01*
X5535Y2824D01*
X5535Y2825D01*
Y2828D01*
X5535Y2829D01*
X5535Y2831D01*
X5536Y2833D01*
X5537Y2835D01*
X5537Y2836D01*
X5538Y2837D01*
X5538Y2837D01*
X5538Y2838D01*
X5539Y2838D01*
X5539Y2839D01*
X5539Y2839D01*
X5539Y2839D01*
X5541Y2841D01*
X5543Y2842D01*
X5545Y2843D01*
X5547Y2844D01*
X5549Y2845D01*
X5549Y2845D01*
X5550Y2845D01*
X5550Y2845D01*
X5551Y2845D01*
X5551Y2845D01*
X5551D01*
X5553Y2837D01*
X5551Y2837D01*
X5549Y2836D01*
X5547Y2836D01*
X5546Y2835D01*
X5545Y2835D01*
X5545Y2834D01*
X5544Y2834D01*
X5544Y2834D01*
X5543Y2832D01*
X5542Y2831D01*
X5542Y2830D01*
X5541Y2829D01*
X5541Y2828D01*
X5541Y2827D01*
Y2826D01*
X5541Y2824D01*
X5542Y2823D01*
X5542Y2822D01*
X5542Y2820D01*
X5543Y2820D01*
X5544Y2819D01*
X5544Y2818D01*
X5544Y2818D01*
X5545Y2817D01*
X5546Y2817D01*
X5547Y2816D01*
X5549Y2816D01*
X5550Y2816D01*
X5550Y2815D01*
X5551D01*
X5551D01*
X5551D01*
X5552D01*
X5553Y2816D01*
X5555Y2816D01*
X5556Y2817D01*
X5557Y2817D01*
X5558Y2818D01*
X5559Y2819D01*
X5559Y2819D01*
X5559Y2819D01*
Y2819D01*
X5560Y2821D01*
X5561Y2823D01*
X5561Y2824D01*
X5561Y2825D01*
X5562Y2827D01*
X5562Y2828D01*
Y2829D01*
X5562Y2829D01*
Y2830D01*
X5569Y2831D01*
X5568Y2829D01*
X5568Y2828D01*
X5568Y2827D01*
X5568Y2827D01*
X5568Y2826D01*
Y2825D01*
X5568Y2823D01*
X5568Y2821D01*
X5569Y2820D01*
X5569Y2819D01*
X5570Y2818D01*
X5571Y2817D01*
X5571Y2816D01*
X5571Y2816D01*
X5573Y2815D01*
X5574Y2814D01*
X5576Y2813D01*
X5577Y2813D01*
X5578Y2813D01*
X5579Y2813D01*
X5580Y2813D01*
X5580D01*
X5580D01*
X5580D01*
X5582Y2813D01*
X5584Y2813D01*
X5586Y2814D01*
X5587Y2814D01*
X5588Y2815D01*
X5589Y2816D01*
X5590Y2816D01*
X5590Y2816D01*
X5591Y2818D01*
X5592Y2819D01*
X5593Y2821D01*
X5593Y2823D01*
X5593Y2824D01*
X5593Y2825D01*
X5594Y2825D01*
Y2826D01*
X5593Y2827D01*
X5593Y2829D01*
X5593Y2830D01*
X5592Y2832D01*
X5592Y2832D01*
X5591Y2833D01*
X5591Y2834D01*
X5591Y2834D01*
X5589Y2835D01*
X5588Y2836D01*
X5586Y2837D01*
X5585Y2837D01*
X5583Y2838D01*
X5583Y2838D01*
X5582Y2838D01*
X5582Y2838D01*
X5581Y2838D01*
X5581Y2838D01*
X5581D01*
X5582Y2846D01*
X5583Y2846D01*
D02*
G37*
G36*
X5571Y2796D02*
X5574Y2796D01*
X5576Y2796D01*
X5579Y2795D01*
X5581Y2795D01*
X5584Y2794D01*
X5585Y2794D01*
X5587Y2793D01*
X5589Y2793D01*
X5590Y2792D01*
X5591Y2792D01*
X5592Y2791D01*
X5593Y2791D01*
X5593Y2790D01*
X5593Y2790D01*
X5593Y2790D01*
X5595Y2789D01*
X5596Y2788D01*
X5596Y2787D01*
X5597Y2786D01*
X5598Y2784D01*
X5598Y2783D01*
X5599Y2782D01*
X5599Y2781D01*
X5599Y2780D01*
X5600Y2779D01*
X5600Y2778D01*
X5600Y2777D01*
X5600Y2776D01*
Y2776D01*
X5600Y2773D01*
X5599Y2771D01*
X5599Y2769D01*
X5598Y2767D01*
X5598Y2766D01*
X5597Y2765D01*
X5597Y2765D01*
X5597Y2764D01*
X5596Y2764D01*
X5596Y2764D01*
Y2764D01*
X5595Y2762D01*
X5593Y2761D01*
X5591Y2760D01*
X5590Y2759D01*
X5588Y2758D01*
X5587Y2758D01*
X5587Y2758D01*
X5586Y2757D01*
X5586Y2757D01*
X5586Y2757D01*
X5586D01*
X5584Y2757D01*
X5583Y2756D01*
X5580Y2756D01*
X5577Y2755D01*
X5574Y2755D01*
X5573Y2755D01*
X5571Y2755D01*
X5570D01*
X5569Y2755D01*
X5568D01*
X5568D01*
X5567D01*
X5567D01*
X5566D01*
X5564Y2755D01*
X5562D01*
X5561Y2755D01*
X5560Y2755D01*
X5558Y2755D01*
X5557Y2755D01*
X5556Y2755D01*
X5555Y2756D01*
X5555Y2756D01*
X5554Y2756D01*
X5553Y2756D01*
X5553Y2756D01*
X5553Y2756D01*
X5552Y2756D01*
X5552D01*
X5550Y2757D01*
X5548Y2757D01*
X5547Y2758D01*
X5545Y2759D01*
X5544Y2759D01*
X5543Y2760D01*
X5543Y2760D01*
X5543Y2760D01*
X5541Y2761D01*
X5540Y2762D01*
X5539Y2763D01*
X5538Y2764D01*
X5538Y2765D01*
X5537Y2766D01*
X5537Y2766D01*
X5537Y2767D01*
Y2767D01*
X5536Y2768D01*
X5536Y2770D01*
X5535Y2771D01*
X5535Y2773D01*
X5535Y2774D01*
X5535Y2775D01*
Y2776D01*
X5535Y2778D01*
X5535Y2780D01*
X5536Y2782D01*
X5536Y2784D01*
X5537Y2785D01*
X5538Y2786D01*
X5538Y2786D01*
X5538Y2787D01*
X5538Y2787D01*
X5538Y2787D01*
Y2787D01*
X5540Y2789D01*
X5542Y2790D01*
X5543Y2791D01*
X5545Y2792D01*
X5547Y2793D01*
X5547Y2794D01*
X5548Y2794D01*
X5548Y2794D01*
X5549Y2794D01*
X5549Y2794D01*
X5549D01*
X5550Y2795D01*
X5552Y2795D01*
X5555Y2795D01*
X5558Y2796D01*
X5561Y2796D01*
X5562Y2796D01*
X5563Y2796D01*
X5564D01*
X5566Y2796D01*
X5566D01*
X5567D01*
X5567D01*
X5567D01*
X5571Y2796D01*
D02*
G37*
G36*
X5599Y2705D02*
X5591D01*
Y2737D01*
X5590Y2736D01*
X5589Y2735D01*
X5588Y2735D01*
X5588Y2734D01*
X5588Y2734D01*
X5587Y2734D01*
X5587Y2734D01*
X5587Y2733D01*
X5586Y2733D01*
X5585Y2731D01*
X5584Y2730D01*
X5582Y2728D01*
X5581Y2727D01*
X5580Y2726D01*
X5580Y2726D01*
X5580Y2725D01*
X5579Y2725D01*
X5579Y2725D01*
X5579Y2724D01*
X5578Y2723D01*
X5577Y2721D01*
X5575Y2720D01*
X5574Y2719D01*
X5573Y2718D01*
X5572Y2717D01*
X5572Y2716D01*
X5571Y2715D01*
X5570Y2715D01*
X5569Y2714D01*
X5569Y2714D01*
X5569Y2713D01*
X5568Y2713D01*
X5568Y2712D01*
X5566Y2711D01*
X5565Y2710D01*
X5563Y2709D01*
X5562Y2708D01*
X5561Y2708D01*
X5561Y2707D01*
X5560Y2707D01*
X5560Y2707D01*
X5559Y2707D01*
X5557Y2706D01*
X5556Y2706D01*
X5555Y2706D01*
X5554Y2706D01*
X5553Y2705D01*
X5553D01*
X5552D01*
X5551Y2706D01*
X5550Y2706D01*
X5548Y2706D01*
X5547Y2706D01*
X5545Y2707D01*
X5543Y2708D01*
X5542Y2709D01*
X5542Y2709D01*
X5541Y2710D01*
X5541Y2710D01*
X5540Y2710D01*
X5540Y2711D01*
X5540Y2711D01*
X5540Y2711D01*
X5539Y2712D01*
X5538Y2713D01*
X5537Y2714D01*
X5537Y2715D01*
X5536Y2718D01*
X5535Y2720D01*
X5535Y2721D01*
X5535Y2722D01*
X5535Y2723D01*
X5535Y2724D01*
X5535Y2725D01*
Y2726D01*
X5535Y2727D01*
X5535Y2729D01*
X5535Y2730D01*
X5535Y2732D01*
X5536Y2733D01*
X5536Y2734D01*
X5537Y2735D01*
X5537Y2736D01*
X5538Y2737D01*
X5538Y2738D01*
X5538Y2739D01*
X5539Y2739D01*
X5539Y2740D01*
X5539Y2740D01*
X5539Y2740D01*
X5539Y2740D01*
X5540Y2741D01*
X5541Y2742D01*
X5542Y2743D01*
X5544Y2743D01*
X5546Y2745D01*
X5548Y2745D01*
X5549Y2746D01*
X5550Y2746D01*
X5551Y2746D01*
X5552Y2746D01*
X5552Y2746D01*
X5553D01*
X5553Y2746D01*
X5553D01*
X5554Y2738D01*
X5552Y2738D01*
X5550Y2738D01*
X5548Y2737D01*
X5547Y2737D01*
X5546Y2736D01*
X5545Y2735D01*
X5545Y2735D01*
X5545Y2735D01*
X5543Y2734D01*
X5543Y2732D01*
X5542Y2730D01*
X5542Y2729D01*
X5541Y2728D01*
X5541Y2727D01*
X5541Y2726D01*
Y2726D01*
X5541Y2724D01*
X5542Y2722D01*
X5542Y2721D01*
X5543Y2719D01*
X5543Y2718D01*
X5544Y2718D01*
X5544Y2717D01*
X5544Y2717D01*
X5546Y2716D01*
X5547Y2715D01*
X5548Y2714D01*
X5550Y2714D01*
X5551Y2714D01*
X5551Y2714D01*
X5552Y2714D01*
X5552D01*
X5552D01*
X5554Y2714D01*
X5556Y2714D01*
X5557Y2715D01*
X5559Y2715D01*
X5560Y2716D01*
X5561Y2717D01*
X5561Y2717D01*
X5562Y2717D01*
X5562Y2717D01*
X5562D01*
X5563Y2718D01*
X5564Y2719D01*
X5565Y2720D01*
X5566Y2721D01*
X5568Y2723D01*
X5570Y2726D01*
X5571Y2727D01*
X5572Y2728D01*
X5573Y2729D01*
X5574Y2730D01*
X5574Y2730D01*
X5575Y2731D01*
X5575Y2731D01*
X5575Y2731D01*
X5577Y2734D01*
X5579Y2736D01*
X5581Y2738D01*
X5582Y2739D01*
X5583Y2740D01*
X5584Y2741D01*
X5585Y2742D01*
X5585Y2742D01*
X5585D01*
X5587Y2743D01*
X5588Y2744D01*
X5589Y2745D01*
X5591Y2746D01*
X5592Y2746D01*
X5593Y2747D01*
X5593Y2747D01*
X5593Y2747D01*
X5593D01*
X5594Y2747D01*
X5595Y2747D01*
X5596Y2748D01*
X5597Y2748D01*
X5598Y2748D01*
X5598D01*
X5599D01*
X5599D01*
Y2705D01*
D02*
G37*
G36*
X5087Y2925D02*
X5091Y2924D01*
X5093Y2924D01*
X5095Y2924D01*
X5096Y2923D01*
X5097Y2923D01*
X5098Y2923D01*
X5099Y2922D01*
X5100Y2922D01*
X5100Y2922D01*
X5101Y2922D01*
X5101Y2922D01*
X5101D01*
X5104Y2920D01*
X5106Y2919D01*
X5109Y2917D01*
X5109Y2916D01*
X5110Y2915D01*
X5111Y2915D01*
X5112Y2914D01*
X5112Y2913D01*
X5113Y2913D01*
X5113Y2912D01*
X5113Y2912D01*
X5113Y2912D01*
X5113Y2912D01*
X5114Y2910D01*
X5115Y2909D01*
X5116Y2906D01*
X5116Y2904D01*
X5117Y2901D01*
X5117Y2900D01*
X5117Y2899D01*
X5117Y2898D01*
Y2897D01*
X5118Y2896D01*
Y2895D01*
X5117Y2893D01*
X5117Y2891D01*
X5117Y2890D01*
X5117Y2888D01*
X5116Y2887D01*
X5116Y2885D01*
X5115Y2884D01*
X5115Y2883D01*
X5114Y2882D01*
X5114Y2881D01*
X5113Y2880D01*
X5113Y2879D01*
X5113Y2879D01*
X5112Y2878D01*
X5112Y2878D01*
X5112Y2878D01*
X5111Y2877D01*
X5110Y2876D01*
X5109Y2875D01*
X5107Y2874D01*
X5105Y2872D01*
X5102Y2871D01*
X5101Y2870D01*
X5100Y2870D01*
X5099Y2869D01*
X5098Y2869D01*
X5097Y2869D01*
X5097Y2869D01*
X5096Y2868D01*
X5096D01*
X5094Y2877D01*
X5095Y2877D01*
X5097Y2878D01*
X5098Y2878D01*
X5099Y2879D01*
X5100Y2879D01*
X5101Y2880D01*
X5102Y2880D01*
X5103Y2881D01*
X5104Y2881D01*
X5104Y2882D01*
X5105Y2882D01*
X5105Y2883D01*
X5106Y2883D01*
X5106Y2883D01*
X5106Y2884D01*
X5106Y2884D01*
X5107Y2885D01*
X5108Y2886D01*
X5109Y2888D01*
X5109Y2890D01*
X5110Y2892D01*
X5110Y2893D01*
X5110Y2894D01*
Y2894D01*
X5110Y2895D01*
Y2896D01*
X5110Y2898D01*
X5110Y2900D01*
X5109Y2902D01*
X5109Y2903D01*
X5108Y2905D01*
X5108Y2905D01*
X5108Y2906D01*
X5108Y2906D01*
X5107Y2906D01*
X5107Y2907D01*
Y2907D01*
X5106Y2908D01*
X5105Y2910D01*
X5103Y2911D01*
X5102Y2912D01*
X5100Y2913D01*
X5099Y2914D01*
X5099Y2914D01*
X5098Y2914D01*
X5098Y2914D01*
X5098D01*
X5096Y2915D01*
X5093Y2915D01*
X5091Y2916D01*
X5089Y2916D01*
X5088Y2916D01*
X5087Y2916D01*
X5086D01*
X5085Y2916D01*
X5085D01*
X5084D01*
X5084D01*
X5084D01*
X5082Y2916D01*
X5079Y2916D01*
X5077Y2916D01*
X5075Y2915D01*
X5074Y2915D01*
X5073Y2915D01*
X5073Y2915D01*
X5072Y2915D01*
X5072Y2914D01*
X5072Y2914D01*
X5072D01*
X5070Y2913D01*
X5068Y2912D01*
X5066Y2911D01*
X5065Y2910D01*
X5064Y2909D01*
X5063Y2908D01*
X5062Y2908D01*
X5062Y2908D01*
Y2907D01*
X5061Y2905D01*
X5060Y2903D01*
X5059Y2901D01*
X5059Y2899D01*
X5059Y2898D01*
X5059Y2897D01*
Y2896D01*
X5059Y2896D01*
Y2895D01*
X5059Y2893D01*
X5059Y2891D01*
X5060Y2889D01*
X5060Y2887D01*
X5061Y2886D01*
X5061Y2885D01*
X5062Y2885D01*
X5062Y2884D01*
X5063Y2883D01*
X5065Y2882D01*
X5066Y2880D01*
X5068Y2880D01*
X5070Y2879D01*
X5070Y2878D01*
X5071Y2878D01*
X5071Y2878D01*
X5072Y2878D01*
X5072Y2878D01*
X5072D01*
X5070Y2870D01*
X5068Y2870D01*
X5067Y2871D01*
X5065Y2871D01*
X5064Y2872D01*
X5063Y2873D01*
X5062Y2874D01*
X5061Y2874D01*
X5060Y2875D01*
X5059Y2876D01*
X5058Y2876D01*
X5058Y2877D01*
X5057Y2878D01*
X5057Y2878D01*
X5056Y2878D01*
X5056Y2879D01*
X5056Y2879D01*
X5055Y2880D01*
X5055Y2881D01*
X5054Y2883D01*
X5053Y2884D01*
X5053Y2887D01*
X5052Y2889D01*
X5052Y2890D01*
X5052Y2891D01*
X5051Y2892D01*
X5051Y2893D01*
X5051Y2894D01*
Y2895D01*
X5051Y2898D01*
X5052Y2901D01*
X5053Y2903D01*
X5053Y2905D01*
X5053Y2906D01*
X5054Y2907D01*
X5054Y2908D01*
X5054Y2908D01*
X5055Y2909D01*
X5055Y2910D01*
X5055Y2910D01*
X5055Y2910D01*
X5055Y2910D01*
X5057Y2913D01*
X5059Y2915D01*
X5060Y2917D01*
X5062Y2918D01*
X5064Y2920D01*
X5065Y2920D01*
X5065Y2920D01*
X5066Y2921D01*
X5066Y2921D01*
X5066Y2921D01*
X5067Y2921D01*
X5069Y2923D01*
X5072Y2923D01*
X5075Y2924D01*
X5078Y2925D01*
X5079Y2925D01*
X5080Y2925D01*
X5081Y2925D01*
X5082D01*
X5083Y2925D01*
X5083D01*
X5084D01*
X5084D01*
X5087Y2925D01*
D02*
G37*
G36*
X5101Y2861D02*
X5102Y2861D01*
X5105Y2860D01*
X5107Y2859D01*
X5108Y2858D01*
X5109Y2858D01*
X5110Y2857D01*
X5110Y2857D01*
X5111Y2856D01*
X5112Y2856D01*
X5112Y2855D01*
X5112Y2855D01*
X5112Y2855D01*
X5113Y2855D01*
X5113Y2854D01*
X5114Y2853D01*
X5115Y2851D01*
X5115Y2850D01*
X5116Y2848D01*
X5117Y2846D01*
X5117Y2845D01*
X5117Y2844D01*
X5117Y2843D01*
X5117Y2842D01*
X5118Y2842D01*
Y2841D01*
X5117Y2839D01*
X5117Y2838D01*
X5117Y2836D01*
X5117Y2834D01*
X5116Y2833D01*
X5116Y2832D01*
X5115Y2831D01*
X5115Y2830D01*
X5114Y2829D01*
X5114Y2828D01*
X5113Y2827D01*
X5113Y2827D01*
X5112Y2826D01*
X5112Y2826D01*
X5112Y2826D01*
X5112Y2825D01*
X5111Y2824D01*
X5109Y2823D01*
X5108Y2823D01*
X5107Y2822D01*
X5106Y2821D01*
X5105Y2821D01*
X5102Y2820D01*
X5101Y2820D01*
X5100Y2820D01*
X5100Y2819D01*
X5099Y2819D01*
X5098Y2819D01*
X5098D01*
X5098D01*
X5098D01*
X5095Y2819D01*
X5093Y2820D01*
X5092Y2820D01*
X5090Y2821D01*
X5089Y2821D01*
X5088Y2822D01*
X5087Y2822D01*
X5087Y2822D01*
X5086Y2824D01*
X5085Y2825D01*
X5084Y2827D01*
X5083Y2828D01*
X5082Y2829D01*
X5082Y2830D01*
X5082Y2831D01*
X5082Y2831D01*
X5082Y2831D01*
Y2831D01*
X5081Y2830D01*
X5080Y2828D01*
X5079Y2827D01*
X5078Y2826D01*
X5078Y2826D01*
X5077Y2825D01*
X5077Y2825D01*
X5076Y2825D01*
X5075Y2824D01*
X5074Y2823D01*
X5072Y2823D01*
X5071Y2823D01*
X5070Y2822D01*
X5070Y2822D01*
X5069D01*
X5069D01*
X5067Y2822D01*
X5066Y2823D01*
X5064Y2823D01*
X5063Y2824D01*
X5062Y2824D01*
X5061Y2824D01*
X5061Y2825D01*
X5061Y2825D01*
X5059Y2826D01*
X5058Y2827D01*
X5057Y2828D01*
X5056Y2829D01*
X5055Y2830D01*
X5055Y2831D01*
X5055Y2831D01*
X5054Y2831D01*
Y2832D01*
X5054Y2833D01*
X5053Y2835D01*
X5053Y2837D01*
X5052Y2838D01*
X5052Y2839D01*
X5052Y2840D01*
Y2843D01*
X5052Y2844D01*
X5053Y2846D01*
X5054Y2848D01*
X5054Y2850D01*
X5055Y2851D01*
X5055Y2852D01*
X5055Y2852D01*
X5056Y2853D01*
X5056Y2853D01*
X5056Y2854D01*
X5056Y2854D01*
X5056Y2854D01*
X5058Y2856D01*
X5060Y2857D01*
X5062Y2858D01*
X5064Y2859D01*
X5066Y2860D01*
X5067Y2860D01*
X5067Y2860D01*
X5068Y2860D01*
X5068Y2860D01*
X5069Y2860D01*
X5069D01*
X5070Y2852D01*
X5068Y2852D01*
X5066Y2851D01*
X5065Y2851D01*
X5064Y2850D01*
X5063Y2850D01*
X5062Y2849D01*
X5062Y2849D01*
X5061Y2849D01*
X5061Y2847D01*
X5060Y2846D01*
X5059Y2845D01*
X5059Y2844D01*
X5059Y2843D01*
X5059Y2842D01*
Y2841D01*
X5059Y2839D01*
X5059Y2838D01*
X5060Y2837D01*
X5060Y2835D01*
X5061Y2835D01*
X5061Y2834D01*
X5061Y2833D01*
X5061Y2833D01*
X5063Y2832D01*
X5064Y2832D01*
X5065Y2831D01*
X5066Y2831D01*
X5067Y2831D01*
X5068Y2830D01*
X5068D01*
X5068D01*
X5069D01*
X5070D01*
X5071Y2831D01*
X5072Y2831D01*
X5073Y2832D01*
X5075Y2832D01*
X5076Y2833D01*
X5076Y2834D01*
X5077Y2834D01*
X5077Y2834D01*
Y2834D01*
X5077Y2836D01*
X5078Y2838D01*
X5079Y2839D01*
X5079Y2840D01*
X5079Y2842D01*
X5079Y2843D01*
Y2844D01*
X5079Y2844D01*
Y2845D01*
X5086Y2846D01*
X5086Y2844D01*
X5086Y2843D01*
X5085Y2842D01*
X5085Y2842D01*
X5085Y2841D01*
Y2840D01*
X5085Y2838D01*
X5086Y2836D01*
X5086Y2835D01*
X5087Y2834D01*
X5088Y2833D01*
X5088Y2832D01*
X5089Y2831D01*
X5089Y2831D01*
X5090Y2830D01*
X5092Y2829D01*
X5093Y2828D01*
X5095Y2828D01*
X5096Y2828D01*
X5097Y2828D01*
X5097Y2828D01*
X5097D01*
X5098D01*
X5098D01*
X5100Y2828D01*
X5102Y2828D01*
X5103Y2829D01*
X5105Y2829D01*
X5106Y2830D01*
X5106Y2831D01*
X5107Y2831D01*
X5107Y2831D01*
X5109Y2833D01*
X5109Y2834D01*
X5110Y2836D01*
X5111Y2838D01*
X5111Y2839D01*
X5111Y2840D01*
X5111Y2840D01*
Y2841D01*
X5111Y2842D01*
X5111Y2844D01*
X5110Y2845D01*
X5110Y2847D01*
X5109Y2847D01*
X5109Y2848D01*
X5108Y2849D01*
X5108Y2849D01*
X5107Y2850D01*
X5105Y2851D01*
X5104Y2852D01*
X5102Y2852D01*
X5101Y2853D01*
X5100Y2853D01*
X5100Y2853D01*
X5099Y2853D01*
X5099Y2853D01*
X5099Y2853D01*
X5098D01*
X5099Y2861D01*
X5101Y2861D01*
D02*
G37*
G36*
X5088Y2811D02*
X5091Y2811D01*
X5094Y2811D01*
X5097Y2810D01*
X5099Y2810D01*
X5101Y2809D01*
X5103Y2809D01*
X5105Y2808D01*
X5106Y2808D01*
X5107Y2807D01*
X5109Y2807D01*
X5109Y2806D01*
X5110Y2806D01*
X5111Y2805D01*
X5111Y2805D01*
X5111Y2805D01*
X5112Y2804D01*
X5113Y2803D01*
X5114Y2802D01*
X5115Y2801D01*
X5115Y2799D01*
X5116Y2798D01*
X5116Y2797D01*
X5117Y2796D01*
X5117Y2795D01*
X5117Y2794D01*
X5117Y2793D01*
X5117Y2792D01*
X5118Y2791D01*
Y2791D01*
X5117Y2788D01*
X5117Y2786D01*
X5116Y2784D01*
X5116Y2782D01*
X5115Y2781D01*
X5115Y2780D01*
X5114Y2780D01*
X5114Y2779D01*
X5114Y2779D01*
X5114Y2779D01*
Y2779D01*
X5112Y2777D01*
X5111Y2776D01*
X5109Y2775D01*
X5107Y2774D01*
X5105Y2773D01*
X5105Y2773D01*
X5104Y2773D01*
X5104Y2772D01*
X5103Y2772D01*
X5103Y2772D01*
X5103D01*
X5102Y2772D01*
X5100Y2771D01*
X5097Y2771D01*
X5094Y2770D01*
X5091Y2770D01*
X5090Y2770D01*
X5089Y2770D01*
X5088D01*
X5087Y2770D01*
X5086D01*
X5085D01*
X5085D01*
X5085D01*
X5083D01*
X5081Y2770D01*
X5080D01*
X5078Y2770D01*
X5077Y2770D01*
X5076Y2770D01*
X5075Y2770D01*
X5074Y2770D01*
X5073Y2771D01*
X5072Y2771D01*
X5071Y2771D01*
X5071Y2771D01*
X5070Y2771D01*
X5070Y2771D01*
X5070Y2771D01*
X5070D01*
X5068Y2772D01*
X5066Y2772D01*
X5064Y2773D01*
X5063Y2774D01*
X5062Y2774D01*
X5061Y2775D01*
X5060Y2775D01*
X5060Y2775D01*
X5059Y2776D01*
X5058Y2777D01*
X5057Y2778D01*
X5056Y2779D01*
X5055Y2780D01*
X5055Y2781D01*
X5054Y2781D01*
X5054Y2782D01*
Y2782D01*
X5054Y2783D01*
X5053Y2785D01*
X5053Y2786D01*
X5052Y2788D01*
X5052Y2789D01*
X5052Y2790D01*
Y2791D01*
X5052Y2793D01*
X5053Y2795D01*
X5053Y2797D01*
X5054Y2799D01*
X5055Y2800D01*
X5055Y2801D01*
X5055Y2801D01*
X5056Y2802D01*
X5056Y2802D01*
X5056Y2802D01*
Y2802D01*
X5057Y2804D01*
X5059Y2805D01*
X5061Y2806D01*
X5063Y2807D01*
X5064Y2808D01*
X5065Y2809D01*
X5065Y2809D01*
X5066Y2809D01*
X5066Y2809D01*
X5066Y2809D01*
X5067D01*
X5068Y2810D01*
X5069Y2810D01*
X5072Y2810D01*
X5075Y2811D01*
X5078Y2811D01*
X5080Y2811D01*
X5081Y2811D01*
X5082D01*
X5083Y2811D01*
X5084D01*
X5084D01*
X5085D01*
X5085D01*
X5088Y2811D01*
D02*
G37*
G36*
X5075Y2754D02*
X5075Y2753D01*
X5074Y2752D01*
X5073Y2750D01*
X5073Y2749D01*
X5072Y2748D01*
X5072Y2748D01*
X5072Y2748D01*
Y2747D01*
X5071Y2746D01*
X5070Y2744D01*
X5069Y2743D01*
X5068Y2742D01*
X5067Y2741D01*
X5067Y2741D01*
X5066Y2740D01*
X5066Y2740D01*
X5116D01*
Y2732D01*
X5052D01*
Y2737D01*
X5054Y2738D01*
X5055Y2739D01*
X5057Y2740D01*
X5058Y2741D01*
X5059Y2743D01*
X5060Y2743D01*
X5060Y2744D01*
X5061Y2744D01*
X5061Y2744D01*
X5061Y2744D01*
X5062Y2746D01*
X5064Y2748D01*
X5065Y2750D01*
X5066Y2752D01*
X5067Y2753D01*
X5067Y2754D01*
X5068Y2755D01*
X5068Y2755D01*
X5068Y2755D01*
X5068Y2756D01*
Y2756D01*
X5076D01*
X5075Y2754D01*
D02*
G37*
G36*
X4685Y2579D02*
X4688Y2579D01*
X4691Y2578D01*
X4692Y2578D01*
X4694Y2577D01*
X4695Y2577D01*
X4696Y2577D01*
X4697Y2577D01*
X4697Y2576D01*
X4698Y2576D01*
X4698Y2576D01*
X4699Y2576D01*
X4699D01*
X4702Y2574D01*
X4704Y2573D01*
X4706Y2571D01*
X4707Y2570D01*
X4708Y2570D01*
X4709Y2569D01*
X4709Y2568D01*
X4710Y2567D01*
X4710Y2567D01*
X4710Y2567D01*
X4711Y2566D01*
X4711Y2566D01*
X4711Y2566D01*
X4712Y2565D01*
X4712Y2563D01*
X4713Y2561D01*
X4714Y2558D01*
X4715Y2555D01*
X4715Y2554D01*
X4715Y2553D01*
X4715Y2552D01*
Y2551D01*
X4715Y2550D01*
Y2549D01*
X4715Y2547D01*
X4715Y2545D01*
X4715Y2544D01*
X4714Y2542D01*
X4714Y2541D01*
X4713Y2539D01*
X4713Y2538D01*
X4712Y2537D01*
X4712Y2536D01*
X4711Y2535D01*
X4711Y2534D01*
X4710Y2533D01*
X4710Y2533D01*
X4710Y2532D01*
X4710Y2532D01*
X4710Y2532D01*
X4709Y2531D01*
X4707Y2530D01*
X4706Y2529D01*
X4705Y2528D01*
X4702Y2526D01*
X4700Y2525D01*
X4698Y2524D01*
X4697Y2524D01*
X4696Y2523D01*
X4696Y2523D01*
X4695Y2523D01*
X4694Y2523D01*
X4694Y2523D01*
X4694D01*
X4692Y2531D01*
X4693Y2531D01*
X4694Y2532D01*
X4696Y2532D01*
X4697Y2533D01*
X4698Y2533D01*
X4699Y2534D01*
X4700Y2535D01*
X4701Y2535D01*
X4702Y2536D01*
X4702Y2536D01*
X4703Y2537D01*
X4703Y2537D01*
X4703Y2537D01*
X4704Y2538D01*
X4704Y2538D01*
X4704Y2538D01*
X4705Y2539D01*
X4705Y2540D01*
X4706Y2542D01*
X4707Y2544D01*
X4707Y2546D01*
X4708Y2547D01*
X4708Y2548D01*
Y2549D01*
X4708Y2549D01*
Y2550D01*
X4708Y2552D01*
X4707Y2554D01*
X4707Y2556D01*
X4706Y2557D01*
X4706Y2559D01*
X4706Y2559D01*
X4705Y2560D01*
X4705Y2560D01*
X4705Y2560D01*
X4705Y2561D01*
Y2561D01*
X4704Y2562D01*
X4702Y2564D01*
X4701Y2565D01*
X4699Y2566D01*
X4698Y2567D01*
X4697Y2568D01*
X4696Y2568D01*
X4696Y2568D01*
X4696Y2568D01*
X4696D01*
X4693Y2569D01*
X4691Y2569D01*
X4689Y2570D01*
X4686Y2570D01*
X4685Y2570D01*
X4684Y2570D01*
X4684D01*
X4683Y2570D01*
X4682D01*
X4682D01*
X4682D01*
X4682D01*
X4679Y2570D01*
X4677Y2570D01*
X4675Y2570D01*
X4673Y2569D01*
X4671Y2569D01*
X4671Y2569D01*
X4670Y2569D01*
X4670Y2569D01*
X4670Y2569D01*
X4669Y2568D01*
X4669D01*
X4667Y2568D01*
X4665Y2567D01*
X4664Y2565D01*
X4662Y2564D01*
X4661Y2563D01*
X4660Y2562D01*
X4660Y2562D01*
X4660Y2562D01*
Y2562D01*
X4659Y2560D01*
X4658Y2557D01*
X4657Y2555D01*
X4657Y2553D01*
X4656Y2552D01*
X4656Y2551D01*
Y2550D01*
X4656Y2550D01*
Y2549D01*
X4656Y2547D01*
X4657Y2545D01*
X4657Y2543D01*
X4658Y2541D01*
X4658Y2540D01*
X4659Y2539D01*
X4659Y2539D01*
X4659Y2539D01*
X4661Y2537D01*
X4662Y2536D01*
X4664Y2535D01*
X4666Y2534D01*
X4667Y2533D01*
X4668Y2533D01*
X4668Y2532D01*
X4669Y2532D01*
X4669Y2532D01*
X4669Y2532D01*
X4670D01*
X4668Y2524D01*
X4666Y2524D01*
X4664Y2525D01*
X4663Y2525D01*
X4662Y2526D01*
X4660Y2527D01*
X4659Y2528D01*
X4658Y2528D01*
X4657Y2529D01*
X4657Y2530D01*
X4656Y2531D01*
X4655Y2531D01*
X4655Y2532D01*
X4654Y2532D01*
X4654Y2533D01*
X4654Y2533D01*
X4654Y2533D01*
X4653Y2534D01*
X4652Y2535D01*
X4651Y2537D01*
X4651Y2538D01*
X4650Y2541D01*
X4650Y2543D01*
X4649Y2545D01*
X4649Y2546D01*
X4649Y2547D01*
X4649Y2547D01*
X4649Y2548D01*
Y2549D01*
X4649Y2552D01*
X4650Y2555D01*
X4650Y2558D01*
X4650Y2559D01*
X4651Y2560D01*
X4651Y2561D01*
X4652Y2562D01*
X4652Y2563D01*
X4652Y2563D01*
X4652Y2564D01*
X4653Y2564D01*
X4653Y2564D01*
X4653Y2564D01*
X4654Y2567D01*
X4656Y2569D01*
X4658Y2571D01*
X4660Y2573D01*
X4662Y2574D01*
X4662Y2574D01*
X4663Y2575D01*
X4663Y2575D01*
X4664Y2575D01*
X4664Y2575D01*
X4664Y2575D01*
X4667Y2577D01*
X4670Y2578D01*
X4673Y2578D01*
X4676Y2579D01*
X4677Y2579D01*
X4678Y2579D01*
X4679Y2579D01*
X4680D01*
X4681Y2579D01*
X4681D01*
X4681D01*
X4682D01*
X4685Y2579D01*
D02*
G37*
G36*
X4699Y2515D02*
X4700Y2515D01*
X4703Y2514D01*
X4705Y2513D01*
X4706Y2512D01*
X4707Y2512D01*
X4707Y2511D01*
X4708Y2511D01*
X4709Y2510D01*
X4709Y2510D01*
X4710Y2509D01*
X4710Y2509D01*
X4710Y2509D01*
X4710Y2509D01*
X4711Y2508D01*
X4712Y2507D01*
X4712Y2506D01*
X4713Y2504D01*
X4714Y2502D01*
X4714Y2500D01*
X4715Y2499D01*
X4715Y2498D01*
X4715Y2497D01*
X4715Y2496D01*
X4715Y2496D01*
Y2495D01*
X4715Y2493D01*
X4715Y2492D01*
X4715Y2490D01*
X4714Y2489D01*
X4714Y2487D01*
X4713Y2486D01*
X4713Y2485D01*
X4712Y2484D01*
X4712Y2483D01*
X4711Y2482D01*
X4711Y2481D01*
X4710Y2481D01*
X4710Y2480D01*
X4710Y2480D01*
X4709Y2480D01*
X4709Y2480D01*
X4708Y2478D01*
X4707Y2477D01*
X4706Y2477D01*
X4705Y2476D01*
X4703Y2475D01*
X4702Y2475D01*
X4700Y2474D01*
X4699Y2474D01*
X4698Y2474D01*
X4697Y2474D01*
X4697Y2473D01*
X4696Y2473D01*
X4696D01*
X4695D01*
X4695D01*
X4693Y2473D01*
X4691Y2474D01*
X4689Y2474D01*
X4688Y2475D01*
X4686Y2475D01*
X4686Y2476D01*
X4685Y2476D01*
X4685Y2476D01*
X4683Y2478D01*
X4682Y2479D01*
X4681Y2481D01*
X4681Y2482D01*
X4680Y2483D01*
X4680Y2484D01*
X4680Y2485D01*
X4679Y2485D01*
X4679Y2485D01*
Y2485D01*
X4678Y2484D01*
X4678Y2482D01*
X4677Y2481D01*
X4676Y2480D01*
X4675Y2480D01*
X4675Y2479D01*
X4674Y2479D01*
X4674Y2479D01*
X4673Y2478D01*
X4671Y2477D01*
X4670Y2477D01*
X4669Y2477D01*
X4668Y2477D01*
X4667Y2476D01*
X4667D01*
X4666D01*
X4665Y2477D01*
X4663Y2477D01*
X4662Y2477D01*
X4661Y2478D01*
X4660Y2478D01*
X4659Y2479D01*
X4658Y2479D01*
X4658Y2479D01*
X4657Y2480D01*
X4656Y2481D01*
X4655Y2482D01*
X4654Y2483D01*
X4653Y2484D01*
X4652Y2485D01*
X4652Y2485D01*
X4652Y2486D01*
Y2486D01*
X4651Y2487D01*
X4651Y2489D01*
X4650Y2491D01*
X4650Y2492D01*
X4650Y2493D01*
X4650Y2494D01*
Y2497D01*
X4650Y2498D01*
X4650Y2500D01*
X4651Y2503D01*
X4652Y2504D01*
X4652Y2505D01*
X4653Y2506D01*
X4653Y2507D01*
X4653Y2507D01*
X4654Y2507D01*
X4654Y2508D01*
X4654Y2508D01*
X4654Y2508D01*
X4656Y2510D01*
X4658Y2511D01*
X4660Y2512D01*
X4662Y2513D01*
X4664Y2514D01*
X4664Y2514D01*
X4665Y2514D01*
X4666Y2514D01*
X4666Y2514D01*
X4666Y2514D01*
X4666D01*
X4668Y2507D01*
X4666Y2506D01*
X4664Y2506D01*
X4662Y2505D01*
X4661Y2504D01*
X4660Y2504D01*
X4660Y2503D01*
X4659Y2503D01*
X4659Y2503D01*
X4658Y2501D01*
X4657Y2500D01*
X4657Y2499D01*
X4657Y2498D01*
X4656Y2497D01*
X4656Y2496D01*
Y2495D01*
X4656Y2493D01*
X4657Y2492D01*
X4657Y2491D01*
X4658Y2490D01*
X4658Y2489D01*
X4659Y2488D01*
X4659Y2488D01*
X4659Y2487D01*
X4660Y2486D01*
X4661Y2486D01*
X4663Y2485D01*
X4664Y2485D01*
X4665Y2485D01*
X4665Y2485D01*
X4666D01*
X4666D01*
X4666D01*
X4667D01*
X4668Y2485D01*
X4670Y2485D01*
X4671Y2486D01*
X4672Y2487D01*
X4673Y2487D01*
X4674Y2488D01*
X4674Y2488D01*
X4674Y2488D01*
Y2489D01*
X4675Y2490D01*
X4676Y2492D01*
X4676Y2493D01*
X4676Y2495D01*
X4677Y2496D01*
X4677Y2497D01*
Y2498D01*
X4677Y2498D01*
Y2499D01*
X4684Y2500D01*
X4683Y2499D01*
X4683Y2497D01*
X4683Y2497D01*
X4683Y2496D01*
X4683Y2495D01*
Y2494D01*
X4683Y2492D01*
X4683Y2491D01*
X4684Y2489D01*
X4685Y2488D01*
X4685Y2487D01*
X4686Y2486D01*
X4686Y2485D01*
X4686Y2485D01*
X4688Y2484D01*
X4689Y2483D01*
X4691Y2482D01*
X4692Y2482D01*
X4693Y2482D01*
X4694Y2482D01*
X4695Y2482D01*
X4695D01*
X4695D01*
X4695D01*
X4697Y2482D01*
X4699Y2482D01*
X4701Y2483D01*
X4702Y2484D01*
X4703Y2484D01*
X4704Y2485D01*
X4705Y2485D01*
X4705Y2486D01*
X4706Y2487D01*
X4707Y2489D01*
X4708Y2490D01*
X4708Y2492D01*
X4708Y2493D01*
X4709Y2494D01*
X4709Y2494D01*
Y2495D01*
X4709Y2497D01*
X4708Y2498D01*
X4708Y2499D01*
X4707Y2501D01*
X4707Y2502D01*
X4706Y2502D01*
X4706Y2503D01*
X4706Y2503D01*
X4704Y2504D01*
X4703Y2505D01*
X4701Y2506D01*
X4700Y2506D01*
X4698Y2507D01*
X4698Y2507D01*
X4697Y2507D01*
X4697Y2507D01*
X4696Y2507D01*
X4696Y2507D01*
X4696D01*
X4697Y2515D01*
X4699Y2515D01*
D02*
G37*
G36*
X4686Y2465D02*
X4689Y2465D01*
X4692Y2465D01*
X4694Y2465D01*
X4697Y2464D01*
X4699Y2464D01*
X4701Y2463D01*
X4702Y2462D01*
X4704Y2462D01*
X4705Y2461D01*
X4706Y2461D01*
X4707Y2460D01*
X4708Y2460D01*
X4708Y2460D01*
X4708Y2459D01*
X4709Y2459D01*
X4710Y2458D01*
X4711Y2457D01*
X4712Y2456D01*
X4712Y2455D01*
X4713Y2454D01*
X4714Y2452D01*
X4714Y2451D01*
X4714Y2450D01*
X4715Y2449D01*
X4715Y2448D01*
X4715Y2447D01*
X4715Y2446D01*
X4715Y2446D01*
Y2445D01*
X4715Y2442D01*
X4715Y2440D01*
X4714Y2438D01*
X4713Y2436D01*
X4713Y2435D01*
X4712Y2434D01*
X4712Y2434D01*
X4712Y2434D01*
X4712Y2433D01*
X4711Y2433D01*
Y2433D01*
X4710Y2431D01*
X4708Y2430D01*
X4706Y2429D01*
X4705Y2428D01*
X4703Y2427D01*
X4702Y2427D01*
X4702Y2427D01*
X4701Y2426D01*
X4701Y2426D01*
X4701Y2426D01*
X4701D01*
X4699Y2426D01*
X4698Y2425D01*
X4695Y2425D01*
X4692Y2424D01*
X4689Y2424D01*
X4688Y2424D01*
X4686Y2424D01*
X4685D01*
X4684Y2424D01*
X4684D01*
X4683D01*
X4683D01*
X4682D01*
X4681D01*
X4679Y2424D01*
X4678D01*
X4676Y2424D01*
X4675Y2424D01*
X4673Y2424D01*
X4672Y2424D01*
X4671Y2425D01*
X4670Y2425D01*
X4670Y2425D01*
X4669Y2425D01*
X4668Y2425D01*
X4668Y2425D01*
X4668Y2425D01*
X4667Y2425D01*
X4667D01*
X4665Y2426D01*
X4664Y2426D01*
X4662Y2427D01*
X4661Y2428D01*
X4659Y2428D01*
X4659Y2429D01*
X4658Y2429D01*
X4658Y2429D01*
X4656Y2430D01*
X4655Y2431D01*
X4654Y2432D01*
X4653Y2433D01*
X4653Y2434D01*
X4652Y2435D01*
X4652Y2436D01*
X4652Y2436D01*
Y2436D01*
X4651Y2437D01*
X4651Y2439D01*
X4650Y2440D01*
X4650Y2442D01*
X4650Y2443D01*
X4650Y2444D01*
Y2445D01*
X4650Y2447D01*
X4650Y2449D01*
X4651Y2451D01*
X4652Y2453D01*
X4652Y2454D01*
X4653Y2455D01*
X4653Y2455D01*
X4653Y2456D01*
X4653Y2456D01*
X4654Y2456D01*
Y2456D01*
X4655Y2458D01*
X4657Y2459D01*
X4659Y2461D01*
X4660Y2461D01*
X4662Y2462D01*
X4662Y2463D01*
X4663Y2463D01*
X4664Y2463D01*
X4664Y2463D01*
X4664Y2463D01*
X4664D01*
X4666Y2464D01*
X4667Y2464D01*
X4670Y2465D01*
X4673Y2465D01*
X4676Y2465D01*
X4677Y2465D01*
X4678Y2465D01*
X4680D01*
X4681Y2466D01*
X4681D01*
X4682D01*
X4682D01*
X4682D01*
X4686Y2465D01*
D02*
G37*
G36*
Y2416D02*
X4689Y2416D01*
X4692Y2415D01*
X4694Y2415D01*
X4697Y2414D01*
X4699Y2414D01*
X4701Y2413D01*
X4702Y2413D01*
X4704Y2412D01*
X4705Y2411D01*
X4706Y2411D01*
X4707Y2411D01*
X4708Y2410D01*
X4708Y2410D01*
X4708Y2410D01*
X4709Y2410D01*
X4710Y2409D01*
X4711Y2407D01*
X4712Y2406D01*
X4712Y2405D01*
X4713Y2404D01*
X4714Y2403D01*
X4714Y2401D01*
X4714Y2400D01*
X4715Y2399D01*
X4715Y2398D01*
X4715Y2397D01*
X4715Y2397D01*
X4715Y2396D01*
Y2395D01*
X4715Y2392D01*
X4715Y2390D01*
X4714Y2388D01*
X4713Y2387D01*
X4713Y2385D01*
X4712Y2385D01*
X4712Y2384D01*
X4712Y2384D01*
X4712Y2384D01*
X4711Y2383D01*
Y2383D01*
X4710Y2382D01*
X4708Y2380D01*
X4706Y2379D01*
X4705Y2378D01*
X4703Y2377D01*
X4702Y2377D01*
X4702Y2377D01*
X4701Y2377D01*
X4701Y2377D01*
X4701Y2376D01*
X4701D01*
X4699Y2376D01*
X4698Y2376D01*
X4695Y2375D01*
X4692Y2375D01*
X4689Y2374D01*
X4688Y2374D01*
X4686Y2374D01*
X4685D01*
X4684Y2374D01*
X4684D01*
X4683D01*
X4683D01*
X4682D01*
X4681D01*
X4679Y2374D01*
X4678D01*
X4676Y2374D01*
X4675Y2374D01*
X4673Y2374D01*
X4672Y2375D01*
X4671Y2375D01*
X4670Y2375D01*
X4670Y2375D01*
X4669Y2375D01*
X4668Y2375D01*
X4668Y2375D01*
X4668Y2375D01*
X4667Y2376D01*
X4667D01*
X4665Y2376D01*
X4664Y2377D01*
X4662Y2377D01*
X4661Y2378D01*
X4659Y2379D01*
X4659Y2379D01*
X4658Y2379D01*
X4658Y2379D01*
X4656Y2381D01*
X4655Y2382D01*
X4654Y2383D01*
X4653Y2384D01*
X4653Y2385D01*
X4652Y2385D01*
X4652Y2386D01*
X4652Y2386D01*
Y2386D01*
X4651Y2387D01*
X4651Y2389D01*
X4650Y2390D01*
X4650Y2392D01*
X4650Y2393D01*
X4650Y2394D01*
Y2395D01*
X4650Y2397D01*
X4650Y2400D01*
X4651Y2402D01*
X4652Y2403D01*
X4652Y2405D01*
X4653Y2405D01*
X4653Y2406D01*
X4653Y2406D01*
X4653Y2406D01*
X4654Y2406D01*
Y2407D01*
X4655Y2408D01*
X4657Y2410D01*
X4659Y2411D01*
X4660Y2412D01*
X4662Y2412D01*
X4662Y2413D01*
X4663Y2413D01*
X4664Y2413D01*
X4664Y2413D01*
X4664Y2414D01*
X4664D01*
X4666Y2414D01*
X4667Y2414D01*
X4670Y2415D01*
X4673Y2415D01*
X4676Y2416D01*
X4677Y2416D01*
X4678Y2416D01*
X4680D01*
X4681Y2416D01*
X4681D01*
X4682D01*
X4682D01*
X4682D01*
X4686Y2416D01*
D02*
G37*
G36*
X3822Y1895D02*
X3824Y1895D01*
X3825Y1895D01*
X3827Y1894D01*
X3828Y1894D01*
X3830Y1893D01*
X3831Y1893D01*
X3832Y1892D01*
X3833Y1892D01*
X3834Y1891D01*
X3835Y1891D01*
X3836Y1890D01*
X3836Y1890D01*
X3837Y1890D01*
X3837Y1890D01*
X3837Y1890D01*
X3838Y1888D01*
X3839Y1887D01*
X3840Y1886D01*
X3841Y1885D01*
X3843Y1882D01*
X3844Y1880D01*
X3845Y1878D01*
X3845Y1877D01*
X3846Y1876D01*
X3846Y1875D01*
X3846Y1875D01*
X3846Y1874D01*
X3847Y1874D01*
Y1874D01*
X3838Y1872D01*
X3838Y1873D01*
X3837Y1874D01*
X3837Y1876D01*
X3836Y1877D01*
X3836Y1878D01*
X3835Y1879D01*
X3835Y1880D01*
X3834Y1881D01*
X3834Y1881D01*
X3833Y1882D01*
X3833Y1883D01*
X3832Y1883D01*
X3832Y1883D01*
X3832Y1884D01*
X3831Y1884D01*
X3831Y1884D01*
X3830Y1884D01*
X3829Y1885D01*
X3827Y1886D01*
X3825Y1887D01*
X3823Y1887D01*
X3822Y1888D01*
X3821Y1888D01*
X3821D01*
X3820Y1888D01*
X3819D01*
X3817Y1888D01*
X3815Y1887D01*
X3813Y1887D01*
X3812Y1886D01*
X3810Y1886D01*
X3810Y1885D01*
X3809Y1885D01*
X3809Y1885D01*
X3809Y1885D01*
X3808Y1885D01*
X3808D01*
X3807Y1884D01*
X3805Y1882D01*
X3804Y1881D01*
X3803Y1879D01*
X3802Y1878D01*
X3801Y1877D01*
X3801Y1876D01*
X3801Y1876D01*
X3801Y1876D01*
Y1876D01*
X3800Y1873D01*
X3800Y1871D01*
X3799Y1868D01*
X3799Y1866D01*
X3799Y1865D01*
X3799Y1864D01*
Y1863D01*
X3799Y1863D01*
Y1862D01*
Y1862D01*
Y1862D01*
Y1861D01*
X3799Y1859D01*
X3799Y1857D01*
X3799Y1855D01*
X3800Y1853D01*
X3800Y1851D01*
X3800Y1851D01*
X3800Y1850D01*
X3800Y1850D01*
X3801Y1849D01*
X3801Y1849D01*
Y1849D01*
X3802Y1847D01*
X3803Y1845D01*
X3804Y1844D01*
X3805Y1842D01*
X3806Y1841D01*
X3807Y1840D01*
X3807Y1840D01*
X3807Y1840D01*
X3808D01*
X3810Y1838D01*
X3812Y1837D01*
X3814Y1837D01*
X3816Y1836D01*
X3817Y1836D01*
X3818Y1836D01*
X3819D01*
X3819Y1836D01*
X3820D01*
X3822Y1836D01*
X3824Y1836D01*
X3826Y1837D01*
X3828Y1838D01*
X3829Y1838D01*
X3830Y1839D01*
X3830Y1839D01*
X3831Y1839D01*
X3832Y1841D01*
X3833Y1842D01*
X3835Y1844D01*
X3835Y1846D01*
X3836Y1847D01*
X3837Y1848D01*
X3837Y1848D01*
X3837Y1849D01*
X3837Y1849D01*
X3837Y1849D01*
Y1849D01*
X3845Y1847D01*
X3845Y1846D01*
X3844Y1844D01*
X3844Y1843D01*
X3843Y1842D01*
X3842Y1840D01*
X3841Y1839D01*
X3841Y1838D01*
X3840Y1837D01*
X3839Y1836D01*
X3839Y1836D01*
X3838Y1835D01*
X3837Y1835D01*
X3837Y1834D01*
X3837Y1834D01*
X3836Y1834D01*
X3836Y1834D01*
X3835Y1833D01*
X3834Y1832D01*
X3832Y1831D01*
X3831Y1831D01*
X3828Y1830D01*
X3826Y1829D01*
X3825Y1829D01*
X3824Y1829D01*
X3823Y1829D01*
X3822Y1829D01*
X3821Y1829D01*
X3820D01*
X3817Y1829D01*
X3814Y1829D01*
X3812Y1830D01*
X3810Y1830D01*
X3809Y1831D01*
X3808Y1831D01*
X3807Y1831D01*
X3807Y1832D01*
X3806Y1832D01*
X3805Y1832D01*
X3805Y1833D01*
X3805Y1833D01*
X3805Y1833D01*
X3802Y1834D01*
X3800Y1836D01*
X3798Y1838D01*
X3797Y1840D01*
X3795Y1841D01*
X3795Y1842D01*
X3795Y1843D01*
X3794Y1843D01*
X3794Y1844D01*
X3794Y1844D01*
X3794Y1844D01*
X3792Y1847D01*
X3792Y1850D01*
X3791Y1853D01*
X3790Y1856D01*
X3790Y1857D01*
X3790Y1858D01*
X3790Y1859D01*
Y1860D01*
X3790Y1860D01*
Y1861D01*
Y1861D01*
Y1861D01*
X3790Y1865D01*
X3791Y1868D01*
X3791Y1871D01*
X3791Y1872D01*
X3792Y1873D01*
X3792Y1875D01*
X3792Y1876D01*
X3793Y1877D01*
X3793Y1877D01*
X3793Y1878D01*
X3793Y1878D01*
X3793Y1879D01*
Y1879D01*
X3795Y1881D01*
X3796Y1884D01*
X3798Y1886D01*
X3799Y1887D01*
X3800Y1888D01*
X3800Y1888D01*
X3801Y1889D01*
X3802Y1890D01*
X3802Y1890D01*
X3803Y1890D01*
X3803Y1891D01*
X3803Y1891D01*
X3803Y1891D01*
X3805Y1892D01*
X3806Y1892D01*
X3809Y1893D01*
X3811Y1894D01*
X3814Y1894D01*
X3815Y1895D01*
X3816Y1895D01*
X3817Y1895D01*
X3818D01*
X3819Y1895D01*
X3820D01*
X3822Y1895D01*
D02*
G37*
G36*
X3883Y1830D02*
X3878D01*
X3877Y1831D01*
X3876Y1833D01*
X3875Y1834D01*
X3874Y1835D01*
X3873Y1837D01*
X3872Y1837D01*
X3872Y1838D01*
X3871Y1838D01*
X3871Y1838D01*
X3871Y1838D01*
X3869Y1840D01*
X3867Y1841D01*
X3866Y1843D01*
X3864Y1844D01*
X3862Y1845D01*
X3861Y1845D01*
X3861Y1845D01*
X3860Y1845D01*
X3860Y1846D01*
X3860Y1846D01*
X3860D01*
Y1853D01*
X3861Y1853D01*
X3863Y1852D01*
X3864Y1851D01*
X3865Y1851D01*
X3866Y1850D01*
X3867Y1850D01*
X3868Y1849D01*
X3868Y1849D01*
X3868D01*
X3870Y1848D01*
X3871Y1847D01*
X3872Y1846D01*
X3873Y1846D01*
X3874Y1845D01*
X3875Y1844D01*
X3875Y1844D01*
X3876Y1844D01*
Y1894D01*
X3883D01*
Y1830D01*
D02*
G37*
G36*
X3977Y1895D02*
X3979Y1894D01*
X3981Y1894D01*
X3983Y1893D01*
X3984Y1893D01*
X3984Y1892D01*
X3985Y1892D01*
X3985Y1892D01*
X3986Y1891D01*
X3986Y1891D01*
X3986D01*
X3987Y1890D01*
X3989Y1888D01*
X3990Y1886D01*
X3991Y1885D01*
X3992Y1883D01*
X3992Y1882D01*
X3992Y1882D01*
X3992Y1881D01*
X3993Y1881D01*
X3993Y1881D01*
Y1881D01*
X3993Y1879D01*
X3993Y1878D01*
X3994Y1875D01*
X3995Y1872D01*
X3995Y1869D01*
X3995Y1868D01*
X3995Y1866D01*
Y1865D01*
X3995Y1864D01*
Y1863D01*
Y1863D01*
Y1862D01*
Y1862D01*
Y1861D01*
X3995Y1859D01*
Y1857D01*
X3995Y1856D01*
X3995Y1855D01*
X3995Y1853D01*
X3995Y1852D01*
X3994Y1851D01*
X3994Y1850D01*
X3994Y1850D01*
X3994Y1849D01*
X3994Y1848D01*
X3994Y1848D01*
X3994Y1848D01*
X3994Y1847D01*
Y1847D01*
X3993Y1845D01*
X3992Y1843D01*
X3992Y1842D01*
X3991Y1840D01*
X3990Y1839D01*
X3990Y1838D01*
X3990Y1838D01*
X3990Y1838D01*
X3989Y1836D01*
X3988Y1835D01*
X3986Y1834D01*
X3985Y1833D01*
X3985Y1833D01*
X3984Y1832D01*
X3983Y1832D01*
X3983Y1832D01*
X3983D01*
X3982Y1831D01*
X3980Y1831D01*
X3979Y1830D01*
X3977Y1830D01*
X3976Y1830D01*
X3975Y1830D01*
X3974D01*
X3972Y1830D01*
X3969Y1830D01*
X3967Y1831D01*
X3966Y1831D01*
X3964Y1832D01*
X3964Y1833D01*
X3963Y1833D01*
X3963Y1833D01*
X3963Y1833D01*
X3963Y1833D01*
X3963D01*
X3961Y1835D01*
X3959Y1837D01*
X3958Y1838D01*
X3957Y1840D01*
X3957Y1842D01*
X3956Y1842D01*
X3956Y1843D01*
X3956Y1843D01*
X3956Y1844D01*
X3956Y1844D01*
Y1844D01*
X3955Y1845D01*
X3955Y1847D01*
X3954Y1850D01*
X3954Y1853D01*
X3954Y1856D01*
X3953Y1857D01*
X3953Y1858D01*
Y1859D01*
X3953Y1861D01*
Y1861D01*
Y1862D01*
Y1862D01*
Y1862D01*
X3953Y1866D01*
X3954Y1869D01*
X3954Y1871D01*
X3954Y1874D01*
X3955Y1876D01*
X3955Y1879D01*
X3956Y1880D01*
X3956Y1882D01*
X3957Y1884D01*
X3958Y1885D01*
X3958Y1886D01*
X3959Y1887D01*
X3959Y1888D01*
X3959Y1888D01*
X3959Y1888D01*
X3960Y1888D01*
X3961Y1890D01*
X3962Y1891D01*
X3963Y1891D01*
X3964Y1892D01*
X3965Y1893D01*
X3966Y1893D01*
X3968Y1894D01*
X3969Y1894D01*
X3970Y1894D01*
X3971Y1895D01*
X3972Y1895D01*
X3973Y1895D01*
X3973Y1895D01*
X3974D01*
X3977Y1895D01*
D02*
G37*
G36*
X3927D02*
X3929Y1894D01*
X3931Y1894D01*
X3933Y1893D01*
X3934Y1893D01*
X3935Y1892D01*
X3935Y1892D01*
X3936Y1892D01*
X3936Y1891D01*
X3936Y1891D01*
X3936D01*
X3938Y1890D01*
X3939Y1888D01*
X3940Y1886D01*
X3941Y1885D01*
X3942Y1883D01*
X3942Y1882D01*
X3942Y1882D01*
X3943Y1881D01*
X3943Y1881D01*
X3943Y1881D01*
Y1881D01*
X3943Y1879D01*
X3944Y1878D01*
X3944Y1875D01*
X3945Y1872D01*
X3945Y1869D01*
X3945Y1868D01*
X3945Y1866D01*
Y1865D01*
X3945Y1864D01*
Y1863D01*
Y1863D01*
Y1862D01*
Y1862D01*
Y1861D01*
X3945Y1859D01*
Y1857D01*
X3945Y1856D01*
X3945Y1855D01*
X3945Y1853D01*
X3945Y1852D01*
X3945Y1851D01*
X3944Y1850D01*
X3944Y1850D01*
X3944Y1849D01*
X3944Y1848D01*
X3944Y1848D01*
X3944Y1848D01*
X3944Y1847D01*
Y1847D01*
X3943Y1845D01*
X3943Y1843D01*
X3942Y1842D01*
X3941Y1840D01*
X3941Y1839D01*
X3940Y1838D01*
X3940Y1838D01*
X3940Y1838D01*
X3939Y1836D01*
X3938Y1835D01*
X3937Y1834D01*
X3936Y1833D01*
X3935Y1833D01*
X3934Y1832D01*
X3934Y1832D01*
X3933Y1832D01*
X3933D01*
X3932Y1831D01*
X3930Y1831D01*
X3929Y1830D01*
X3927Y1830D01*
X3926Y1830D01*
X3925Y1830D01*
X3924D01*
X3922Y1830D01*
X3920Y1830D01*
X3918Y1831D01*
X3916Y1831D01*
X3915Y1832D01*
X3914Y1833D01*
X3914Y1833D01*
X3913Y1833D01*
X3913Y1833D01*
X3913Y1833D01*
X3913D01*
X3911Y1835D01*
X3910Y1837D01*
X3909Y1838D01*
X3908Y1840D01*
X3907Y1842D01*
X3906Y1842D01*
X3906Y1843D01*
X3906Y1843D01*
X3906Y1844D01*
X3906Y1844D01*
Y1844D01*
X3905Y1845D01*
X3905Y1847D01*
X3905Y1850D01*
X3904Y1853D01*
X3904Y1856D01*
X3904Y1857D01*
X3904Y1858D01*
Y1859D01*
X3904Y1861D01*
Y1861D01*
Y1862D01*
Y1862D01*
Y1862D01*
X3904Y1866D01*
X3904Y1869D01*
X3904Y1871D01*
X3905Y1874D01*
X3905Y1876D01*
X3906Y1879D01*
X3906Y1880D01*
X3907Y1882D01*
X3907Y1884D01*
X3908Y1885D01*
X3908Y1886D01*
X3909Y1887D01*
X3909Y1888D01*
X3910Y1888D01*
X3910Y1888D01*
X3910Y1888D01*
X3911Y1890D01*
X3912Y1891D01*
X3913Y1891D01*
X3914Y1892D01*
X3916Y1893D01*
X3917Y1893D01*
X3918Y1894D01*
X3919Y1894D01*
X3920Y1894D01*
X3921Y1895D01*
X3922Y1895D01*
X3923Y1895D01*
X3924Y1895D01*
X3924D01*
X3927Y1895D01*
D02*
G37*
%LPC*%
G36*
X5484Y4145D02*
X5483D01*
X5483D01*
X5483D01*
X5483D01*
X5480D01*
X5477Y4145D01*
X5475Y4144D01*
X5473Y4144D01*
X5471Y4144D01*
X5469Y4143D01*
X5468Y4143D01*
X5466Y4143D01*
X5465Y4142D01*
X5464Y4142D01*
X5463Y4142D01*
X5463Y4141D01*
X5462Y4141D01*
X5462Y4141D01*
X5462Y4141D01*
X5462D01*
X5461Y4140D01*
X5460Y4139D01*
X5459Y4139D01*
X5459Y4138D01*
X5458Y4136D01*
X5457Y4135D01*
X5457Y4134D01*
X5457Y4133D01*
X5456Y4132D01*
Y4132D01*
X5457Y4131D01*
X5457Y4130D01*
X5457Y4128D01*
X5458Y4127D01*
X5459Y4125D01*
X5460Y4124D01*
X5461Y4123D01*
X5461Y4123D01*
X5462Y4123D01*
X5462D01*
X5463Y4122D01*
X5464Y4121D01*
X5466Y4121D01*
X5467Y4121D01*
X5469Y4120D01*
X5471Y4120D01*
X5474Y4119D01*
X5476Y4119D01*
X5477Y4119D01*
X5479Y4119D01*
X5480D01*
X5481Y4119D01*
X5482D01*
X5482D01*
X5483D01*
X5486Y4119D01*
X5488Y4119D01*
X5490Y4119D01*
X5493Y4120D01*
X5495Y4120D01*
X5496Y4120D01*
X5498Y4121D01*
X5499Y4121D01*
X5501Y4121D01*
X5502Y4122D01*
X5502Y4122D01*
X5503Y4122D01*
X5504Y4123D01*
X5504Y4123D01*
X5504Y4123D01*
X5504D01*
X5505Y4124D01*
X5506Y4124D01*
X5506Y4125D01*
X5507Y4126D01*
X5508Y4127D01*
X5508Y4129D01*
X5509Y4130D01*
X5509Y4131D01*
X5509Y4131D01*
Y4132D01*
X5509Y4133D01*
X5509Y4134D01*
X5508Y4135D01*
X5508Y4136D01*
X5507Y4137D01*
X5506Y4138D01*
X5505Y4140D01*
X5504Y4140D01*
X5504Y4141D01*
X5504Y4141D01*
X5504Y4141D01*
X5504D01*
X5503Y4142D01*
X5501Y4142D01*
X5500Y4143D01*
X5498Y4143D01*
X5497Y4143D01*
X5495Y4144D01*
X5491Y4144D01*
X5489Y4144D01*
X5488Y4145D01*
X5486Y4145D01*
X5485D01*
X5484Y4145D01*
D02*
G37*
G36*
X5498Y4042D02*
X5498D01*
X5498D01*
X5496Y4042D01*
X5495Y4042D01*
X5494Y4042D01*
X5494Y4042D01*
X5493Y4041D01*
X5492Y4041D01*
X5492Y4041D01*
X5492Y4041D01*
X5491Y4040D01*
X5490Y4039D01*
X5489Y4038D01*
X5489Y4038D01*
X5488Y4037D01*
X5488Y4036D01*
X5488Y4036D01*
X5488Y4036D01*
X5488Y4034D01*
X5487Y4033D01*
X5487Y4031D01*
X5487Y4030D01*
X5487Y4029D01*
X5487Y4028D01*
Y4009D01*
X5508D01*
Y4029D01*
X5508Y4031D01*
X5508Y4033D01*
X5507Y4035D01*
X5506Y4037D01*
X5506Y4038D01*
X5505Y4038D01*
X5505Y4039D01*
X5505Y4039D01*
X5504Y4040D01*
X5503Y4041D01*
X5501Y4042D01*
X5500Y4042D01*
X5499Y4042D01*
X5498Y4042D01*
X5498Y4042D01*
D02*
G37*
G36*
X4547Y1970D02*
X4528D01*
Y1948D01*
X4548D01*
X4550Y1949D01*
X4552Y1949D01*
X4554Y1949D01*
X4556Y1950D01*
X4557Y1950D01*
X4558Y1951D01*
X4558Y1951D01*
X4558Y1951D01*
X4559Y1953D01*
X4560Y1954D01*
X4561Y1955D01*
X4561Y1956D01*
X4561Y1957D01*
X4562Y1958D01*
X4562Y1959D01*
Y1959D01*
Y1959D01*
X4562Y1960D01*
X4561Y1961D01*
X4561Y1962D01*
X4561Y1963D01*
X4560Y1964D01*
X4560Y1964D01*
X4560Y1965D01*
X4560Y1965D01*
X4559Y1966D01*
X4558Y1966D01*
X4558Y1967D01*
X4557Y1968D01*
X4556Y1968D01*
X4555Y1968D01*
X4555Y1968D01*
X4555Y1968D01*
X4554Y1969D01*
X4552Y1969D01*
X4551Y1969D01*
X4549Y1969D01*
X4548Y1970D01*
X4547Y1970D01*
D02*
G37*
G36*
X4652Y2000D02*
X4651D01*
X4650Y2000D01*
X4649Y2000D01*
X4647Y1999D01*
X4646Y1998D01*
X4644Y1997D01*
X4643Y1996D01*
X4643Y1996D01*
X4642Y1995D01*
X4642Y1995D01*
Y1995D01*
X4641Y1994D01*
X4641Y1992D01*
X4640Y1991D01*
X4640Y1989D01*
X4639Y1988D01*
X4639Y1986D01*
X4639Y1982D01*
X4638Y1981D01*
X4638Y1979D01*
X4638Y1978D01*
Y1976D01*
X4638Y1975D01*
Y1974D01*
Y1974D01*
Y1974D01*
X4638Y1971D01*
X4638Y1968D01*
X4639Y1966D01*
X4639Y1964D01*
X4639Y1962D01*
X4639Y1960D01*
X4640Y1958D01*
X4640Y1957D01*
X4641Y1956D01*
X4641Y1955D01*
X4641Y1954D01*
X4642Y1953D01*
X4642Y1953D01*
X4642Y1952D01*
X4642Y1952D01*
Y1952D01*
X4643Y1951D01*
X4643Y1951D01*
X4644Y1950D01*
X4645Y1949D01*
X4646Y1949D01*
X4648Y1948D01*
X4649Y1948D01*
X4650Y1948D01*
X4650Y1948D01*
X4651D01*
X4652Y1948D01*
X4653Y1948D01*
X4654Y1948D01*
X4655Y1948D01*
X4656Y1949D01*
X4658Y1950D01*
X4659Y1951D01*
X4660Y1952D01*
X4660Y1952D01*
X4660Y1953D01*
X4660Y1953D01*
Y1953D01*
X4661Y1954D01*
X4661Y1955D01*
X4662Y1957D01*
X4662Y1958D01*
X4663Y1960D01*
X4663Y1962D01*
X4663Y1965D01*
X4664Y1967D01*
X4664Y1968D01*
X4664Y1970D01*
Y1971D01*
X4664Y1972D01*
Y1973D01*
Y1974D01*
Y1974D01*
Y1974D01*
Y1977D01*
X4664Y1979D01*
X4664Y1982D01*
X4663Y1984D01*
X4663Y1986D01*
X4663Y1987D01*
X4662Y1989D01*
X4662Y1990D01*
X4662Y1991D01*
X4661Y1992D01*
X4661Y1993D01*
X4661Y1994D01*
X4660Y1994D01*
X4660Y1994D01*
X4660Y1995D01*
Y1995D01*
X4659Y1996D01*
X4659Y1996D01*
X4658Y1997D01*
X4657Y1998D01*
X4656Y1999D01*
X4654Y1999D01*
X4653Y2000D01*
X4652Y2000D01*
X4652Y2000D01*
D02*
G37*
G36*
X4762Y3471D02*
X4762D01*
X4762D01*
X4761D01*
X4760Y3471D01*
X4759Y3471D01*
X4757Y3470D01*
X4756Y3470D01*
X4756Y3469D01*
X4755Y3469D01*
X4754Y3468D01*
X4754Y3468D01*
X4753Y3467D01*
X4753Y3466D01*
X4752Y3465D01*
X4752Y3463D01*
X4752Y3462D01*
X4752Y3461D01*
X4752Y3461D01*
Y3461D01*
X4752Y3459D01*
X4752Y3458D01*
X4752Y3456D01*
X4753Y3455D01*
X4753Y3454D01*
X4754Y3454D01*
X4754Y3453D01*
X4754Y3453D01*
X4756Y3452D01*
X4757Y3451D01*
X4758Y3451D01*
X4759Y3451D01*
X4760Y3450D01*
X4761Y3450D01*
X4762Y3450D01*
X4762D01*
X4762D01*
X4763Y3450D01*
X4765Y3451D01*
X4766Y3451D01*
X4767Y3452D01*
X4768Y3452D01*
X4768Y3453D01*
X4769Y3453D01*
X4769Y3453D01*
X4770Y3454D01*
X4770Y3455D01*
X4771Y3457D01*
X4771Y3458D01*
X4772Y3459D01*
X4772Y3460D01*
Y3461D01*
X4772Y3462D01*
X4771Y3464D01*
X4771Y3465D01*
X4770Y3466D01*
X4770Y3467D01*
X4769Y3468D01*
X4769Y3468D01*
X4769Y3468D01*
X4768Y3469D01*
X4766Y3470D01*
X4765Y3470D01*
X4764Y3471D01*
X4763Y3471D01*
X4762Y3471D01*
D02*
G37*
G36*
X4733Y3474D02*
X4732D01*
X4732D01*
X4732D01*
X4730Y3474D01*
X4728Y3473D01*
X4727Y3472D01*
X4725Y3472D01*
X4724Y3471D01*
X4724Y3471D01*
X4723Y3470D01*
X4723Y3470D01*
X4722Y3469D01*
X4721Y3467D01*
X4720Y3465D01*
X4720Y3464D01*
X4719Y3463D01*
X4719Y3462D01*
X4719Y3461D01*
Y3461D01*
X4719Y3459D01*
X4720Y3458D01*
X4720Y3457D01*
X4720Y3456D01*
X4720Y3455D01*
X4721Y3454D01*
X4721Y3454D01*
X4721Y3454D01*
X4722Y3453D01*
X4722Y3452D01*
X4723Y3451D01*
X4724Y3450D01*
X4725Y3450D01*
X4725Y3449D01*
X4726Y3449D01*
X4726Y3449D01*
X4727Y3449D01*
X4728Y3448D01*
X4729Y3448D01*
X4730Y3448D01*
X4731Y3448D01*
X4732Y3448D01*
X4732D01*
X4732D01*
X4734Y3448D01*
X4736Y3448D01*
X4738Y3449D01*
X4739Y3449D01*
X4740Y3450D01*
X4741Y3451D01*
X4741Y3451D01*
X4741Y3451D01*
X4743Y3453D01*
X4744Y3454D01*
X4744Y3456D01*
X4745Y3457D01*
X4745Y3458D01*
X4745Y3459D01*
X4745Y3460D01*
Y3460D01*
X4745Y3462D01*
X4745Y3464D01*
X4744Y3466D01*
X4743Y3467D01*
X4743Y3468D01*
X4742Y3469D01*
X4742Y3470D01*
X4741Y3470D01*
X4740Y3471D01*
X4738Y3472D01*
X4737Y3473D01*
X4735Y3473D01*
X4734Y3474D01*
X4733Y3474D01*
X4733Y3474D01*
D02*
G37*
G36*
X4747Y3424D02*
X4746D01*
X4746D01*
X4746D01*
X4745D01*
X4743D01*
X4740Y3423D01*
X4738Y3423D01*
X4735Y3423D01*
X4734Y3423D01*
X4732Y3422D01*
X4730Y3422D01*
X4729Y3422D01*
X4728Y3421D01*
X4727Y3421D01*
X4726Y3421D01*
X4725Y3420D01*
X4725Y3420D01*
X4725Y3420D01*
X4725Y3420D01*
X4724D01*
X4724Y3419D01*
X4723Y3418D01*
X4722Y3418D01*
X4721Y3417D01*
X4721Y3415D01*
X4720Y3414D01*
X4720Y3413D01*
X4719Y3412D01*
X4719Y3411D01*
Y3411D01*
X4719Y3410D01*
X4719Y3409D01*
X4720Y3407D01*
X4721Y3406D01*
X4722Y3404D01*
X4723Y3403D01*
X4724Y3402D01*
X4724Y3402D01*
X4724Y3402D01*
X4724D01*
X4726Y3401D01*
X4727Y3400D01*
X4728Y3400D01*
X4730Y3400D01*
X4732Y3399D01*
X4733Y3399D01*
X4737Y3398D01*
X4739Y3398D01*
X4740Y3398D01*
X4742Y3398D01*
X4743D01*
X4744Y3398D01*
X4745D01*
X4745D01*
X4745D01*
X4748Y3398D01*
X4751Y3398D01*
X4753Y3398D01*
X4756Y3399D01*
X4757Y3399D01*
X4759Y3399D01*
X4761Y3400D01*
X4762Y3400D01*
X4763Y3400D01*
X4764Y3401D01*
X4765Y3401D01*
X4766Y3401D01*
X4766Y3402D01*
X4767Y3402D01*
X4767Y3402D01*
X4767D01*
X4768Y3403D01*
X4769Y3403D01*
X4769Y3404D01*
X4770Y3405D01*
X4771Y3406D01*
X4771Y3408D01*
X4771Y3409D01*
X4772Y3410D01*
X4772Y3410D01*
Y3411D01*
X4772Y3412D01*
X4772Y3413D01*
X4771Y3414D01*
X4771Y3415D01*
X4770Y3416D01*
X4769Y3417D01*
X4768Y3419D01*
X4767Y3419D01*
X4767Y3420D01*
X4767Y3420D01*
X4767Y3420D01*
X4766D01*
X4765Y3421D01*
X4764Y3421D01*
X4763Y3422D01*
X4761Y3422D01*
X4759Y3422D01*
X4758Y3423D01*
X4754Y3423D01*
X4752Y3423D01*
X4751Y3423D01*
X4749Y3424D01*
X4748D01*
X4747Y3424D01*
D02*
G37*
G36*
X4677Y2808D02*
X4676D01*
X4676D01*
X4676D01*
X4673Y2807D01*
X4670Y2807D01*
X4668Y2807D01*
X4666Y2807D01*
X4664Y2807D01*
X4662Y2806D01*
X4660Y2806D01*
X4659Y2805D01*
X4658Y2805D01*
X4657Y2805D01*
X4656Y2804D01*
X4655Y2804D01*
X4655Y2804D01*
X4654Y2804D01*
X4654Y2804D01*
X4654D01*
X4653Y2803D01*
X4653Y2802D01*
X4652Y2801D01*
X4651Y2801D01*
X4651Y2799D01*
X4650Y2798D01*
X4650Y2797D01*
X4650Y2796D01*
X4649Y2795D01*
Y2795D01*
X4650Y2794D01*
X4650Y2793D01*
X4650Y2792D01*
X4650Y2791D01*
X4651Y2789D01*
X4652Y2788D01*
X4653Y2787D01*
X4654Y2786D01*
X4654Y2786D01*
X4655Y2786D01*
X4655Y2786D01*
X4655D01*
X4656Y2785D01*
X4657Y2784D01*
X4659Y2784D01*
X4660Y2783D01*
X4662Y2783D01*
X4664Y2783D01*
X4667Y2782D01*
X4669Y2782D01*
X4670Y2782D01*
X4672Y2782D01*
X4673D01*
X4674Y2782D01*
X4675D01*
X4676D01*
X4676D01*
X4676D01*
X4679D01*
X4681Y2782D01*
X4683Y2782D01*
X4686Y2782D01*
X4688Y2783D01*
X4689Y2783D01*
X4691Y2783D01*
X4692Y2784D01*
X4693Y2784D01*
X4694Y2784D01*
X4695Y2785D01*
X4696Y2785D01*
X4696Y2785D01*
X4696Y2785D01*
X4697Y2786D01*
X4697D01*
X4698Y2786D01*
X4698Y2787D01*
X4699Y2788D01*
X4700Y2789D01*
X4701Y2790D01*
X4701Y2792D01*
X4702Y2793D01*
X4702Y2794D01*
X4702Y2794D01*
Y2795D01*
X4702Y2796D01*
X4702Y2797D01*
X4701Y2798D01*
X4700Y2800D01*
X4699Y2801D01*
X4698Y2802D01*
X4698Y2803D01*
X4697Y2804D01*
X4697Y2804D01*
X4697D01*
X4696Y2804D01*
X4694Y2805D01*
X4693Y2806D01*
X4691Y2806D01*
X4690Y2806D01*
X4688Y2807D01*
X4684Y2807D01*
X4683Y2807D01*
X4681Y2807D01*
X4680Y2807D01*
X4678D01*
X4677Y2808D01*
D02*
G37*
G36*
X5846Y2291D02*
X5846D01*
X5845D01*
X5845D01*
X5842Y2291D01*
X5839Y2291D01*
X5837Y2291D01*
X5835Y2290D01*
X5833Y2290D01*
X5831Y2290D01*
X5830Y2289D01*
X5828Y2289D01*
X5827Y2289D01*
X5826Y2288D01*
X5825Y2288D01*
X5824Y2288D01*
X5824Y2287D01*
X5824Y2287D01*
X5823Y2287D01*
X5823D01*
X5822Y2286D01*
X5822Y2286D01*
X5821Y2285D01*
X5821Y2284D01*
X5820Y2283D01*
X5819Y2281D01*
X5819Y2280D01*
X5819Y2279D01*
X5819Y2279D01*
Y2278D01*
X5819Y2277D01*
X5819Y2276D01*
X5819Y2275D01*
X5819Y2274D01*
X5820Y2273D01*
X5821Y2271D01*
X5822Y2270D01*
X5823Y2270D01*
X5823Y2269D01*
X5824Y2269D01*
X5824Y2269D01*
X5824D01*
X5825Y2268D01*
X5826Y2268D01*
X5828Y2267D01*
X5829Y2267D01*
X5831Y2266D01*
X5833Y2266D01*
X5836Y2266D01*
X5838Y2265D01*
X5840Y2265D01*
X5841Y2265D01*
X5842D01*
X5843Y2265D01*
X5844D01*
X5845D01*
X5845D01*
X5845D01*
X5848D01*
X5850Y2265D01*
X5853Y2266D01*
X5855Y2266D01*
X5857Y2266D01*
X5858Y2266D01*
X5860Y2267D01*
X5861Y2267D01*
X5862Y2267D01*
X5863Y2268D01*
X5864Y2268D01*
X5865Y2268D01*
X5865Y2269D01*
X5866Y2269D01*
X5866Y2269D01*
X5866D01*
X5867Y2270D01*
X5868Y2270D01*
X5868Y2271D01*
X5869Y2272D01*
X5870Y2274D01*
X5870Y2275D01*
X5871Y2276D01*
X5871Y2277D01*
X5871Y2278D01*
Y2278D01*
X5871Y2279D01*
X5871Y2280D01*
X5870Y2282D01*
X5869Y2283D01*
X5868Y2285D01*
X5868Y2286D01*
X5867Y2287D01*
X5866Y2287D01*
X5866Y2287D01*
X5866D01*
X5865Y2288D01*
X5863Y2288D01*
X5862Y2289D01*
X5860Y2289D01*
X5859Y2290D01*
X5857Y2290D01*
X5853Y2290D01*
X5852Y2291D01*
X5850Y2291D01*
X5849Y2291D01*
X5847D01*
X5846Y2291D01*
D02*
G37*
G36*
X5856Y2241D02*
X5856D01*
X5856D01*
X5853Y2240D01*
X5852Y2240D01*
X5850Y2239D01*
X5848Y2239D01*
X5847Y2238D01*
X5846Y2237D01*
X5846Y2237D01*
X5846Y2237D01*
X5844Y2235D01*
X5843Y2234D01*
X5843Y2232D01*
X5842Y2231D01*
X5842Y2230D01*
X5842Y2229D01*
X5842Y2228D01*
Y2228D01*
X5842Y2226D01*
X5842Y2224D01*
X5843Y2223D01*
X5844Y2221D01*
X5844Y2220D01*
X5845Y2220D01*
X5846Y2219D01*
X5846Y2219D01*
X5847Y2218D01*
X5849Y2217D01*
X5851Y2216D01*
X5852Y2216D01*
X5854Y2215D01*
X5854Y2215D01*
X5855D01*
X5855Y2215D01*
X5856D01*
X5856D01*
X5856D01*
X5859Y2215D01*
X5861Y2216D01*
X5863Y2216D01*
X5864Y2217D01*
X5865Y2218D01*
X5866Y2218D01*
X5867Y2219D01*
X5867Y2219D01*
X5867D01*
X5868Y2220D01*
X5868Y2220D01*
X5869Y2222D01*
X5870Y2223D01*
X5871Y2225D01*
X5871Y2226D01*
X5871Y2227D01*
X5871Y2227D01*
Y2227D01*
X5871Y2229D01*
X5871Y2230D01*
X5870Y2231D01*
X5870Y2232D01*
X5870Y2233D01*
X5869Y2234D01*
X5869Y2234D01*
X5869Y2234D01*
X5868Y2235D01*
X5867Y2236D01*
X5866Y2237D01*
X5866Y2238D01*
X5865Y2238D01*
X5864Y2238D01*
X5864Y2239D01*
X5863Y2239D01*
X5862Y2239D01*
X5861Y2240D01*
X5859Y2240D01*
X5858Y2240D01*
X5857Y2240D01*
X5856Y2241D01*
D02*
G37*
G36*
X5867Y3862D02*
X5866D01*
X5865D01*
X5865D01*
X5865D01*
X5862D01*
X5860Y3862D01*
X5857Y3862D01*
X5855Y3862D01*
X5853Y3861D01*
X5852Y3861D01*
X5850Y3861D01*
X5849Y3860D01*
X5848Y3860D01*
X5847Y3860D01*
X5846Y3859D01*
X5845Y3859D01*
X5845Y3859D01*
X5844Y3859D01*
X5844Y3858D01*
X5844D01*
X5843Y3858D01*
X5842Y3857D01*
X5842Y3856D01*
X5841Y3856D01*
X5840Y3854D01*
X5840Y3853D01*
X5839Y3851D01*
X5839Y3850D01*
X5839Y3850D01*
Y3849D01*
X5839Y3848D01*
X5839Y3847D01*
X5840Y3846D01*
X5841Y3844D01*
X5842Y3843D01*
X5842Y3842D01*
X5843Y3841D01*
X5844Y3840D01*
X5844Y3840D01*
X5844D01*
X5845Y3840D01*
X5847Y3839D01*
X5848Y3839D01*
X5850Y3838D01*
X5851Y3838D01*
X5853Y3838D01*
X5857Y3837D01*
X5858Y3837D01*
X5860Y3837D01*
X5861Y3837D01*
X5863D01*
X5864Y3837D01*
X5864D01*
X5865D01*
X5865D01*
X5868Y3837D01*
X5871Y3837D01*
X5873Y3837D01*
X5875Y3837D01*
X5877Y3838D01*
X5879Y3838D01*
X5880Y3838D01*
X5882Y3839D01*
X5883Y3839D01*
X5884Y3839D01*
X5885Y3840D01*
X5886Y3840D01*
X5886Y3840D01*
X5886Y3840D01*
X5887Y3841D01*
X5887D01*
X5888Y3841D01*
X5888Y3842D01*
X5889Y3843D01*
X5889Y3843D01*
X5890Y3845D01*
X5891Y3846D01*
X5891Y3847D01*
X5891Y3848D01*
X5891Y3849D01*
Y3849D01*
X5891Y3850D01*
X5891Y3851D01*
X5891Y3852D01*
X5891Y3853D01*
X5890Y3855D01*
X5889Y3856D01*
X5888Y3857D01*
X5887Y3858D01*
X5887Y3858D01*
X5886Y3858D01*
X5886Y3859D01*
X5886D01*
X5885Y3859D01*
X5884Y3860D01*
X5882Y3860D01*
X5881Y3861D01*
X5879Y3861D01*
X5877Y3861D01*
X5874Y3862D01*
X5872Y3862D01*
X5870Y3862D01*
X5869Y3862D01*
X5868D01*
X5867Y3862D01*
D02*
G37*
G36*
X5115Y4038D02*
X5086D01*
Y4018D01*
X5115Y4038D01*
D02*
G37*
G36*
X5097Y3997D02*
X5096D01*
X5095D01*
X5095D01*
X5095D01*
X5092D01*
X5090Y3997D01*
X5087Y3997D01*
X5085Y3997D01*
X5083Y3996D01*
X5082Y3996D01*
X5080Y3996D01*
X5079Y3995D01*
X5078Y3995D01*
X5077Y3995D01*
X5076Y3994D01*
X5075Y3994D01*
X5075Y3994D01*
X5074Y3994D01*
X5074Y3993D01*
X5074D01*
X5073Y3993D01*
X5072Y3992D01*
X5072Y3991D01*
X5071Y3991D01*
X5070Y3989D01*
X5070Y3988D01*
X5069Y3986D01*
X5069Y3985D01*
X5069Y3985D01*
Y3984D01*
X5069Y3983D01*
X5069Y3982D01*
X5070Y3981D01*
X5071Y3979D01*
X5072Y3978D01*
X5072Y3977D01*
X5073Y3976D01*
X5074Y3975D01*
X5074Y3975D01*
X5074D01*
X5075Y3975D01*
X5077Y3974D01*
X5078Y3974D01*
X5080Y3973D01*
X5081Y3973D01*
X5083Y3973D01*
X5087Y3972D01*
X5088Y3972D01*
X5090Y3972D01*
X5091Y3972D01*
X5093D01*
X5094Y3972D01*
X5094D01*
X5095D01*
X5095D01*
X5098Y3972D01*
X5101Y3972D01*
X5103Y3972D01*
X5105Y3972D01*
X5107Y3973D01*
X5109Y3973D01*
X5110Y3973D01*
X5112Y3974D01*
X5113Y3974D01*
X5114Y3974D01*
X5115Y3975D01*
X5116Y3975D01*
X5116Y3975D01*
X5116Y3975D01*
X5117Y3976D01*
X5117D01*
X5118Y3976D01*
X5118Y3977D01*
X5119Y3978D01*
X5119Y3978D01*
X5120Y3980D01*
X5121Y3981D01*
X5121Y3982D01*
X5121Y3983D01*
X5121Y3984D01*
Y3984D01*
X5121Y3985D01*
X5121Y3986D01*
X5121Y3987D01*
X5121Y3988D01*
X5120Y3990D01*
X5119Y3991D01*
X5118Y3992D01*
X5117Y3993D01*
X5117Y3993D01*
X5116Y3993D01*
X5116Y3994D01*
X5116D01*
X5115Y3994D01*
X5114Y3995D01*
X5112Y3995D01*
X5111Y3996D01*
X5109Y3996D01*
X5107Y3996D01*
X5104Y3997D01*
X5102Y3997D01*
X5100Y3997D01*
X5099Y3997D01*
X5098D01*
X5097Y3997D01*
D02*
G37*
G36*
X4772Y3792D02*
X4771D01*
X4771D01*
X4771D01*
X4771D01*
X4768D01*
X4765Y3792D01*
X4763Y3792D01*
X4761Y3791D01*
X4759Y3791D01*
X4757Y3791D01*
X4756Y3790D01*
X4754Y3790D01*
X4753Y3790D01*
X4752Y3789D01*
X4752Y3789D01*
X4751Y3789D01*
X4750Y3789D01*
X4750Y3788D01*
X4750Y3788D01*
X4750D01*
X4749Y3787D01*
X4748Y3787D01*
X4747Y3786D01*
X4747Y3785D01*
X4746Y3784D01*
X4745Y3782D01*
X4745Y3781D01*
X4745Y3780D01*
X4745Y3780D01*
Y3779D01*
X4745Y3778D01*
X4745Y3777D01*
X4746Y3775D01*
X4746Y3774D01*
X4747Y3772D01*
X4748Y3771D01*
X4749Y3771D01*
X4750Y3770D01*
X4750Y3770D01*
X4750D01*
X4751Y3769D01*
X4752Y3769D01*
X4754Y3768D01*
X4755Y3768D01*
X4757Y3767D01*
X4759Y3767D01*
X4762Y3767D01*
X4764Y3767D01*
X4766Y3766D01*
X4767Y3766D01*
X4768D01*
X4769Y3766D01*
X4770D01*
X4771D01*
X4771D01*
X4774Y3766D01*
X4776Y3766D01*
X4779Y3767D01*
X4781Y3767D01*
X4783Y3767D01*
X4785Y3768D01*
X4786Y3768D01*
X4788Y3768D01*
X4789Y3769D01*
X4790Y3769D01*
X4791Y3769D01*
X4791Y3770D01*
X4792Y3770D01*
X4792Y3770D01*
X4792Y3770D01*
X4792D01*
X4793Y3771D01*
X4794Y3772D01*
X4795Y3772D01*
X4795Y3773D01*
X4796Y3775D01*
X4797Y3776D01*
X4797Y3777D01*
X4797Y3778D01*
X4797Y3778D01*
Y3779D01*
X4797Y3780D01*
X4797Y3781D01*
X4797Y3782D01*
X4796Y3783D01*
X4795Y3784D01*
X4795Y3786D01*
X4793Y3787D01*
X4793Y3788D01*
X4792Y3788D01*
X4792Y3788D01*
X4792Y3788D01*
X4792D01*
X4791Y3789D01*
X4789Y3789D01*
X4788Y3790D01*
X4786Y3790D01*
X4785Y3791D01*
X4783Y3791D01*
X4779Y3792D01*
X4778Y3792D01*
X4776Y3792D01*
X4775Y3792D01*
X4773D01*
X4772Y3792D01*
D02*
G37*
G36*
X5569Y2788D02*
X5568D01*
X5568D01*
X5567D01*
X5564Y2788D01*
X5562Y2788D01*
X5560Y2788D01*
X5557Y2788D01*
X5555Y2787D01*
X5554Y2787D01*
X5552Y2787D01*
X5551Y2786D01*
X5549Y2786D01*
X5548Y2786D01*
X5548Y2785D01*
X5547Y2785D01*
X5546Y2785D01*
X5546Y2785D01*
X5546Y2784D01*
X5546D01*
X5545Y2784D01*
X5544Y2783D01*
X5544Y2782D01*
X5543Y2782D01*
X5542Y2780D01*
X5542Y2779D01*
X5541Y2778D01*
X5541Y2777D01*
X5541Y2776D01*
Y2776D01*
X5541Y2775D01*
X5541Y2774D01*
X5542Y2773D01*
X5542Y2772D01*
X5543Y2770D01*
X5544Y2769D01*
X5545Y2768D01*
X5546Y2767D01*
X5546Y2767D01*
X5546Y2767D01*
X5546Y2766D01*
X5546D01*
X5547Y2766D01*
X5549Y2765D01*
X5550Y2765D01*
X5552Y2764D01*
X5553Y2764D01*
X5555Y2764D01*
X5559Y2763D01*
X5561Y2763D01*
X5562Y2763D01*
X5564Y2763D01*
X5565D01*
X5566Y2763D01*
X5567D01*
X5567D01*
X5567D01*
X5567D01*
X5570D01*
X5573Y2763D01*
X5575Y2763D01*
X5577Y2763D01*
X5579Y2764D01*
X5581Y2764D01*
X5582Y2764D01*
X5584Y2765D01*
X5585Y2765D01*
X5586Y2765D01*
X5587Y2766D01*
X5587Y2766D01*
X5588Y2766D01*
X5588Y2766D01*
X5588Y2767D01*
X5588D01*
X5589Y2767D01*
X5590Y2768D01*
X5591Y2769D01*
X5591Y2769D01*
X5592Y2771D01*
X5593Y2772D01*
X5593Y2774D01*
X5593Y2775D01*
X5594Y2775D01*
Y2776D01*
X5593Y2777D01*
X5593Y2778D01*
X5593Y2779D01*
X5592Y2781D01*
X5591Y2782D01*
X5590Y2783D01*
X5589Y2784D01*
X5589Y2785D01*
X5588Y2785D01*
X5588D01*
X5587Y2785D01*
X5586Y2786D01*
X5584Y2786D01*
X5583Y2787D01*
X5581Y2787D01*
X5579Y2787D01*
X5576Y2788D01*
X5574Y2788D01*
X5573Y2788D01*
X5571Y2788D01*
X5570D01*
X5569Y2788D01*
D02*
G37*
G36*
X5086Y2803D02*
X5086D01*
X5085D01*
X5085D01*
X5082Y2803D01*
X5079Y2803D01*
X5077Y2803D01*
X5075Y2803D01*
X5073Y2802D01*
X5071Y2802D01*
X5070Y2802D01*
X5068Y2801D01*
X5067Y2801D01*
X5066Y2801D01*
X5065Y2800D01*
X5064Y2800D01*
X5064Y2800D01*
X5064Y2800D01*
X5063Y2799D01*
X5063D01*
X5062Y2799D01*
X5062Y2798D01*
X5061Y2797D01*
X5061Y2797D01*
X5060Y2795D01*
X5059Y2794D01*
X5059Y2793D01*
X5059Y2792D01*
X5059Y2791D01*
Y2791D01*
X5059Y2790D01*
X5059Y2789D01*
X5059Y2788D01*
X5059Y2787D01*
X5060Y2785D01*
X5061Y2784D01*
X5062Y2783D01*
X5063Y2782D01*
X5063Y2782D01*
X5064Y2782D01*
X5064Y2781D01*
X5064D01*
X5065Y2781D01*
X5066Y2780D01*
X5068Y2780D01*
X5069Y2779D01*
X5071Y2779D01*
X5073Y2779D01*
X5076Y2778D01*
X5078Y2778D01*
X5080Y2778D01*
X5081Y2778D01*
X5082D01*
X5083Y2778D01*
X5084D01*
X5085D01*
X5085D01*
X5085D01*
X5088D01*
X5090Y2778D01*
X5093Y2778D01*
X5095Y2778D01*
X5097Y2779D01*
X5098Y2779D01*
X5100Y2779D01*
X5101Y2780D01*
X5102Y2780D01*
X5103Y2780D01*
X5104Y2781D01*
X5105Y2781D01*
X5105Y2781D01*
X5106Y2781D01*
X5106Y2782D01*
X5106D01*
X5107Y2782D01*
X5108Y2783D01*
X5108Y2784D01*
X5109Y2784D01*
X5110Y2786D01*
X5110Y2787D01*
X5111Y2789D01*
X5111Y2790D01*
X5111Y2790D01*
Y2791D01*
X5111Y2792D01*
X5111Y2793D01*
X5110Y2794D01*
X5109Y2796D01*
X5108Y2797D01*
X5108Y2798D01*
X5107Y2799D01*
X5106Y2800D01*
X5106Y2800D01*
X5106D01*
X5105Y2800D01*
X5103Y2801D01*
X5102Y2801D01*
X5100Y2802D01*
X5099Y2802D01*
X5097Y2802D01*
X5093Y2803D01*
X5092Y2803D01*
X5090Y2803D01*
X5089Y2803D01*
X5087D01*
X5086Y2803D01*
D02*
G37*
G36*
X4684Y2458D02*
X4683D01*
X4683D01*
X4682D01*
X4680Y2457D01*
X4677Y2457D01*
X4675Y2457D01*
X4672Y2457D01*
X4670Y2457D01*
X4669Y2456D01*
X4667Y2456D01*
X4666Y2455D01*
X4665Y2455D01*
X4664Y2455D01*
X4663Y2454D01*
X4662Y2454D01*
X4661Y2454D01*
X4661Y2454D01*
X4661Y2454D01*
X4661D01*
X4660Y2453D01*
X4659Y2452D01*
X4659Y2452D01*
X4658Y2451D01*
X4657Y2449D01*
X4657Y2448D01*
X4656Y2447D01*
X4656Y2446D01*
X4656Y2445D01*
Y2445D01*
X4656Y2444D01*
X4656Y2443D01*
X4657Y2442D01*
X4657Y2441D01*
X4658Y2439D01*
X4659Y2438D01*
X4660Y2437D01*
X4661Y2436D01*
X4661Y2436D01*
X4661Y2436D01*
X4661Y2436D01*
X4661D01*
X4663Y2435D01*
X4664Y2434D01*
X4665Y2434D01*
X4667Y2433D01*
X4669Y2433D01*
X4670Y2433D01*
X4674Y2432D01*
X4676Y2432D01*
X4677Y2432D01*
X4679Y2432D01*
X4680D01*
X4681Y2432D01*
X4682D01*
X4682D01*
X4682D01*
X4682D01*
X4685D01*
X4688Y2432D01*
X4690Y2432D01*
X4692Y2432D01*
X4694Y2433D01*
X4696Y2433D01*
X4698Y2433D01*
X4699Y2434D01*
X4700Y2434D01*
X4701Y2434D01*
X4702Y2435D01*
X4702Y2435D01*
X4703Y2435D01*
X4703Y2435D01*
X4703Y2436D01*
X4703D01*
X4704Y2436D01*
X4705Y2437D01*
X4706Y2438D01*
X4706Y2439D01*
X4707Y2440D01*
X4708Y2442D01*
X4708Y2443D01*
X4709Y2444D01*
X4709Y2444D01*
Y2445D01*
X4709Y2446D01*
X4708Y2447D01*
X4708Y2448D01*
X4707Y2450D01*
X4706Y2451D01*
X4705Y2452D01*
X4704Y2453D01*
X4704Y2454D01*
X4704Y2454D01*
X4703D01*
X4702Y2454D01*
X4701Y2455D01*
X4700Y2456D01*
X4698Y2456D01*
X4696Y2456D01*
X4695Y2457D01*
X4691Y2457D01*
X4689Y2457D01*
X4688Y2457D01*
X4686Y2457D01*
X4685D01*
X4684Y2458D01*
D02*
G37*
G36*
Y2408D02*
X4683D01*
X4683D01*
X4682D01*
X4680Y2408D01*
X4677Y2408D01*
X4675Y2407D01*
X4672Y2407D01*
X4670Y2407D01*
X4669Y2406D01*
X4667Y2406D01*
X4666Y2406D01*
X4665Y2405D01*
X4664Y2405D01*
X4663Y2405D01*
X4662Y2404D01*
X4661Y2404D01*
X4661Y2404D01*
X4661Y2404D01*
X4661D01*
X4660Y2403D01*
X4659Y2403D01*
X4659Y2402D01*
X4658Y2401D01*
X4657Y2400D01*
X4657Y2398D01*
X4656Y2397D01*
X4656Y2396D01*
X4656Y2396D01*
Y2395D01*
X4656Y2394D01*
X4656Y2393D01*
X4657Y2392D01*
X4657Y2391D01*
X4658Y2390D01*
X4659Y2388D01*
X4660Y2387D01*
X4661Y2386D01*
X4661Y2386D01*
X4661Y2386D01*
X4661Y2386D01*
X4661D01*
X4663Y2385D01*
X4664Y2385D01*
X4665Y2384D01*
X4667Y2384D01*
X4669Y2383D01*
X4670Y2383D01*
X4674Y2383D01*
X4676Y2382D01*
X4677Y2382D01*
X4679Y2382D01*
X4680D01*
X4681Y2382D01*
X4682D01*
X4682D01*
X4682D01*
X4682D01*
X4685D01*
X4688Y2382D01*
X4690Y2382D01*
X4692Y2383D01*
X4694Y2383D01*
X4696Y2383D01*
X4698Y2384D01*
X4699Y2384D01*
X4700Y2384D01*
X4701Y2385D01*
X4702Y2385D01*
X4702Y2385D01*
X4703Y2385D01*
X4703Y2386D01*
X4703Y2386D01*
X4703D01*
X4704Y2387D01*
X4705Y2387D01*
X4706Y2388D01*
X4706Y2389D01*
X4707Y2390D01*
X4708Y2392D01*
X4708Y2393D01*
X4709Y2394D01*
X4709Y2394D01*
Y2395D01*
X4709Y2396D01*
X4708Y2397D01*
X4708Y2399D01*
X4707Y2400D01*
X4706Y2402D01*
X4705Y2403D01*
X4704Y2403D01*
X4704Y2404D01*
X4704Y2404D01*
X4703D01*
X4702Y2405D01*
X4701Y2405D01*
X4700Y2406D01*
X4698Y2406D01*
X4696Y2407D01*
X4695Y2407D01*
X4691Y2407D01*
X4689Y2408D01*
X4688Y2408D01*
X4686Y2408D01*
X4685D01*
X4684Y2408D01*
D02*
G37*
G36*
X3975Y1889D02*
X3974D01*
X3973Y1888D01*
X3972Y1888D01*
X3970Y1888D01*
X3969Y1887D01*
X3968Y1886D01*
X3966Y1885D01*
X3966Y1884D01*
X3965Y1884D01*
X3965Y1883D01*
Y1883D01*
X3964Y1882D01*
X3964Y1881D01*
X3963Y1879D01*
X3963Y1878D01*
X3963Y1876D01*
X3962Y1874D01*
X3962Y1871D01*
X3962Y1869D01*
X3962Y1868D01*
X3961Y1866D01*
Y1865D01*
X3961Y1864D01*
Y1863D01*
Y1863D01*
Y1862D01*
X3961Y1859D01*
X3962Y1857D01*
X3962Y1855D01*
X3962Y1852D01*
X3962Y1850D01*
X3963Y1849D01*
X3963Y1847D01*
X3963Y1846D01*
X3964Y1844D01*
X3964Y1843D01*
X3964Y1843D01*
X3965Y1842D01*
X3965Y1841D01*
X3965Y1841D01*
X3965Y1841D01*
Y1841D01*
X3966Y1840D01*
X3967Y1839D01*
X3967Y1839D01*
X3968Y1838D01*
X3970Y1837D01*
X3971Y1837D01*
X3972Y1836D01*
X3973Y1836D01*
X3974Y1836D01*
X3974D01*
X3975Y1836D01*
X3976Y1836D01*
X3977Y1837D01*
X3978Y1837D01*
X3979Y1838D01*
X3981Y1839D01*
X3982Y1840D01*
X3983Y1841D01*
X3983Y1841D01*
X3983Y1841D01*
X3983Y1841D01*
Y1841D01*
X3984Y1842D01*
X3985Y1844D01*
X3985Y1845D01*
X3985Y1847D01*
X3986Y1848D01*
X3986Y1850D01*
X3987Y1854D01*
X3987Y1856D01*
X3987Y1857D01*
X3987Y1859D01*
Y1860D01*
X3987Y1861D01*
Y1862D01*
Y1862D01*
Y1862D01*
Y1862D01*
Y1865D01*
X3987Y1868D01*
X3987Y1870D01*
X3986Y1872D01*
X3986Y1874D01*
X3986Y1876D01*
X3985Y1877D01*
X3985Y1879D01*
X3985Y1880D01*
X3984Y1881D01*
X3984Y1882D01*
X3984Y1882D01*
X3984Y1883D01*
X3983Y1883D01*
X3983Y1883D01*
Y1883D01*
X3982Y1884D01*
X3982Y1885D01*
X3981Y1886D01*
X3980Y1886D01*
X3979Y1887D01*
X3977Y1888D01*
X3976Y1888D01*
X3975Y1888D01*
X3975Y1889D01*
D02*
G37*
G36*
X3925D02*
X3924D01*
X3923Y1888D01*
X3922Y1888D01*
X3921Y1888D01*
X3919Y1887D01*
X3918Y1886D01*
X3917Y1885D01*
X3916Y1884D01*
X3915Y1884D01*
X3915Y1883D01*
Y1883D01*
X3915Y1882D01*
X3914Y1881D01*
X3914Y1879D01*
X3913Y1878D01*
X3913Y1876D01*
X3913Y1874D01*
X3912Y1871D01*
X3912Y1869D01*
X3912Y1868D01*
X3912Y1866D01*
Y1865D01*
X3912Y1864D01*
Y1863D01*
Y1863D01*
Y1862D01*
X3912Y1859D01*
X3912Y1857D01*
X3912Y1855D01*
X3912Y1852D01*
X3913Y1850D01*
X3913Y1849D01*
X3913Y1847D01*
X3914Y1846D01*
X3914Y1844D01*
X3914Y1843D01*
X3915Y1843D01*
X3915Y1842D01*
X3915Y1841D01*
X3915Y1841D01*
X3916Y1841D01*
Y1841D01*
X3916Y1840D01*
X3917Y1839D01*
X3918Y1839D01*
X3918Y1838D01*
X3920Y1837D01*
X3921Y1837D01*
X3922Y1836D01*
X3923Y1836D01*
X3924Y1836D01*
X3924D01*
X3925Y1836D01*
X3926Y1836D01*
X3927Y1837D01*
X3928Y1837D01*
X3930Y1838D01*
X3931Y1839D01*
X3932Y1840D01*
X3933Y1841D01*
X3933Y1841D01*
X3933Y1841D01*
X3934Y1841D01*
Y1841D01*
X3934Y1842D01*
X3935Y1844D01*
X3935Y1845D01*
X3936Y1847D01*
X3936Y1848D01*
X3936Y1850D01*
X3937Y1854D01*
X3937Y1856D01*
X3937Y1857D01*
X3937Y1859D01*
Y1860D01*
X3937Y1861D01*
Y1862D01*
Y1862D01*
Y1862D01*
Y1862D01*
Y1865D01*
X3937Y1868D01*
X3937Y1870D01*
X3937Y1872D01*
X3936Y1874D01*
X3936Y1876D01*
X3936Y1877D01*
X3935Y1879D01*
X3935Y1880D01*
X3935Y1881D01*
X3934Y1882D01*
X3934Y1882D01*
X3934Y1883D01*
X3934Y1883D01*
X3933Y1883D01*
Y1883D01*
X3933Y1884D01*
X3932Y1885D01*
X3931Y1886D01*
X3931Y1886D01*
X3929Y1887D01*
X3928Y1888D01*
X3926Y1888D01*
X3925Y1888D01*
X3925Y1889D01*
D02*
G37*
%LPD*%
D13*
X5528Y3840D02*
Y4160D01*
X5372D02*
X5528D01*
X5372Y3840D02*
Y4160D01*
Y3840D02*
X5528D01*
X4359Y1929D02*
X4679D01*
Y2084D01*
X4359D02*
X4679D01*
X4359Y1929D02*
Y2084D01*
X4628Y3136D02*
X4798D01*
X4628D02*
Y3416D01*
X4798D01*
Y3136D02*
Y3416D01*
X4623Y3069D02*
X4793D01*
Y2789D02*
Y3069D01*
X4623Y2789D02*
X4793D01*
X4623D02*
Y3069D01*
X5792Y2552D02*
X5962D01*
Y2273D02*
Y2552D01*
X5792Y2273D02*
X5962D01*
X5792D02*
Y2552D01*
X5747Y3575D02*
X5917D01*
X5747D02*
Y3855D01*
X5917D01*
Y3575D02*
Y3855D01*
X4978Y3710D02*
X5147D01*
X4978D02*
Y3990D01*
X5147D01*
Y3710D02*
Y3990D01*
X4653Y3505D02*
X4823D01*
X4653D02*
Y3785D01*
X4823D01*
Y3505D02*
Y3785D01*
X5515Y3050D02*
X5685D01*
Y2770D02*
Y3050D01*
X5515Y2770D02*
X5685D01*
X5515D02*
Y3050D01*
X5033Y3065D02*
X5203D01*
Y2785D02*
Y3065D01*
X5033Y2785D02*
X5203D01*
X5033D02*
Y3065D01*
X4630Y2719D02*
X4800D01*
Y2439D02*
Y2719D01*
X4630Y2439D02*
X4800D01*
X4630D02*
Y2719D01*
X3650Y1810D02*
Y1980D01*
X3930D01*
Y1810D02*
Y1980D01*
X3650Y1810D02*
X3930D01*
M02*
