G04*
G04 #@! TF.GenerationSoftware,Altium Limited,Altium Designer,25.2.1 (25)*
G04*
G04 Layer_Color=16711935*
%FSLAX42Y42*%
%MOMM*%
G71*
G04*
G04 #@! TF.SameCoordinates,144C9D6A-8D9C-405D-8423-3DA1476509E1*
G04*
G04*
G04 #@! TF.FilePolarity,Positive*
G04*
G01*
G75*
%ADD13C,0.20*%
D13*
X5528Y3840D02*
Y4160D01*
X5372D02*
X5528D01*
X5372Y3840D02*
Y4160D01*
Y3840D02*
X5528D01*
X4359Y1929D02*
X4679D01*
Y2084D01*
X4359D02*
X4679D01*
X4359Y1929D02*
Y2084D01*
X4628Y3136D02*
X4798D01*
X4628D02*
Y3416D01*
X4798D01*
Y3136D02*
Y3416D01*
X4623Y3069D02*
X4793D01*
Y2789D02*
Y3069D01*
X4623Y2789D02*
X4793D01*
X4623D02*
Y3069D01*
X5792Y2552D02*
X5962D01*
Y2273D02*
Y2552D01*
X5792Y2273D02*
X5962D01*
X5792D02*
Y2552D01*
X5747Y3575D02*
X5917D01*
X5747D02*
Y3855D01*
X5917D01*
Y3575D02*
Y3855D01*
X4978Y3710D02*
X5147D01*
X4978D02*
Y3990D01*
X5147D01*
Y3710D02*
Y3990D01*
X4653Y3505D02*
X4823D01*
X4653D02*
Y3785D01*
X4823D01*
Y3505D02*
Y3785D01*
X5515Y3050D02*
X5685D01*
Y2770D02*
Y3050D01*
X5515Y2770D02*
X5685D01*
X5515D02*
Y3050D01*
X5033Y3065D02*
X5203D01*
Y2785D02*
Y3065D01*
X5033Y2785D02*
X5203D01*
X5033D02*
Y3065D01*
X4630Y2719D02*
X4800D01*
Y2439D02*
Y2719D01*
X4630Y2439D02*
X4800D01*
X4630D02*
Y2719D01*
X3650Y1810D02*
Y1980D01*
X3930D01*
Y1810D02*
Y1980D01*
X3650Y1810D02*
X3930D01*
M02*
