G04*
G04 #@! TF.GenerationSoftware,Altium Limited,Altium Designer,25.2.1 (25)*
G04*
G04 Layer_Color=255*
%FSLAX42Y42*%
%MOMM*%
G71*
G04*
G04 #@! TF.SameCoordinates,144C9D6A-8D9C-405D-8423-3DA1476509E1*
G04*
G04*
G04 #@! TF.FilePolarity,Positive*
G04*
G01*
G75*
%ADD16R,2.00X5.50*%
%ADD17R,0.30X1.20*%
%ADD18O,1.20X0.30*%
%ADD19R,1.20X0.30*%
%ADD20R,5.50X6.50*%
%ADD21R,0.95X2.10*%
G04:AMPARAMS|DCode=22|XSize=2mm|YSize=2mm|CornerRadius=0.5mm|HoleSize=0mm|Usage=FLASHONLY|Rotation=90.000|XOffset=0mm|YOffset=0mm|HoleType=Round|Shape=RoundedRectangle|*
%AMROUNDEDRECTD22*
21,1,2.00,1.00,0,0,90.0*
21,1,1.00,2.00,0,0,90.0*
1,1,1.00,0.50,0.50*
1,1,1.00,0.50,-0.50*
1,1,1.00,-0.50,-0.50*
1,1,1.00,-0.50,0.50*
%
%ADD22ROUNDEDRECTD22*%
%ADD23R,1.20X0.90*%
%ADD24R,0.90X1.20*%
%ADD25R,1.20X0.70*%
%ADD26R,1.20X0.76*%
%ADD27R,1.20X0.80*%
%ADD28R,1.25X1.10*%
%ADD29R,1.35X0.95*%
%ADD30R,1.60X2.60*%
G04:AMPARAMS|DCode=41|XSize=1.5mm|YSize=2.1mm|CornerRadius=0.75mm|HoleSize=0mm|Usage=FLASHONLY|Rotation=270.000|XOffset=0mm|YOffset=0mm|HoleType=Round|Shape=RoundedRectangle|*
%AMROUNDEDRECTD41*
21,1,1.50,0.60,0,0,270.0*
21,1,0.00,2.10,0,0,270.0*
1,1,1.50,-0.30,0.00*
1,1,1.50,-0.30,0.00*
1,1,1.50,0.30,0.00*
1,1,1.50,0.30,0.00*
%
%ADD41ROUNDEDRECTD41*%
%ADD48O,2.00X2.50*%
%ADD49O,2.50X2.00*%
D16*
X4174Y3774D02*
D03*
X4187Y2873D02*
D03*
D17*
X5411Y3443D02*
D03*
X5361D02*
D03*
X5311D02*
D03*
X5561D02*
D03*
X5511D02*
D03*
X5461D02*
D03*
X5111D02*
D03*
X5061D02*
D03*
X5611D02*
D03*
X5261D02*
D03*
X5211D02*
D03*
X5161D02*
D03*
X5511Y2653D02*
D03*
X5461D02*
D03*
X5611D02*
D03*
X5561D02*
D03*
X5411D02*
D03*
X5161D02*
D03*
X5111D02*
D03*
X5061D02*
D03*
X5211D02*
D03*
X5361D02*
D03*
X5311D02*
D03*
X5261D02*
D03*
D18*
X4941Y3323D02*
D03*
D19*
X5731D02*
D03*
X4941Y3273D02*
D03*
X5731D02*
D03*
X4941Y3223D02*
D03*
X5731D02*
D03*
Y3173D02*
D03*
X4941D02*
D03*
Y3123D02*
D03*
X5731D02*
D03*
Y3073D02*
D03*
X4941D02*
D03*
X5731Y3023D02*
D03*
X4941D02*
D03*
X5731Y2973D02*
D03*
X4941D02*
D03*
Y2923D02*
D03*
X5731D02*
D03*
X4941Y2873D02*
D03*
X5731D02*
D03*
Y2823D02*
D03*
X4941D02*
D03*
X5731Y2773D02*
D03*
X4941D02*
D03*
D20*
X2085Y2950D02*
D03*
D21*
X2313Y2320D02*
D03*
X1857D02*
D03*
D22*
X3685Y2535D02*
D03*
X1050Y3150D02*
D03*
X2602Y2748D02*
D03*
X1350Y3150D02*
D03*
D23*
X4563Y2930D02*
D03*
Y2720D02*
D03*
D24*
X4215Y4320D02*
D03*
X4005D02*
D03*
X1302Y2514D02*
D03*
X1092D02*
D03*
X1302Y2730D02*
D03*
X1092D02*
D03*
X1245Y3640D02*
D03*
X1035D02*
D03*
D25*
X759Y2574D02*
D03*
Y2674D02*
D03*
D26*
Y2472D02*
D03*
Y2775D02*
D03*
D27*
Y2349D02*
D03*
Y2899D02*
D03*
D28*
X3708Y4350D02*
D03*
X3472D02*
D03*
X1523Y3630D02*
D03*
X1758D02*
D03*
D29*
X1600Y2050D02*
D03*
Y2200D02*
D03*
D30*
X2750Y1900D02*
D03*
Y2260D02*
D03*
D41*
X759Y2192D02*
D03*
Y3056D02*
D03*
X379D02*
D03*
Y2192D02*
D03*
D48*
X5864Y4965D02*
D03*
X3832D02*
D03*
X4340D02*
D03*
X5102D02*
D03*
X6118D02*
D03*
X7388D02*
D03*
X7134D02*
D03*
X6880D02*
D03*
X6626D02*
D03*
X6372D02*
D03*
X5610D02*
D03*
X5356D02*
D03*
X4848D02*
D03*
X4594D02*
D03*
X4086D02*
D03*
X5181Y1755D02*
D03*
X4681D02*
D03*
X3396Y1570D02*
D03*
X3904D02*
D03*
X3650D02*
D03*
X5312Y686D02*
D03*
X7344D02*
D03*
X6836D02*
D03*
X6074D02*
D03*
X5058D02*
D03*
X3788D02*
D03*
X4042D02*
D03*
X4296D02*
D03*
X4550D02*
D03*
X4804D02*
D03*
X5566D02*
D03*
X5820D02*
D03*
X6328D02*
D03*
X6582D02*
D03*
X7090D02*
D03*
D49*
X6583Y3304D02*
D03*
Y3050D02*
D03*
Y2797D02*
D03*
Y2542D02*
D03*
X7300Y2546D02*
D03*
Y2800D02*
D03*
Y3054D02*
D03*
Y3308D02*
D03*
M02*
