G04*
G04 #@! TF.GenerationSoftware,Altium Limited,Altium Designer,25.2.1 (25)*
G04*
G04 Layer_Color=32768*
%FSLAX42Y42*%
%MOMM*%
G71*
G04*
G04 #@! TF.SameCoordinates,144C9D6A-8D9C-405D-8423-3DA1476509E1*
G04*
G04*
G04 #@! TF.FilePolarity,Positive*
G04*
G01*
G75*
%ADD13C,0.20*%
D13*
X5517Y3895D02*
Y4105D01*
X5383D02*
X5517D01*
X5383Y3895D02*
Y4105D01*
Y3895D02*
X5517D01*
X4414Y1939D02*
X4624D01*
Y2074D01*
X4414D02*
X4624D01*
X4414Y1939D02*
Y2074D01*
X4640Y3166D02*
X4785D01*
X4640D02*
Y3386D01*
X4785D01*
Y3166D02*
Y3386D01*
X4636Y3039D02*
X4781D01*
Y2819D02*
Y3039D01*
X4636Y2819D02*
X4781D01*
X4636D02*
Y3039D01*
X5805Y2523D02*
X5950D01*
Y2302D02*
Y2523D01*
X5805Y2302D02*
X5950D01*
X5805D02*
Y2523D01*
X5760Y3605D02*
X5905D01*
X5760D02*
Y3825D01*
X5905D01*
Y3605D02*
Y3825D01*
X4990Y3740D02*
X5135D01*
X4990D02*
Y3960D01*
X5135D01*
Y3740D02*
Y3960D01*
X4666Y3535D02*
X4811D01*
X4666D02*
Y3755D01*
X4811D01*
Y3535D02*
Y3755D01*
X5528Y3020D02*
X5672D01*
Y2800D02*
Y3020D01*
X5528Y2800D02*
X5672D01*
X5528D02*
Y3020D01*
X5045Y3035D02*
X5190D01*
Y2815D02*
Y3035D01*
X5045Y2815D02*
X5190D01*
X5045D02*
Y3035D01*
X4643Y2689D02*
X4788D01*
Y2469D02*
Y2689D01*
X4643Y2469D02*
X4788D01*
X4643D02*
Y2689D01*
X3680Y1823D02*
Y1967D01*
X3900D01*
Y1823D02*
Y1967D01*
X3680Y1823D02*
X3900D01*
M02*
