G04*
G04 #@! TF.GenerationSoftware,Altium Limited,Altium Designer,25.2.1 (25)*
G04*
G04 Layer_Color=16711935*
%FSLAX42Y42*%
%MOMM*%
G71*
G04*
G04 #@! TF.SameCoordinates,144C9D6A-8D9C-405D-8423-3DA1476509E1*
G04*
G04*
G04 #@! TF.FilePolarity,Positive*
G04*
G01*
G75*
%ADD13C,0.20*%
%ADD54C,0.10*%
D13*
X4630Y2720D02*
Y2930D01*
X4495Y2720D02*
X4630D01*
X4495D02*
Y2930D01*
X4630D01*
X4005Y4253D02*
X4215D01*
X4005D02*
Y4388D01*
X4215D01*
Y4253D02*
Y4388D01*
X1092Y2447D02*
X1302D01*
X1092D02*
Y2582D01*
X1302D01*
Y2447D02*
Y2582D01*
X1092Y2663D02*
X1302D01*
X1092D02*
Y2798D01*
X1302D01*
Y2663D02*
Y2798D01*
X1035Y3572D02*
X1245D01*
X1035D02*
Y3708D01*
X1245D01*
Y3572D02*
Y3708D01*
X112Y3083D02*
X807D01*
X112Y2164D02*
Y3083D01*
Y2164D02*
X807D01*
Y3083D01*
X3485Y4283D02*
X3695D01*
X3485D02*
Y4417D01*
X3695D01*
Y4283D02*
Y4417D01*
X1535Y3697D02*
X1745D01*
Y3562D02*
Y3697D01*
X1535Y3562D02*
X1745D01*
X1535D02*
Y3697D01*
X1527Y2235D02*
X1673D01*
X1527Y2015D02*
Y2235D01*
Y2015D02*
X1673D01*
Y2235D01*
D54*
X2415Y2545D02*
Y3165D01*
X1755Y2545D02*
Y3165D01*
X2415D01*
X1755Y2545D02*
X2415D01*
X2615Y2295D02*
X2885D01*
X2535Y2215D02*
X2615Y2295D01*
X2885D02*
X2965Y2215D01*
X2535Y1865D02*
Y2215D01*
X2965Y1865D02*
Y2215D01*
X2535Y1865D02*
X2965D01*
M02*
