G04*
G04 #@! TF.GenerationSoftware,Altium Limited,Altium Designer,25.2.1 (25)*
G04*
G04 Layer_Color=2752767*
%FSLAX42Y42*%
%MOMM*%
G71*
G04*
G04 #@! TF.SameCoordinates,144C9D6A-8D9C-405D-8423-3DA1476509E1*
G04*
G04*
G04 #@! TF.FilePolarity,Positive*
G04*
G01*
G75*
%ADD56C,0.13*%
%ADD57C,0.17*%
D56*
X5839Y4940D02*
Y4915D01*
X5889D01*
Y4940D01*
X5915D01*
Y4991D01*
X5889D01*
Y5016D01*
X5839D01*
Y4991D01*
X5813D01*
Y4940D01*
X5839D01*
X3807D02*
Y4915D01*
X3857D01*
Y4940D01*
X3883D01*
Y4991D01*
X3857D01*
Y5016D01*
X3807D01*
Y4991D01*
X3781D01*
Y4940D01*
X3807D01*
X4315D02*
Y4915D01*
X4365D01*
Y4940D01*
X4391D01*
Y4991D01*
X4365D01*
Y5016D01*
X4315D01*
Y4991D01*
X4289D01*
Y4940D01*
X4315D01*
X5077D02*
Y4915D01*
X5127D01*
Y4940D01*
X5153D01*
Y4991D01*
X5127D01*
Y5016D01*
X5077D01*
Y4991D01*
X5051D01*
Y4940D01*
X5077D01*
X6093D02*
Y4915D01*
X6143D01*
Y4940D01*
X6169D01*
Y4991D01*
X6143D01*
Y5016D01*
X6093D01*
Y4991D01*
X6067D01*
Y4940D01*
X6093D01*
X7363D02*
Y4915D01*
X7413D01*
Y4940D01*
X7439D01*
Y4991D01*
X7413D01*
Y5016D01*
X7363D01*
Y4991D01*
X7337D01*
Y4940D01*
X7363D01*
X7109D02*
Y4915D01*
X7159D01*
Y4940D01*
X7185D01*
Y4991D01*
X7159D01*
Y5016D01*
X7109D01*
Y4991D01*
X7083D01*
Y4940D01*
X7109D01*
X6855D02*
Y4915D01*
X6905D01*
Y4940D01*
X6931D01*
Y4991D01*
X6905D01*
Y5016D01*
X6855D01*
Y4991D01*
X6829D01*
Y4940D01*
X6855D01*
X6601D02*
Y4915D01*
X6651D01*
Y4940D01*
X6677D01*
Y4991D01*
X6651D01*
Y5016D01*
X6601D01*
Y4991D01*
X6575D01*
Y4940D01*
X6601D01*
X6347D02*
Y4915D01*
X6397D01*
Y4940D01*
X6423D01*
Y4991D01*
X6397D01*
Y5016D01*
X6347D01*
Y4991D01*
X6321D01*
Y4940D01*
X6347D01*
X5585D02*
Y4915D01*
X5635D01*
Y4940D01*
X5661D01*
Y4991D01*
X5635D01*
Y5016D01*
X5585D01*
Y4991D01*
X5559D01*
Y4940D01*
X5585D01*
X5331D02*
Y4915D01*
X5381D01*
Y4940D01*
X5407D01*
Y4991D01*
X5381D01*
Y5016D01*
X5331D01*
Y4991D01*
X5305D01*
Y4940D01*
X5331D01*
X4823D02*
Y4915D01*
X4873D01*
Y4940D01*
X4899D01*
Y4991D01*
X4873D01*
Y5016D01*
X4823D01*
Y4991D01*
X4797D01*
Y4940D01*
X4823D01*
X4569D02*
Y4915D01*
X4619D01*
Y4940D01*
X4645D01*
Y4991D01*
X4619D01*
Y5016D01*
X4569D01*
Y4991D01*
X4543D01*
Y4940D01*
X4569D01*
X4061D02*
Y4915D01*
X4111D01*
Y4940D01*
X4137D01*
Y4991D01*
X4111D01*
Y5016D01*
X4061D01*
Y4991D01*
X4035D01*
Y4940D01*
X4061D01*
X5155Y1730D02*
Y1704D01*
X5206D01*
Y1730D01*
X5232D01*
Y1780D01*
X5206D01*
Y1806D01*
X5155D01*
Y1780D01*
X5130D01*
Y1730D01*
X5155D01*
X4655D02*
Y1704D01*
X4706D01*
Y1730D01*
X4732D01*
Y1780D01*
X4706D01*
Y1806D01*
X4655D01*
Y1780D01*
X4630D01*
Y1730D01*
X4655D01*
X3371Y1545D02*
Y1519D01*
X3421D01*
Y1545D01*
X3447D01*
Y1595D01*
X3421D01*
Y1621D01*
X3371D01*
Y1595D01*
X3345D01*
Y1545D01*
X3371D01*
X3879D02*
Y1519D01*
X3929D01*
Y1545D01*
X3955D01*
Y1595D01*
X3929D01*
Y1621D01*
X3879D01*
Y1595D01*
X3853D01*
Y1545D01*
X3879D01*
X3625D02*
Y1519D01*
X3675D01*
Y1545D01*
X3701D01*
Y1595D01*
X3675D01*
Y1621D01*
X3625D01*
Y1595D01*
X3599D01*
Y1545D01*
X3625D01*
X6558Y3279D02*
Y3254D01*
X6608D01*
Y3279D01*
X6634D01*
Y3330D01*
X6608D01*
Y3355D01*
X6558D01*
Y3330D01*
X6532D01*
Y3279D01*
X6558D01*
Y3025D02*
Y3000D01*
X6608D01*
Y3025D01*
X6634D01*
Y3076D01*
X6608D01*
Y3101D01*
X6558D01*
Y3076D01*
X6532D01*
Y3025D01*
X6558D01*
Y2771D02*
Y2746D01*
X6608D01*
Y2771D01*
X6634D01*
Y2822D01*
X6608D01*
Y2847D01*
X6558D01*
Y2822D01*
X6532D01*
Y2771D01*
X6558D01*
Y2517D02*
Y2492D01*
X6608D01*
Y2517D01*
X6634D01*
Y2568D01*
X6608D01*
Y2593D01*
X6558D01*
Y2568D01*
X6532D01*
Y2517D01*
X6558D01*
X7275Y2521D02*
Y2495D01*
X7325D01*
Y2521D01*
X7351D01*
Y2571D01*
X7325D01*
Y2597D01*
X7275D01*
Y2571D01*
X7249D01*
Y2521D01*
X7275D01*
Y2775D02*
Y2749D01*
X7325D01*
Y2775D01*
X7351D01*
Y2825D01*
X7325D01*
Y2851D01*
X7275D01*
Y2825D01*
X7249D01*
Y2775D01*
X7275D01*
Y3029D02*
Y3003D01*
X7325D01*
Y3029D01*
X7351D01*
Y3079D01*
X7325D01*
Y3105D01*
X7275D01*
Y3079D01*
X7249D01*
Y3029D01*
X7275D01*
Y3283D02*
Y3257D01*
X7325D01*
Y3283D01*
X7351D01*
Y3333D01*
X7325D01*
Y3359D01*
X7275D01*
Y3333D01*
X7249D01*
Y3283D01*
X7275D01*
X5287Y660D02*
Y635D01*
X5337D01*
Y660D01*
X5363D01*
Y711D01*
X5337D01*
Y736D01*
X5287D01*
Y711D01*
X5261D01*
Y660D01*
X5287D01*
X7319D02*
Y635D01*
X7369D01*
Y660D01*
X7395D01*
Y711D01*
X7369D01*
Y736D01*
X7319D01*
Y711D01*
X7293D01*
Y660D01*
X7319D01*
X6811D02*
Y635D01*
X6861D01*
Y660D01*
X6887D01*
Y711D01*
X6861D01*
Y736D01*
X6811D01*
Y711D01*
X6785D01*
Y660D01*
X6811D01*
X6049D02*
Y635D01*
X6099D01*
Y660D01*
X6125D01*
Y711D01*
X6099D01*
Y736D01*
X6049D01*
Y711D01*
X6023D01*
Y660D01*
X6049D01*
X5033D02*
Y635D01*
X5083D01*
Y660D01*
X5109D01*
Y711D01*
X5083D01*
Y736D01*
X5033D01*
Y711D01*
X5007D01*
Y660D01*
X5033D01*
X3763D02*
Y635D01*
X3813D01*
Y660D01*
X3839D01*
Y711D01*
X3813D01*
Y736D01*
X3763D01*
Y711D01*
X3737D01*
Y660D01*
X3763D01*
X4017D02*
Y635D01*
X4067D01*
Y660D01*
X4093D01*
Y711D01*
X4067D01*
Y736D01*
X4017D01*
Y711D01*
X3991D01*
Y660D01*
X4017D01*
X4271D02*
Y635D01*
X4321D01*
Y660D01*
X4347D01*
Y711D01*
X4321D01*
Y736D01*
X4271D01*
Y711D01*
X4245D01*
Y660D01*
X4271D01*
X4525D02*
Y635D01*
X4575D01*
Y660D01*
X4601D01*
Y711D01*
X4575D01*
Y736D01*
X4525D01*
Y711D01*
X4499D01*
Y660D01*
X4525D01*
X4779D02*
Y635D01*
X4829D01*
Y660D01*
X4855D01*
Y711D01*
X4829D01*
Y736D01*
X4779D01*
Y711D01*
X4753D01*
Y660D01*
X4779D01*
X5541D02*
Y635D01*
X5591D01*
Y660D01*
X5617D01*
Y711D01*
X5591D01*
Y736D01*
X5541D01*
Y711D01*
X5515D01*
Y660D01*
X5541D01*
X5795D02*
Y635D01*
X5845D01*
Y660D01*
X5871D01*
Y711D01*
X5845D01*
Y736D01*
X5795D01*
Y711D01*
X5769D01*
Y660D01*
X5795D01*
X6303D02*
Y635D01*
X6353D01*
Y660D01*
X6379D01*
Y711D01*
X6353D01*
Y736D01*
X6303D01*
Y711D01*
X6277D01*
Y660D01*
X6303D01*
X6557D02*
Y635D01*
X6607D01*
Y660D01*
X6633D01*
Y711D01*
X6607D01*
Y736D01*
X6557D01*
Y711D01*
X6531D01*
Y660D01*
X6557D01*
X7065D02*
Y635D01*
X7115D01*
Y660D01*
X7141D01*
Y711D01*
X7115D01*
Y736D01*
X7065D01*
Y711D01*
X7039D01*
Y660D01*
X7065D01*
X4515Y3199D02*
X4540Y3225D01*
X4566D01*
X4540Y3250D01*
X4566Y3275D01*
X4540D01*
X4515Y3301D01*
X4490Y3275D01*
X4464D01*
X4490Y3250D01*
X4464Y3225D01*
X4490D01*
X4515Y3199D01*
X4525Y3014D02*
X4550Y3040D01*
X4576D01*
X4550Y3065D01*
X4576Y3090D01*
X4550D01*
X4525Y3116D01*
X4500Y3090D01*
X4474D01*
X4500Y3065D01*
X4474Y3040D01*
X4500D01*
X4525Y3014D01*
X4388Y2607D02*
X4413Y2632D01*
X4438D01*
X4413Y2658D01*
X4438Y2683D01*
X4413D01*
X4388Y2708D01*
X4362Y2683D01*
X4337D01*
X4362Y2658D01*
X4337Y2632D01*
X4362D01*
X4388Y2607D01*
X5076Y3577D02*
X5102Y3602D01*
X5127D01*
X5102Y3628D01*
X5127Y3653D01*
X5102D01*
X5076Y3678D01*
X5051Y3653D01*
X5025D01*
X5051Y3628D01*
X5025Y3602D01*
X5051D01*
X5076Y3577D01*
X5345Y2879D02*
X5370Y2905D01*
X5396D01*
X5370Y2930D01*
X5396Y2955D01*
X5370D01*
X5345Y2981D01*
X5320Y2955D01*
X5294D01*
X5320Y2930D01*
X5294Y2905D01*
X5320D01*
X5345Y2879D01*
X2489Y3389D02*
Y3491D01*
X2591D01*
Y3389D01*
X2489D01*
X5335Y3184D02*
X5360Y3210D01*
X5386D01*
X5360Y3235D01*
X5386Y3260D01*
X5360D01*
X5335Y3286D01*
X5310Y3260D01*
X5284D01*
X5310Y3235D01*
X5284Y3210D01*
X5310D01*
X5335Y3184D01*
X5342Y3039D02*
X5368Y3065D01*
X5393D01*
X5368Y3090D01*
X5393Y3115D01*
X5368D01*
X5342Y3141D01*
X5317Y3115D01*
X5292D01*
X5317Y3090D01*
X5292Y3065D01*
X5317D01*
X5342Y3039D01*
X5735Y2592D02*
X5760Y2617D01*
X5786D01*
X5760Y2642D01*
X5786Y2668D01*
X5760D01*
X5735Y2693D01*
X5710Y2668D01*
X5684D01*
X5710Y2642D01*
X5684Y2617D01*
X5710D01*
X5735Y2592D01*
X5362Y3644D02*
X5388Y3670D01*
X5413D01*
X5388Y3695D01*
X5413Y3720D01*
X5388D01*
X5362Y3746D01*
X5337Y3720D01*
X5312D01*
X5337Y3695D01*
X5312Y3670D01*
X5337D01*
X5362Y3644D01*
X5683Y3670D02*
X5708Y3695D01*
X5733D01*
X5708Y3721D01*
X5733Y3746D01*
X5708D01*
X5683Y3772D01*
X5657Y3746D01*
X5632D01*
X5657Y3721D01*
X5632Y3695D01*
X5657D01*
X5683Y3670D01*
X5296Y3992D02*
X5322Y4017D01*
X5347D01*
X5322Y4042D01*
X5347Y4068D01*
X5322D01*
X5296Y4093D01*
X5271Y4068D01*
X5245D01*
X5271Y4042D01*
X5245Y4017D01*
X5271D01*
X5296Y3992D01*
X5800Y3424D02*
X5825Y3449D01*
X5850D01*
X5825Y3475D01*
X5850Y3500D01*
X5825D01*
X5800Y3525D01*
X5774Y3500D01*
X5749D01*
X5774Y3475D01*
X5749Y3449D01*
X5774D01*
X5800Y3424D01*
X4447Y2328D02*
X4472Y2353D01*
X4498D01*
X4472Y2378D01*
X4498Y2404D01*
X4472D01*
X4447Y2429D01*
X4421Y2404D01*
X4396D01*
X4421Y2378D01*
X4396Y2353D01*
X4421D01*
X4447Y2328D01*
X5762Y2089D02*
X5788Y2115D01*
X5813D01*
X5788Y2140D01*
X5813Y2165D01*
X5788D01*
X5762Y2191D01*
X5737Y2165D01*
X5712D01*
X5737Y2140D01*
X5712Y2115D01*
X5737D01*
X5762Y2089D01*
X5139Y3114D02*
X5164Y3140D01*
X5189D01*
X5164Y3165D01*
X5189Y3190D01*
X5164D01*
X5139Y3216D01*
X5113Y3190D01*
X5088D01*
X5113Y3165D01*
X5088Y3140D01*
X5113D01*
X5139Y3114D01*
X5538Y3162D02*
X5563Y3187D01*
X5588D01*
X5563Y3212D01*
X5588Y3238D01*
X5563D01*
X5538Y3263D01*
X5512Y3238D01*
X5487D01*
X5512Y3212D01*
X5487Y3187D01*
X5512D01*
X5538Y3162D01*
X5970Y3467D02*
X5995Y3492D01*
X6021D01*
X5995Y3517D01*
X6021Y3543D01*
X5995D01*
X5970Y3568D01*
X5945Y3543D01*
X5919D01*
X5945Y3517D01*
X5919Y3492D01*
X5945D01*
X5970Y3467D01*
X6704Y1704D02*
Y1806D01*
X6806D01*
Y1704D01*
X6704D01*
X4117Y2132D02*
X4143Y2157D01*
X4168D01*
X4143Y2183D01*
X4168Y2208D01*
X4143D01*
X4117Y2233D01*
X4092Y2208D01*
X4067D01*
X4092Y2183D01*
X4067Y2157D01*
X4092D01*
X4117Y2132D01*
X4125Y1774D02*
X4150Y1800D01*
X4176D01*
X4150Y1825D01*
X4176Y1850D01*
X4150D01*
X4125Y1876D01*
X4100Y1850D01*
X4074D01*
X4100Y1825D01*
X4074Y1800D01*
X4100D01*
X4125Y1774D01*
X4940Y3539D02*
X4965Y3565D01*
X4991D01*
X4965Y3590D01*
X4991Y3615D01*
X4965D01*
X4940Y3641D01*
X4915Y3615D01*
X4889D01*
X4915Y3590D01*
X4889Y3565D01*
X4915D01*
X4940Y3539D01*
X3302Y1849D02*
Y1951D01*
X3403D01*
Y1849D01*
X3302D01*
X1549Y1722D02*
Y1823D01*
X1651D01*
Y1722D01*
X1549D01*
X1452Y2487D02*
Y2588D01*
X1553D01*
Y2487D01*
X1452D01*
X1454Y2692D02*
Y2793D01*
X1556D01*
Y2692D01*
X1454D01*
X394Y2357D02*
Y2458D01*
X496D01*
Y2357D01*
X394D01*
X3174Y4299D02*
Y4401D01*
X3276D01*
Y4299D01*
X3174D01*
X1937Y3652D02*
Y3753D01*
X2038D01*
Y3652D01*
X1937D01*
X1554Y3142D02*
Y3243D01*
X1656D01*
Y3142D01*
X1554D01*
X399Y2799D02*
Y2901D01*
X501D01*
Y2799D01*
X399D01*
X2289Y1529D02*
Y1631D01*
X2391D01*
Y1529D01*
X2289D01*
X2719Y1539D02*
Y1641D01*
X2821D01*
Y1539D01*
X2719D01*
D57*
X810Y2192D02*
G03*
X810Y2192I-51J0D01*
G01*
Y3056D02*
G03*
X810Y3056I-51J0D01*
G01*
X430D02*
G03*
X430Y3056I-51J0D01*
G01*
Y2192D02*
G03*
X430Y2192I-51J0D01*
G01*
M02*
