M48
;Layer_Color=9474304
;FILE_FORMAT=4:2
METRIC,TZ
;TYPE=PLATED
T01F00S00C0.40
T03F00S00C0.80
T04F00S00C1.20
%
T01
X4125Y1825
X4117Y2183
X4447Y2378
X4388Y2658
X4525Y3065
X5139Y3165
X5342Y3090
X5345Y2930
X5735Y2642
X5762Y2140
X5538Y3212
X5335Y3235
X5362Y3695
X5683Y3721
X5800Y3475
X5970Y3517
X5076Y3628
X4940Y3590
X4515Y3250
X5296Y4042
T03
X6755Y1755
X3353Y1900
X2770Y1590
X2340Y1580
X1600Y1773
X1502Y2538
X1505Y2742
X450Y2850
X445Y2408
X1605Y3192
X1988Y3703
X2540Y3440
X3225Y4350
T04
X3788Y686
X4042
X4296
X4550
X4804
X5058
X5312
X5566
X5820
X6074
X6328
X6582
X6836
X7090
X7344
X7300Y2546
Y2800
Y3054
X6583Y3050
Y2797
Y2542
X5181Y1755
X4681
X3904Y1570
X3650
X3396
X3832Y4965
X4086
X4340
X4594
X4848
X5102
X5356
X5610
X5864
X6118
X6372
X6626
X6880
X7134
X7300Y3308
X6583Y3304
X7388Y4965
M30
