G04*
G04 #@! TF.GenerationSoftware,Altium Limited,Altium Designer,25.2.1 (25)*
G04*
G04 Layer_Color=128*
%FSLAX42Y42*%
%MOMM*%
G71*
G04*
G04 #@! TF.SameCoordinates,144C9D6A-8D9C-405D-8423-3DA1476509E1*
G04*
G04*
G04 #@! TF.FilePolarity,Positive*
G04*
G01*
G75*
%ADD56C,0.13*%
D56*
X5804Y4965D02*
X5924D01*
X5864Y4906D02*
Y5026D01*
X3772Y4965D02*
X3892D01*
X3832Y4906D02*
Y5026D01*
X4280Y4965D02*
X4400D01*
X4340Y4906D02*
Y5026D01*
X5042Y4965D02*
X5162D01*
X5102Y4906D02*
Y5026D01*
X6058Y4965D02*
X6178D01*
X6118Y4906D02*
Y5026D01*
X7328Y4965D02*
X7448D01*
X7388Y4906D02*
Y5026D01*
X7074Y4965D02*
X7194D01*
X7134Y4906D02*
Y5026D01*
X6820Y4965D02*
X6940D01*
X6880Y4906D02*
Y5026D01*
X6566Y4965D02*
X6686D01*
X6626Y4906D02*
Y5026D01*
X6312Y4965D02*
X6432D01*
X6372Y4906D02*
Y5026D01*
X5550Y4965D02*
X5670D01*
X5610Y4906D02*
Y5026D01*
X5296Y4965D02*
X5416D01*
X5356Y4906D02*
Y5026D01*
X4788Y4965D02*
X4908D01*
X4848Y4906D02*
Y5026D01*
X4534Y4965D02*
X4654D01*
X4594Y4906D02*
Y5026D01*
X4026Y4965D02*
X4146D01*
X4086Y4906D02*
Y5026D01*
X5121Y1755D02*
X5241D01*
X5181Y1695D02*
Y1815D01*
X4621Y1755D02*
X4741D01*
X4681Y1695D02*
Y1815D01*
X3336Y1570D02*
X3456D01*
X3396Y1510D02*
Y1630D01*
X3844Y1570D02*
X3964D01*
X3904Y1510D02*
Y1630D01*
X3590Y1570D02*
X3710D01*
X3650Y1510D02*
Y1630D01*
X6523Y3304D02*
X6643D01*
X6583Y3244D02*
Y3365D01*
X6523Y3050D02*
X6643D01*
X6583Y2991D02*
Y3110D01*
X6523Y2797D02*
X6643D01*
X6583Y2736D02*
Y2857D01*
X6523Y2542D02*
X6643D01*
X6583Y2483D02*
Y2602D01*
X699Y2192D02*
X819D01*
X759Y2132D02*
Y2251D01*
X699Y3056D02*
X819D01*
X759Y2995D02*
Y3116D01*
X319Y3056D02*
X439D01*
X379Y2995D02*
Y3116D01*
X319Y2192D02*
X439D01*
X379Y2132D02*
Y2251D01*
X7240Y2546D02*
X7360D01*
X7300Y2486D02*
Y2606D01*
X7240Y2800D02*
X7360D01*
X7300Y2740D02*
Y2860D01*
X7240Y3054D02*
X7360D01*
X7300Y2994D02*
Y3114D01*
X7240Y3308D02*
X7360D01*
X7300Y3248D02*
Y3368D01*
X5252Y686D02*
X5372D01*
X5312Y626D02*
Y746D01*
X7284Y686D02*
X7404D01*
X7344Y626D02*
Y746D01*
X6776Y686D02*
X6896D01*
X6836Y626D02*
Y746D01*
X6014Y686D02*
X6134D01*
X6074Y626D02*
Y746D01*
X4998Y686D02*
X5118D01*
X5058Y626D02*
Y746D01*
X3728Y686D02*
X3848D01*
X3788Y626D02*
Y746D01*
X3982Y686D02*
X4102D01*
X4042Y626D02*
Y746D01*
X4236Y686D02*
X4356D01*
X4296Y626D02*
Y746D01*
X4490Y686D02*
X4610D01*
X4550Y626D02*
Y746D01*
X4744Y686D02*
X4864D01*
X4804Y626D02*
Y746D01*
X5506Y686D02*
X5626D01*
X5566Y626D02*
Y746D01*
X5760Y686D02*
X5880D01*
X5820Y626D02*
Y746D01*
X6268Y686D02*
X6388D01*
X6328Y626D02*
Y746D01*
X6522Y686D02*
X6642D01*
X6582Y626D02*
Y746D01*
X7030Y686D02*
X7150D01*
X7090Y626D02*
Y746D01*
X4495Y3250D02*
X4535D01*
X4515Y3230D02*
Y3270D01*
X4505Y3065D02*
X4545D01*
X4525Y3045D02*
Y3085D01*
X4367Y2658D02*
X4408D01*
X4388Y2638D02*
Y2677D01*
X5056Y3628D02*
X5096D01*
X5076Y3608D02*
Y3647D01*
X5325Y2930D02*
X5365D01*
X5345Y2910D02*
Y2950D01*
X2500Y3440D02*
X2580D01*
X2540Y3400D02*
Y3480D01*
X5315Y3235D02*
X5355D01*
X5335Y3215D02*
Y3255D01*
X5322Y3090D02*
X5362D01*
X5342Y3070D02*
Y3110D01*
X5715Y2642D02*
X5755D01*
X5735Y2623D02*
Y2662D01*
X5342Y3695D02*
X5383D01*
X5362Y3675D02*
Y3715D01*
X5662Y3721D02*
X5703D01*
X5683Y3701D02*
Y3741D01*
X5276Y4042D02*
X5316D01*
X5296Y4022D02*
Y4062D01*
X5780Y3475D02*
X5820D01*
X5800Y3455D02*
Y3495D01*
X4427Y2378D02*
X4467D01*
X4447Y2358D02*
Y2398D01*
X5742Y2140D02*
X5783D01*
X5762Y2120D02*
Y2160D01*
X5119Y3165D02*
X5159D01*
X5139Y3145D02*
Y3185D01*
X5517Y3212D02*
X5558D01*
X5538Y3192D02*
Y3233D01*
X5950Y3517D02*
X5990D01*
X5970Y3497D02*
Y3538D01*
X6715Y1755D02*
X6795D01*
X6755Y1715D02*
Y1795D01*
X4097Y2183D02*
X4138D01*
X4117Y2162D02*
Y2202D01*
X4105Y1825D02*
X4145D01*
X4125Y1805D02*
Y1845D01*
X4920Y3590D02*
X4960D01*
X4940Y3570D02*
Y3610D01*
X3312Y1900D02*
X3392D01*
X3353Y1860D02*
Y1940D01*
X1560Y1773D02*
X1640D01*
X1600Y1733D02*
Y1812D01*
X1462Y2538D02*
X1543D01*
X1502Y2498D02*
Y2577D01*
X1465Y2742D02*
X1545D01*
X1505Y2702D02*
Y2783D01*
X405Y2408D02*
X485D01*
X445Y2367D02*
Y2448D01*
X3185Y4350D02*
X3265D01*
X3225Y4310D02*
Y4390D01*
X1948Y3703D02*
X2027D01*
X1988Y3662D02*
Y3742D01*
X1565Y3192D02*
X1645D01*
X1605Y3152D02*
Y3233D01*
X410Y2850D02*
X490D01*
X450Y2810D02*
Y2890D01*
X2300Y1580D02*
X2380D01*
X2340Y1540D02*
Y1620D01*
X2730Y1590D02*
X2810D01*
X2770Y1550D02*
Y1630D01*
M02*
